G04 #@! TF.GenerationSoftware,KiCad,Pcbnew,5.1.5+dfsg1-2build2*
G04 #@! TF.CreationDate,2021-03-08T19:05:36+01:00*
G04 #@! TF.ProjectId,nunchuk64-tht,6e756e63-6875-46b3-9634-2d7468742e6b,rev?*
G04 #@! TF.SameCoordinates,Original*
G04 #@! TF.FileFunction,Copper,L1,Top*
G04 #@! TF.FilePolarity,Positive*
%FSLAX46Y46*%
G04 Gerber Fmt 4.6, Leading zero omitted, Abs format (unit mm)*
G04 Created by KiCad (PCBNEW 5.1.5+dfsg1-2build2) date 2021-03-08 19:05:36*
%MOMM*%
%LPD*%
G04 APERTURE LIST*
%ADD10R,1.500000X1.500000*%
%ADD11C,1.500000*%
%ADD12R,1.050000X1.500000*%
%ADD13O,1.050000X1.500000*%
%ADD14R,1.524000X1.524000*%
%ADD15C,1.524000*%
%ADD16O,1.600000X1.600000*%
%ADD17R,1.600000X1.600000*%
%ADD18R,1.800000X1.800000*%
%ADD19C,1.800000*%
%ADD20C,1.600000*%
%ADD21R,1.270000X1.270000*%
%ADD22C,1.270000*%
%ADD23C,3.048000*%
%ADD24R,1.846667X3.480000*%
%ADD25C,2.000000*%
%ADD26C,0.600000*%
%ADD27C,0.250000*%
%ADD28C,0.508000*%
%ADD29C,1.000000*%
G04 APERTURE END LIST*
D10*
X104965500Y-93916500D03*
D11*
X99885500Y-93916500D03*
X102425500Y-93916500D03*
D12*
X104140000Y-86360000D03*
D13*
X101600000Y-86360000D03*
X102870000Y-86360000D03*
D12*
X97790000Y-86360000D03*
D13*
X95250000Y-86360000D03*
X96520000Y-86360000D03*
D12*
X106045000Y-76073000D03*
D13*
X103505000Y-76073000D03*
X104775000Y-76073000D03*
D12*
X99060000Y-76073000D03*
D13*
X96520000Y-76073000D03*
X97790000Y-76073000D03*
D14*
X99060000Y-111760000D03*
D15*
X99060000Y-109220000D03*
X101600000Y-111760000D03*
X101600000Y-109220000D03*
X104140000Y-111760000D03*
X104140000Y-109220000D03*
D16*
X122936000Y-88392000D03*
X122936000Y-90932000D03*
X122936000Y-93472000D03*
X122936000Y-96012000D03*
X122936000Y-98552000D03*
X122936000Y-101092000D03*
X122936000Y-103632000D03*
D17*
X122936000Y-106172000D03*
D18*
X86360000Y-92710000D03*
D19*
X88900000Y-92710000D03*
D16*
X106680000Y-81280000D03*
X104140000Y-81280000D03*
X101600000Y-81280000D03*
X99060000Y-81280000D03*
D17*
X96520000Y-81280000D03*
D20*
X107990000Y-87630000D03*
D17*
X110490000Y-87630000D03*
D20*
X107990000Y-93980000D03*
D17*
X110490000Y-93980000D03*
D19*
X119380000Y-99060000D03*
X119380000Y-106680000D03*
X91440000Y-91440000D03*
X99060000Y-91440000D03*
D20*
X115570000Y-105330000D03*
X115570000Y-100330000D03*
X91520000Y-96202500D03*
X96520000Y-96202500D03*
D16*
X111760000Y-106680000D03*
X78740000Y-99060000D03*
X109220000Y-106680000D03*
X81280000Y-99060000D03*
X106680000Y-106680000D03*
X83820000Y-99060000D03*
X104140000Y-106680000D03*
X86360000Y-99060000D03*
X101600000Y-106680000D03*
X88900000Y-99060000D03*
X99060000Y-106680000D03*
X91440000Y-99060000D03*
X96520000Y-106680000D03*
X93980000Y-99060000D03*
X93980000Y-106680000D03*
X96520000Y-99060000D03*
X91440000Y-106680000D03*
X99060000Y-99060000D03*
X88900000Y-106680000D03*
X101600000Y-99060000D03*
X86360000Y-106680000D03*
X104140000Y-99060000D03*
X83820000Y-106680000D03*
X106680000Y-99060000D03*
X81280000Y-106680000D03*
X109220000Y-99060000D03*
X78740000Y-106680000D03*
D17*
X111760000Y-99060000D03*
D21*
X119105000Y-82388000D03*
D22*
X119105000Y-80483000D03*
X117200000Y-82388000D03*
X117200000Y-80483000D03*
X115295000Y-82388000D03*
X115295000Y-80483000D03*
D23*
X123550000Y-79594000D03*
X110850000Y-74260000D03*
X123550000Y-74260000D03*
X110850000Y-79594000D03*
D24*
X90940000Y-111600000D03*
X88170000Y-111600000D03*
X85400000Y-111600000D03*
X82630000Y-111600000D03*
X79860000Y-111600000D03*
X122940000Y-111600000D03*
X120170000Y-111600000D03*
X117400000Y-111600000D03*
X114630000Y-111600000D03*
X111860000Y-111600000D03*
D21*
X87505000Y-82388000D03*
D22*
X87505000Y-80483000D03*
X85600000Y-82388000D03*
X85600000Y-80483000D03*
X83695000Y-82388000D03*
X83695000Y-80483000D03*
D23*
X91950000Y-79594000D03*
X79250000Y-74260000D03*
X91950000Y-74260000D03*
X79250000Y-79594000D03*
D25*
X83200000Y-95200000D03*
X78700000Y-95200000D03*
X83200000Y-88700000D03*
X78700000Y-88700000D03*
D26*
X107823000Y-110617000D03*
X96401056Y-104657511D03*
X91884500Y-93599000D03*
X119352694Y-108530011D03*
X93726000Y-104203500D03*
X115887500Y-107813010D03*
X110289060Y-108374968D03*
X104791085Y-100810010D03*
X78867000Y-101473000D03*
X101600000Y-101600000D03*
X88900000Y-83820000D03*
X97716187Y-89280009D03*
X102388632Y-103579989D03*
X114239051Y-103579989D03*
X94678500Y-91884500D03*
D27*
X110490000Y-98664998D02*
X110490000Y-101915002D01*
X122940000Y-109610000D02*
X122940000Y-111600000D01*
X118355679Y-108458000D02*
X119052692Y-109155013D01*
X122485013Y-109155013D02*
X122940000Y-109610000D01*
X107805001Y-97934999D02*
X109760001Y-97934999D01*
X109760001Y-97934999D02*
X110490000Y-98664998D01*
X119052692Y-109155013D02*
X122485013Y-109155013D01*
X110490000Y-101915002D02*
X114300000Y-105725002D01*
X106680000Y-99060000D02*
X107805001Y-97934999D01*
X114300000Y-108458000D02*
X118355679Y-108458000D01*
X114300000Y-105725002D02*
X114300000Y-108458000D01*
X120170000Y-110783334D02*
X120170000Y-111600000D01*
X114113600Y-108908011D02*
X118169279Y-108908011D01*
X118169279Y-108908011D02*
X118871269Y-109610001D01*
X118871269Y-109610001D02*
X118996667Y-109610001D01*
X109220000Y-99060000D02*
X109220000Y-101838588D01*
X118996667Y-109610001D02*
X120170000Y-110783334D01*
X113659489Y-106278077D02*
X113659489Y-108453900D01*
X109220000Y-101838588D02*
X113659489Y-106278077D01*
X113659489Y-108453900D02*
X114113600Y-108908011D01*
X117400000Y-110783334D02*
X117400000Y-111600000D01*
X115974688Y-109358022D02*
X117400000Y-110783334D01*
X113927200Y-109358022D02*
X115974688Y-109358022D01*
X113604189Y-109035011D02*
X113927200Y-109358022D01*
X109035011Y-109035011D02*
X113604189Y-109035011D01*
X106680000Y-106680000D02*
X109035011Y-109035011D01*
X104939999Y-107479999D02*
X104140000Y-106680000D01*
X113381665Y-109534999D02*
X106994999Y-109534999D01*
X114630000Y-110783334D02*
X113381665Y-109534999D01*
X106994999Y-109534999D02*
X104939999Y-107479999D01*
X114630000Y-111600000D02*
X114630000Y-110783334D01*
X108806000Y-111600000D02*
X107823000Y-110617000D01*
X111860000Y-111600000D02*
X108806000Y-111600000D01*
D28*
X119380000Y-106680000D02*
X119380000Y-101282800D01*
X96520000Y-99060000D02*
X96520000Y-96520000D01*
D29*
X96401056Y-99178944D02*
X96520000Y-99060000D01*
X96401056Y-104657511D02*
X96401056Y-99178944D01*
X96520000Y-99060000D02*
X96520000Y-96202500D01*
X94488000Y-96202500D02*
X91884500Y-93599000D01*
X96520000Y-96202500D02*
X94488000Y-96202500D01*
X112290000Y-93980000D02*
X110490000Y-93980000D01*
X112425097Y-93980000D02*
X112290000Y-93980000D01*
X117778012Y-99332915D02*
X112425097Y-93980000D01*
X117792500Y-99949000D02*
X117778012Y-99332915D01*
X119380000Y-101282800D02*
X117792500Y-99949000D01*
D28*
X119380000Y-108502705D02*
X119352694Y-108530011D01*
X119380000Y-106680000D02*
X119380000Y-108502705D01*
X93980000Y-98980000D02*
X91520000Y-96520000D01*
X93980000Y-99060000D02*
X93980000Y-98980000D01*
X116824001Y-99728079D02*
X112345922Y-95250000D01*
X116824001Y-104075999D02*
X116824001Y-99728079D01*
X115570000Y-105330000D02*
X116824001Y-104075999D01*
X109260000Y-95250000D02*
X107990000Y-93980000D01*
X112345922Y-95250000D02*
X109260000Y-95250000D01*
D29*
X93980000Y-103949500D02*
X93726000Y-104203500D01*
X93980000Y-99060000D02*
X93980000Y-103949500D01*
X93980000Y-98662500D02*
X91520000Y-96202500D01*
X93980000Y-99060000D02*
X93980000Y-98662500D01*
D28*
X115570000Y-107495510D02*
X115887500Y-107813010D01*
X115570000Y-105330000D02*
X115570000Y-107495510D01*
D29*
X107990000Y-93980000D02*
X107990000Y-87630000D01*
D27*
X108094999Y-107220001D02*
X108094999Y-104113924D01*
X108094999Y-104113924D02*
X105091084Y-101110009D01*
X110289060Y-108374968D02*
X109249966Y-108374968D01*
X109249966Y-108374968D02*
X108094999Y-107220001D01*
X105091084Y-101110009D02*
X104791085Y-100810010D01*
X90940000Y-108720000D02*
X90940000Y-111600000D01*
X88900000Y-106680000D02*
X90940000Y-108720000D01*
X101600000Y-111760000D02*
X100330000Y-113030000D01*
X92113333Y-111600000D02*
X90940000Y-111600000D01*
X93543333Y-113030000D02*
X92113333Y-111600000D01*
X100330000Y-113030000D02*
X93543333Y-113030000D01*
X101600000Y-109220000D02*
X100512999Y-108132999D01*
X87774999Y-109214999D02*
X88170000Y-109610000D01*
X100512999Y-108132999D02*
X91227997Y-108132999D01*
X91227997Y-108132999D02*
X90025001Y-106930003D01*
X90025001Y-106930003D02*
X90025001Y-106139999D01*
X89440001Y-105554999D02*
X88359999Y-105554999D01*
X90025001Y-106139999D02*
X89440001Y-105554999D01*
X88359999Y-105554999D02*
X87774999Y-106139999D01*
X87774999Y-106139999D02*
X87774999Y-109214999D01*
X88170000Y-109610000D02*
X88170000Y-111600000D01*
X88170000Y-109610000D02*
X86573500Y-108013500D01*
X85153500Y-108013500D02*
X83820000Y-106680000D01*
X86573500Y-108013500D02*
X85153500Y-108013500D01*
X79539999Y-98260001D02*
X78740000Y-99060000D01*
X79865001Y-97934999D02*
X79539999Y-98260001D01*
X81820001Y-97934999D02*
X79865001Y-97934999D01*
X82405001Y-98519999D02*
X81820001Y-97934999D01*
X82405001Y-107788335D02*
X82405001Y-98519999D01*
X85400000Y-110783334D02*
X82405001Y-107788335D01*
X85400000Y-111600000D02*
X85400000Y-110783334D01*
X80480001Y-99859999D02*
X81280000Y-99060000D01*
X80154999Y-108308333D02*
X80154999Y-100185001D01*
X82630000Y-110783334D02*
X80154999Y-108308333D01*
X80154999Y-100185001D02*
X80480001Y-99859999D01*
X82630000Y-111600000D02*
X82630000Y-110783334D01*
X77614999Y-110528332D02*
X77614999Y-102661501D01*
X78686667Y-111600000D02*
X77614999Y-110528332D01*
X79860000Y-111600000D02*
X78686667Y-111600000D01*
X78803500Y-101473000D02*
X78867000Y-101473000D01*
X77614999Y-102661501D02*
X78803500Y-101473000D01*
X101600000Y-101600000D02*
X101600000Y-99060000D01*
D29*
X107269999Y-86129999D02*
X105007998Y-88392000D01*
X108989999Y-86129999D02*
X107269999Y-86129999D01*
X110490000Y-87630000D02*
X108989999Y-86129999D01*
X103632000Y-88392000D02*
X102870000Y-87630000D01*
X105007998Y-88392000D02*
X103632000Y-88392000D01*
X102870000Y-87630000D02*
X102870000Y-86360000D01*
X104965500Y-88434498D02*
X105007998Y-88392000D01*
X104965500Y-93916500D02*
X104965500Y-88434498D01*
D27*
X107479999Y-82079999D02*
X106680000Y-81280000D01*
X120000001Y-83348001D02*
X108748001Y-83348001D01*
X120065001Y-83283001D02*
X120000001Y-83348001D01*
X120065001Y-81443001D02*
X120065001Y-83283001D01*
X108748001Y-83348001D02*
X107479999Y-82079999D01*
X119105000Y-80483000D02*
X120065001Y-81443001D01*
X88139999Y-81117999D02*
X87505000Y-80483000D01*
X88900000Y-81878000D02*
X88139999Y-81117999D01*
X88900000Y-83820000D02*
X88900000Y-81878000D01*
X97790000Y-86360000D02*
X97790000Y-89206196D01*
X97790000Y-89206196D02*
X97716187Y-89280009D01*
X99060000Y-106680000D02*
X97645001Y-105265001D01*
X97645001Y-105265001D02*
X97645001Y-95662499D01*
X97790000Y-82195002D02*
X97790000Y-78262238D01*
X97580001Y-82405001D02*
X97790000Y-82195002D01*
X93824988Y-85245012D02*
X96664999Y-82405001D01*
X96664999Y-82405001D02*
X97580001Y-82405001D01*
X97645001Y-95662499D02*
X97060001Y-95077499D01*
X93824988Y-92915012D02*
X93824988Y-85245012D01*
X97060001Y-95077499D02*
X95987475Y-95077499D01*
X95987475Y-95077499D02*
X93824988Y-92915012D01*
X97790000Y-78262238D02*
X97790000Y-76073000D01*
X104140000Y-81280000D02*
X104140000Y-86360000D01*
X106045000Y-79375000D02*
X104140000Y-81280000D01*
X106045000Y-76073000D02*
X106045000Y-79375000D01*
X100800001Y-105880001D02*
X101600000Y-106680000D01*
X100474999Y-105554999D02*
X100800001Y-105880001D01*
X100474999Y-96733412D02*
X100474999Y-105554999D01*
X98360488Y-94618901D02*
X100474999Y-96733412D01*
X94274999Y-85891999D02*
X94274999Y-90464999D01*
X95076998Y-85090000D02*
X94274999Y-85891999D01*
X104775000Y-79770002D02*
X99455002Y-85090000D01*
X98360488Y-94550488D02*
X98360488Y-94618901D01*
X99455002Y-85090000D02*
X95076998Y-85090000D01*
X94274999Y-90464999D02*
X98360488Y-94550488D01*
X104775000Y-76073000D02*
X104775000Y-79770002D01*
X103014999Y-99600001D02*
X103014999Y-97458505D01*
X103599999Y-100185001D02*
X103014999Y-99600001D01*
X104680001Y-100185001D02*
X103599999Y-100185001D01*
X105165999Y-100085999D02*
X104779003Y-100085999D01*
X104779003Y-100085999D02*
X104680001Y-100185001D01*
X111760000Y-106680000D02*
X105165999Y-100085999D01*
X103014999Y-99600001D02*
X103014999Y-97807999D01*
X105265000Y-100185000D02*
X103599999Y-100185001D01*
X111760000Y-106680000D02*
X105265000Y-100185000D01*
X103014999Y-97458505D02*
X100547995Y-94991501D01*
X99369499Y-94991501D02*
X98810499Y-94432501D01*
X100547995Y-94991501D02*
X99369499Y-94991501D01*
X95250000Y-90678000D02*
X98806000Y-94234000D01*
X95250000Y-86360000D02*
X95250000Y-90678000D01*
X98810499Y-94432501D02*
X98806000Y-94234000D01*
X110319093Y-107479999D02*
X110644095Y-107805001D01*
X110644095Y-107805001D02*
X112300001Y-107805001D01*
X105410000Y-99455002D02*
X105410000Y-98664998D01*
X112300001Y-107805001D02*
X113030000Y-107075002D01*
X110019999Y-107479999D02*
X110319093Y-107479999D01*
X106139999Y-100185001D02*
X105410000Y-99455002D01*
X113030000Y-106284998D02*
X106930003Y-100185001D01*
X109220000Y-106680000D02*
X110019999Y-107479999D01*
X113030000Y-107075002D02*
X113030000Y-106284998D01*
X106930003Y-100185001D02*
X106139999Y-100185001D01*
X101600000Y-87360000D02*
X101600000Y-86360000D01*
X101350499Y-87609501D02*
X101600000Y-87360000D01*
X101350499Y-94605497D02*
X101350499Y-87609501D01*
X105410000Y-98664998D02*
X101350499Y-94605497D01*
X114300000Y-99060000D02*
X115570000Y-100330000D01*
X111760000Y-99060000D02*
X114300000Y-99060000D01*
X102688631Y-103879988D02*
X102388632Y-103579989D01*
X104140000Y-111760000D02*
X102870000Y-110490000D01*
X102870000Y-104061357D02*
X102688631Y-103879988D01*
X113939052Y-103279990D02*
X114239051Y-103579989D01*
X102870000Y-110490000D02*
X102870000Y-104061357D01*
X111760000Y-101100938D02*
X113939052Y-103279990D01*
X111760000Y-99060000D02*
X111760000Y-101100938D01*
X95870001Y-76722999D02*
X85837001Y-76722999D01*
X96520000Y-76073000D02*
X95870001Y-76722999D01*
X83060001Y-81753001D02*
X83695000Y-82388000D01*
X82734999Y-81427999D02*
X83060001Y-81753001D01*
X82734999Y-79825001D02*
X82734999Y-81427999D01*
X85837001Y-76722999D02*
X82734999Y-79825001D01*
X96520000Y-75073000D02*
X96520000Y-76073000D01*
X96917000Y-74676000D02*
X96520000Y-75073000D01*
X99548002Y-74676000D02*
X96917000Y-74676000D01*
X100035001Y-80304999D02*
X100035001Y-75162999D01*
X100035001Y-75162999D02*
X99548002Y-74676000D01*
X99060000Y-81280000D02*
X100035001Y-80304999D01*
X103505000Y-76073000D02*
X101600000Y-77978000D01*
X101600000Y-77978000D02*
X101600000Y-81280000D01*
X110907478Y-82388000D02*
X107950000Y-79430522D01*
X115295000Y-82388000D02*
X110907478Y-82388000D01*
X107950000Y-79430522D02*
X107950000Y-76092998D01*
X107950000Y-76092998D02*
X107842998Y-76092998D01*
X107842998Y-76092998D02*
X107823000Y-76073000D01*
X107823000Y-76073000D02*
X107823000Y-75311000D01*
X107823000Y-75311000D02*
X106934000Y-74422000D01*
X106934000Y-74422000D02*
X104013000Y-74422000D01*
X103505000Y-74930000D02*
X103505000Y-76073000D01*
X104013000Y-74422000D02*
X103505000Y-74930000D01*
X90170000Y-91440000D02*
X91440000Y-91440000D01*
X88900000Y-92710000D02*
X90170000Y-91440000D01*
D28*
X94978499Y-92184499D02*
X94678500Y-91884500D01*
X99060000Y-96258653D02*
X94985846Y-92184499D01*
X94985846Y-92184499D02*
X94978499Y-92184499D01*
X99060000Y-99060000D02*
X99060000Y-96258653D01*
D27*
X87580000Y-95200000D02*
X83200000Y-95200000D01*
X91440000Y-99060000D02*
X87580000Y-95200000D01*
X83200000Y-95200000D02*
X83200000Y-88700000D01*
M02*
