G04 #@! TF.GenerationSoftware,KiCad,Pcbnew,5.1.5+dfsg1-2build2*
G04 #@! TF.CreationDate,2020-11-12T23:36:01+01:00*
G04 #@! TF.ProjectId,nunchuk64-tht,6e756e63-6875-46b3-9634-2d7468742e6b,rev?*
G04 #@! TF.SameCoordinates,Original*
G04 #@! TF.FileFunction,Legend,Top*
G04 #@! TF.FilePolarity,Positive*
%FSLAX46Y46*%
G04 Gerber Fmt 4.6, Leading zero omitted, Abs format (unit mm)*
G04 Created by KiCad (PCBNEW 5.1.5+dfsg1-2build2) date 2020-11-12 23:36:01*
%MOMM*%
%LPD*%
G04 APERTURE LIST*
%ADD10C,0.300000*%
%ADD11C,0.250000*%
%ADD12C,0.150000*%
%ADD13C,0.203200*%
%ADD14C,0.120000*%
G04 APERTURE END LIST*
D10*
X95870846Y-108636843D02*
X95156561Y-108636843D01*
X95085132Y-109351129D01*
X95156561Y-109279700D01*
X95299418Y-109208272D01*
X95656561Y-109208272D01*
X95799418Y-109279700D01*
X95870846Y-109351129D01*
X95942275Y-109493986D01*
X95942275Y-109851129D01*
X95870846Y-109993986D01*
X95799418Y-110065414D01*
X95656561Y-110136843D01*
X95299418Y-110136843D01*
X95156561Y-110065414D01*
X95085132Y-109993986D01*
X96370846Y-108636843D02*
X96870846Y-110136843D01*
X97370846Y-108636843D01*
D11*
X106444401Y-108801538D02*
X106349163Y-108753918D01*
X106206306Y-108753918D01*
X106063448Y-108801538D01*
X105968210Y-108896776D01*
X105920591Y-108992014D01*
X105872972Y-109182490D01*
X105872972Y-109325347D01*
X105920591Y-109515823D01*
X105968210Y-109611061D01*
X106063448Y-109706299D01*
X106206306Y-109753918D01*
X106301544Y-109753918D01*
X106444401Y-109706299D01*
X106492020Y-109658680D01*
X106492020Y-109325347D01*
X106301544Y-109325347D01*
X106920591Y-109753918D02*
X106920591Y-108753918D01*
X107492020Y-109753918D01*
X107492020Y-108753918D01*
X107968210Y-109753918D02*
X107968210Y-108753918D01*
X108206306Y-108753918D01*
X108349163Y-108801538D01*
X108444401Y-108896776D01*
X108492020Y-108992014D01*
X108539639Y-109182490D01*
X108539639Y-109325347D01*
X108492020Y-109515823D01*
X108444401Y-109611061D01*
X108349163Y-109706299D01*
X108206306Y-109753918D01*
X107968210Y-109753918D01*
D10*
X115503285Y-96681967D02*
X114003285Y-96681967D01*
X115503285Y-95824824D01*
X114003285Y-95824824D01*
X114503285Y-94467681D02*
X115503285Y-94467681D01*
X114503285Y-95110539D02*
X115288999Y-95110539D01*
X115431856Y-95039110D01*
X115503285Y-94896253D01*
X115503285Y-94681967D01*
X115431856Y-94539110D01*
X115360428Y-94467681D01*
X114503285Y-93753396D02*
X115503285Y-93753396D01*
X114646142Y-93753396D02*
X114574714Y-93681967D01*
X114503285Y-93539110D01*
X114503285Y-93324824D01*
X114574714Y-93181967D01*
X114717571Y-93110539D01*
X115503285Y-93110539D01*
X115431856Y-91753396D02*
X115503285Y-91896253D01*
X115503285Y-92181967D01*
X115431856Y-92324824D01*
X115360428Y-92396253D01*
X115217571Y-92467681D01*
X114788999Y-92467681D01*
X114646142Y-92396253D01*
X114574714Y-92324824D01*
X114503285Y-92181967D01*
X114503285Y-91896253D01*
X114574714Y-91753396D01*
X115503285Y-91110539D02*
X114003285Y-91110539D01*
X115503285Y-90467681D02*
X114717571Y-90467681D01*
X114574714Y-90539110D01*
X114503285Y-90681967D01*
X114503285Y-90896253D01*
X114574714Y-91039110D01*
X114646142Y-91110539D01*
X114503285Y-89110539D02*
X115503285Y-89110539D01*
X114503285Y-89753396D02*
X115288999Y-89753396D01*
X115431856Y-89681967D01*
X115503285Y-89539110D01*
X115503285Y-89324824D01*
X115431856Y-89181967D01*
X115360428Y-89110539D01*
X115503285Y-88396253D02*
X114003285Y-88396253D01*
X114931856Y-88253396D02*
X115503285Y-87824824D01*
X114503285Y-87824824D02*
X115074714Y-88396253D01*
X114003285Y-86539110D02*
X114003285Y-86824824D01*
X114074714Y-86967681D01*
X114146142Y-87039110D01*
X114360428Y-87181967D01*
X114646142Y-87253396D01*
X115217571Y-87253396D01*
X115360428Y-87181967D01*
X115431856Y-87110539D01*
X115503285Y-86967681D01*
X115503285Y-86681967D01*
X115431856Y-86539110D01*
X115360428Y-86467681D01*
X115217571Y-86396253D01*
X114860428Y-86396253D01*
X114717571Y-86467681D01*
X114646142Y-86539110D01*
X114574714Y-86681967D01*
X114574714Y-86967681D01*
X114646142Y-87110539D01*
X114717571Y-87181967D01*
X114860428Y-87253396D01*
X114503285Y-85110539D02*
X115503285Y-85110539D01*
X113931856Y-85467681D02*
X115003285Y-85824824D01*
X115003285Y-84896253D01*
X116910428Y-94146253D02*
X116838999Y-94289110D01*
X116838999Y-94574824D01*
X116910428Y-94717681D01*
X117053285Y-94860539D01*
X117196142Y-94931967D01*
X117481856Y-94931967D01*
X117624714Y-94860539D01*
X117767571Y-94717681D01*
X117838999Y-94574824D01*
X117838999Y-94289110D01*
X117767571Y-94146253D01*
X116338999Y-94431967D02*
X116410428Y-94789110D01*
X116624714Y-95146253D01*
X116981856Y-95360539D01*
X117338999Y-95431967D01*
X117696142Y-95360539D01*
X118053285Y-95146253D01*
X118267571Y-94789110D01*
X118338999Y-94431967D01*
X118267571Y-94074824D01*
X118053285Y-93717681D01*
X117696142Y-93503396D01*
X117338999Y-93431967D01*
X116981856Y-93503396D01*
X116624714Y-93717681D01*
X116410428Y-94074824D01*
X116338999Y-94431967D01*
X116553285Y-91860539D02*
X116553285Y-91003396D01*
X118053285Y-91431967D02*
X116553285Y-91431967D01*
X117053285Y-89860539D02*
X118053285Y-89860539D01*
X117053285Y-90503396D02*
X117838999Y-90503396D01*
X117981856Y-90431967D01*
X118053285Y-90289110D01*
X118053285Y-90074824D01*
X117981856Y-89931967D01*
X117910428Y-89860539D01*
X118053285Y-88931967D02*
X117981856Y-89074824D01*
X117838999Y-89146253D01*
X116553285Y-89146253D01*
X118053285Y-87717681D02*
X117267571Y-87717681D01*
X117124714Y-87789110D01*
X117053285Y-87931967D01*
X117053285Y-88217681D01*
X117124714Y-88360539D01*
X117981856Y-87717681D02*
X118053285Y-87860539D01*
X118053285Y-88217681D01*
X117981856Y-88360539D01*
X117838999Y-88431967D01*
X117696142Y-88431967D01*
X117553285Y-88360539D01*
X117481856Y-88217681D01*
X117481856Y-87860539D01*
X117410428Y-87717681D01*
X117053285Y-87003396D02*
X118053285Y-87003396D01*
X117196142Y-87003396D02*
X117124714Y-86931967D01*
X117053285Y-86789110D01*
X117053285Y-86574824D01*
X117124714Y-86431967D01*
X117267571Y-86360539D01*
X118053285Y-86360539D01*
X119246142Y-93431967D02*
X119174714Y-93360539D01*
X119103285Y-93217681D01*
X119103285Y-92860539D01*
X119174714Y-92717681D01*
X119246142Y-92646253D01*
X119388999Y-92574824D01*
X119531856Y-92574824D01*
X119746142Y-92646253D01*
X120603285Y-93503396D01*
X120603285Y-92574824D01*
X119103285Y-91646253D02*
X119103285Y-91503396D01*
X119174714Y-91360539D01*
X119246142Y-91289110D01*
X119388999Y-91217681D01*
X119674714Y-91146253D01*
X120031856Y-91146253D01*
X120317571Y-91217681D01*
X120460428Y-91289110D01*
X120531856Y-91360539D01*
X120603285Y-91503396D01*
X120603285Y-91646253D01*
X120531856Y-91789110D01*
X120460428Y-91860539D01*
X120317571Y-91931967D01*
X120031856Y-92003396D01*
X119674714Y-92003396D01*
X119388999Y-91931967D01*
X119246142Y-91860539D01*
X119174714Y-91789110D01*
X119103285Y-91646253D01*
X119246142Y-90574824D02*
X119174714Y-90503396D01*
X119103285Y-90360539D01*
X119103285Y-90003396D01*
X119174714Y-89860539D01*
X119246142Y-89789110D01*
X119388999Y-89717681D01*
X119531856Y-89717681D01*
X119746142Y-89789110D01*
X120603285Y-90646253D01*
X120603285Y-89717681D01*
X119103285Y-88789110D02*
X119103285Y-88646253D01*
X119174714Y-88503396D01*
X119246142Y-88431967D01*
X119388999Y-88360539D01*
X119674714Y-88289110D01*
X120031856Y-88289110D01*
X120317571Y-88360539D01*
X120460428Y-88431967D01*
X120531856Y-88503396D01*
X120603285Y-88646253D01*
X120603285Y-88789110D01*
X120531856Y-88931967D01*
X120460428Y-89003396D01*
X120317571Y-89074824D01*
X120031856Y-89146253D01*
X119674714Y-89146253D01*
X119388999Y-89074824D01*
X119246142Y-89003396D01*
X119174714Y-88931967D01*
X119103285Y-88789110D01*
D12*
X97613113Y-113680000D02*
G75*
G03X97613113Y-113680000I-403113J0D01*
G01*
D13*
X105410000Y-113030000D02*
X97790000Y-113030000D01*
X97790000Y-107950000D02*
X105410000Y-107950000D01*
X105410000Y-107950000D02*
X105410000Y-113030000D01*
X97790000Y-113030000D02*
X97790000Y-107950000D01*
D14*
X121536000Y-104902000D02*
X124336000Y-104902000D01*
X121536000Y-86952000D02*
X121536000Y-107612000D01*
X124336000Y-86952000D02*
X121536000Y-86952000D01*
X124336000Y-107612000D02*
X124336000Y-86952000D01*
X121536000Y-107612000D02*
X124336000Y-107612000D01*
X89302335Y-91631392D02*
G75*
G03X86070000Y-91474484I-1672335J-1078608D01*
G01*
X89302335Y-93788608D02*
G75*
G02X86070000Y-93945516I-1672335J1078608D01*
G01*
X88671130Y-91630163D02*
G75*
G03X86589039Y-91630000I-1041130J-1079837D01*
G01*
X88671130Y-93789837D02*
G75*
G02X86589039Y-93790000I-1041130J1079837D01*
G01*
X86070000Y-91474000D02*
X86070000Y-91630000D01*
X86070000Y-93790000D02*
X86070000Y-93946000D01*
X97790000Y-79880000D02*
X97790000Y-82680000D01*
X108120000Y-79880000D02*
X95080000Y-79880000D01*
X108120000Y-82680000D02*
X108120000Y-79880000D01*
X95080000Y-82680000D02*
X108120000Y-82680000D01*
X95080000Y-79880000D02*
X95080000Y-82680000D01*
X111794775Y-89355000D02*
X111794775Y-88855000D01*
X112044775Y-89105000D02*
X111544775Y-89105000D01*
X106639000Y-87914000D02*
X106639000Y-87346000D01*
X106679000Y-88148000D02*
X106679000Y-87112000D01*
X106719000Y-88307000D02*
X106719000Y-86953000D01*
X106759000Y-88435000D02*
X106759000Y-86825000D01*
X106799000Y-88545000D02*
X106799000Y-86715000D01*
X106839000Y-88641000D02*
X106839000Y-86619000D01*
X106879000Y-88728000D02*
X106879000Y-86532000D01*
X106919000Y-88808000D02*
X106919000Y-86452000D01*
X106959000Y-86590000D02*
X106959000Y-86379000D01*
X106959000Y-88881000D02*
X106959000Y-88670000D01*
X106999000Y-86590000D02*
X106999000Y-86311000D01*
X106999000Y-88949000D02*
X106999000Y-88670000D01*
X107039000Y-86590000D02*
X107039000Y-86247000D01*
X107039000Y-89013000D02*
X107039000Y-88670000D01*
X107079000Y-86590000D02*
X107079000Y-86187000D01*
X107079000Y-89073000D02*
X107079000Y-88670000D01*
X107119000Y-86590000D02*
X107119000Y-86130000D01*
X107119000Y-89130000D02*
X107119000Y-88670000D01*
X107159000Y-86590000D02*
X107159000Y-86076000D01*
X107159000Y-89184000D02*
X107159000Y-88670000D01*
X107199000Y-86590000D02*
X107199000Y-86025000D01*
X107199000Y-89235000D02*
X107199000Y-88670000D01*
X107239000Y-86590000D02*
X107239000Y-85977000D01*
X107239000Y-89283000D02*
X107239000Y-88670000D01*
X107279000Y-86590000D02*
X107279000Y-85931000D01*
X107279000Y-89329000D02*
X107279000Y-88670000D01*
X107319000Y-86590000D02*
X107319000Y-85887000D01*
X107319000Y-89373000D02*
X107319000Y-88670000D01*
X107359000Y-86590000D02*
X107359000Y-85845000D01*
X107359000Y-89415000D02*
X107359000Y-88670000D01*
X107399000Y-86590000D02*
X107399000Y-85804000D01*
X107399000Y-89456000D02*
X107399000Y-88670000D01*
X107439000Y-86590000D02*
X107439000Y-85766000D01*
X107439000Y-89494000D02*
X107439000Y-88670000D01*
X107479000Y-86590000D02*
X107479000Y-85729000D01*
X107479000Y-89531000D02*
X107479000Y-88670000D01*
X107519000Y-86590000D02*
X107519000Y-85693000D01*
X107519000Y-89567000D02*
X107519000Y-88670000D01*
X107559000Y-86590000D02*
X107559000Y-85659000D01*
X107559000Y-89601000D02*
X107559000Y-88670000D01*
X107599000Y-86590000D02*
X107599000Y-85626000D01*
X107599000Y-89634000D02*
X107599000Y-88670000D01*
X107639000Y-86590000D02*
X107639000Y-85595000D01*
X107639000Y-89665000D02*
X107639000Y-88670000D01*
X107679000Y-86590000D02*
X107679000Y-85565000D01*
X107679000Y-89695000D02*
X107679000Y-88670000D01*
X107719000Y-86590000D02*
X107719000Y-85535000D01*
X107719000Y-89725000D02*
X107719000Y-88670000D01*
X107759000Y-86590000D02*
X107759000Y-85508000D01*
X107759000Y-89752000D02*
X107759000Y-88670000D01*
X107799000Y-86590000D02*
X107799000Y-85481000D01*
X107799000Y-89779000D02*
X107799000Y-88670000D01*
X107839000Y-86590000D02*
X107839000Y-85455000D01*
X107839000Y-89805000D02*
X107839000Y-88670000D01*
X107879000Y-86590000D02*
X107879000Y-85430000D01*
X107879000Y-89830000D02*
X107879000Y-88670000D01*
X107919000Y-86590000D02*
X107919000Y-85406000D01*
X107919000Y-89854000D02*
X107919000Y-88670000D01*
X107959000Y-86590000D02*
X107959000Y-85383000D01*
X107959000Y-89877000D02*
X107959000Y-88670000D01*
X107999000Y-86590000D02*
X107999000Y-85362000D01*
X107999000Y-89898000D02*
X107999000Y-88670000D01*
X108039000Y-86590000D02*
X108039000Y-85340000D01*
X108039000Y-89920000D02*
X108039000Y-88670000D01*
X108079000Y-86590000D02*
X108079000Y-85320000D01*
X108079000Y-89940000D02*
X108079000Y-88670000D01*
X108119000Y-86590000D02*
X108119000Y-85301000D01*
X108119000Y-89959000D02*
X108119000Y-88670000D01*
X108159000Y-86590000D02*
X108159000Y-85282000D01*
X108159000Y-89978000D02*
X108159000Y-88670000D01*
X108199000Y-86590000D02*
X108199000Y-85265000D01*
X108199000Y-89995000D02*
X108199000Y-88670000D01*
X108239000Y-86590000D02*
X108239000Y-85248000D01*
X108239000Y-90012000D02*
X108239000Y-88670000D01*
X108279000Y-86590000D02*
X108279000Y-85232000D01*
X108279000Y-90028000D02*
X108279000Y-88670000D01*
X108319000Y-86590000D02*
X108319000Y-85216000D01*
X108319000Y-90044000D02*
X108319000Y-88670000D01*
X108359000Y-86590000D02*
X108359000Y-85202000D01*
X108359000Y-90058000D02*
X108359000Y-88670000D01*
X108399000Y-86590000D02*
X108399000Y-85188000D01*
X108399000Y-90072000D02*
X108399000Y-88670000D01*
X108439000Y-86590000D02*
X108439000Y-85175000D01*
X108439000Y-90085000D02*
X108439000Y-88670000D01*
X108479000Y-86590000D02*
X108479000Y-85162000D01*
X108479000Y-90098000D02*
X108479000Y-88670000D01*
X108519000Y-86590000D02*
X108519000Y-85150000D01*
X108519000Y-90110000D02*
X108519000Y-88670000D01*
X108560000Y-86590000D02*
X108560000Y-85139000D01*
X108560000Y-90121000D02*
X108560000Y-88670000D01*
X108600000Y-86590000D02*
X108600000Y-85129000D01*
X108600000Y-90131000D02*
X108600000Y-88670000D01*
X108640000Y-86590000D02*
X108640000Y-85119000D01*
X108640000Y-90141000D02*
X108640000Y-88670000D01*
X108680000Y-86590000D02*
X108680000Y-85110000D01*
X108680000Y-90150000D02*
X108680000Y-88670000D01*
X108720000Y-86590000D02*
X108720000Y-85102000D01*
X108720000Y-90158000D02*
X108720000Y-88670000D01*
X108760000Y-86590000D02*
X108760000Y-85094000D01*
X108760000Y-90166000D02*
X108760000Y-88670000D01*
X108800000Y-86590000D02*
X108800000Y-85087000D01*
X108800000Y-90173000D02*
X108800000Y-88670000D01*
X108840000Y-86590000D02*
X108840000Y-85080000D01*
X108840000Y-90180000D02*
X108840000Y-88670000D01*
X108880000Y-86590000D02*
X108880000Y-85074000D01*
X108880000Y-90186000D02*
X108880000Y-88670000D01*
X108920000Y-86590000D02*
X108920000Y-85069000D01*
X108920000Y-90191000D02*
X108920000Y-88670000D01*
X108960000Y-86590000D02*
X108960000Y-85065000D01*
X108960000Y-90195000D02*
X108960000Y-88670000D01*
X109000000Y-86590000D02*
X109000000Y-85061000D01*
X109000000Y-90199000D02*
X109000000Y-88670000D01*
X109040000Y-90203000D02*
X109040000Y-85057000D01*
X109080000Y-90206000D02*
X109080000Y-85054000D01*
X109120000Y-90208000D02*
X109120000Y-85052000D01*
X109160000Y-90209000D02*
X109160000Y-85051000D01*
X109200000Y-90210000D02*
X109200000Y-85050000D01*
X109240000Y-90210000D02*
X109240000Y-85050000D01*
X111860000Y-87630000D02*
G75*
G03X111860000Y-87630000I-2620000J0D01*
G01*
X111794775Y-95705000D02*
X111794775Y-95205000D01*
X112044775Y-95455000D02*
X111544775Y-95455000D01*
X106639000Y-94264000D02*
X106639000Y-93696000D01*
X106679000Y-94498000D02*
X106679000Y-93462000D01*
X106719000Y-94657000D02*
X106719000Y-93303000D01*
X106759000Y-94785000D02*
X106759000Y-93175000D01*
X106799000Y-94895000D02*
X106799000Y-93065000D01*
X106839000Y-94991000D02*
X106839000Y-92969000D01*
X106879000Y-95078000D02*
X106879000Y-92882000D01*
X106919000Y-95158000D02*
X106919000Y-92802000D01*
X106959000Y-92940000D02*
X106959000Y-92729000D01*
X106959000Y-95231000D02*
X106959000Y-95020000D01*
X106999000Y-92940000D02*
X106999000Y-92661000D01*
X106999000Y-95299000D02*
X106999000Y-95020000D01*
X107039000Y-92940000D02*
X107039000Y-92597000D01*
X107039000Y-95363000D02*
X107039000Y-95020000D01*
X107079000Y-92940000D02*
X107079000Y-92537000D01*
X107079000Y-95423000D02*
X107079000Y-95020000D01*
X107119000Y-92940000D02*
X107119000Y-92480000D01*
X107119000Y-95480000D02*
X107119000Y-95020000D01*
X107159000Y-92940000D02*
X107159000Y-92426000D01*
X107159000Y-95534000D02*
X107159000Y-95020000D01*
X107199000Y-92940000D02*
X107199000Y-92375000D01*
X107199000Y-95585000D02*
X107199000Y-95020000D01*
X107239000Y-92940000D02*
X107239000Y-92327000D01*
X107239000Y-95633000D02*
X107239000Y-95020000D01*
X107279000Y-92940000D02*
X107279000Y-92281000D01*
X107279000Y-95679000D02*
X107279000Y-95020000D01*
X107319000Y-92940000D02*
X107319000Y-92237000D01*
X107319000Y-95723000D02*
X107319000Y-95020000D01*
X107359000Y-92940000D02*
X107359000Y-92195000D01*
X107359000Y-95765000D02*
X107359000Y-95020000D01*
X107399000Y-92940000D02*
X107399000Y-92154000D01*
X107399000Y-95806000D02*
X107399000Y-95020000D01*
X107439000Y-92940000D02*
X107439000Y-92116000D01*
X107439000Y-95844000D02*
X107439000Y-95020000D01*
X107479000Y-92940000D02*
X107479000Y-92079000D01*
X107479000Y-95881000D02*
X107479000Y-95020000D01*
X107519000Y-92940000D02*
X107519000Y-92043000D01*
X107519000Y-95917000D02*
X107519000Y-95020000D01*
X107559000Y-92940000D02*
X107559000Y-92009000D01*
X107559000Y-95951000D02*
X107559000Y-95020000D01*
X107599000Y-92940000D02*
X107599000Y-91976000D01*
X107599000Y-95984000D02*
X107599000Y-95020000D01*
X107639000Y-92940000D02*
X107639000Y-91945000D01*
X107639000Y-96015000D02*
X107639000Y-95020000D01*
X107679000Y-92940000D02*
X107679000Y-91915000D01*
X107679000Y-96045000D02*
X107679000Y-95020000D01*
X107719000Y-92940000D02*
X107719000Y-91885000D01*
X107719000Y-96075000D02*
X107719000Y-95020000D01*
X107759000Y-92940000D02*
X107759000Y-91858000D01*
X107759000Y-96102000D02*
X107759000Y-95020000D01*
X107799000Y-92940000D02*
X107799000Y-91831000D01*
X107799000Y-96129000D02*
X107799000Y-95020000D01*
X107839000Y-92940000D02*
X107839000Y-91805000D01*
X107839000Y-96155000D02*
X107839000Y-95020000D01*
X107879000Y-92940000D02*
X107879000Y-91780000D01*
X107879000Y-96180000D02*
X107879000Y-95020000D01*
X107919000Y-92940000D02*
X107919000Y-91756000D01*
X107919000Y-96204000D02*
X107919000Y-95020000D01*
X107959000Y-92940000D02*
X107959000Y-91733000D01*
X107959000Y-96227000D02*
X107959000Y-95020000D01*
X107999000Y-92940000D02*
X107999000Y-91712000D01*
X107999000Y-96248000D02*
X107999000Y-95020000D01*
X108039000Y-92940000D02*
X108039000Y-91690000D01*
X108039000Y-96270000D02*
X108039000Y-95020000D01*
X108079000Y-92940000D02*
X108079000Y-91670000D01*
X108079000Y-96290000D02*
X108079000Y-95020000D01*
X108119000Y-92940000D02*
X108119000Y-91651000D01*
X108119000Y-96309000D02*
X108119000Y-95020000D01*
X108159000Y-92940000D02*
X108159000Y-91632000D01*
X108159000Y-96328000D02*
X108159000Y-95020000D01*
X108199000Y-92940000D02*
X108199000Y-91615000D01*
X108199000Y-96345000D02*
X108199000Y-95020000D01*
X108239000Y-92940000D02*
X108239000Y-91598000D01*
X108239000Y-96362000D02*
X108239000Y-95020000D01*
X108279000Y-92940000D02*
X108279000Y-91582000D01*
X108279000Y-96378000D02*
X108279000Y-95020000D01*
X108319000Y-92940000D02*
X108319000Y-91566000D01*
X108319000Y-96394000D02*
X108319000Y-95020000D01*
X108359000Y-92940000D02*
X108359000Y-91552000D01*
X108359000Y-96408000D02*
X108359000Y-95020000D01*
X108399000Y-92940000D02*
X108399000Y-91538000D01*
X108399000Y-96422000D02*
X108399000Y-95020000D01*
X108439000Y-92940000D02*
X108439000Y-91525000D01*
X108439000Y-96435000D02*
X108439000Y-95020000D01*
X108479000Y-92940000D02*
X108479000Y-91512000D01*
X108479000Y-96448000D02*
X108479000Y-95020000D01*
X108519000Y-92940000D02*
X108519000Y-91500000D01*
X108519000Y-96460000D02*
X108519000Y-95020000D01*
X108560000Y-92940000D02*
X108560000Y-91489000D01*
X108560000Y-96471000D02*
X108560000Y-95020000D01*
X108600000Y-92940000D02*
X108600000Y-91479000D01*
X108600000Y-96481000D02*
X108600000Y-95020000D01*
X108640000Y-92940000D02*
X108640000Y-91469000D01*
X108640000Y-96491000D02*
X108640000Y-95020000D01*
X108680000Y-92940000D02*
X108680000Y-91460000D01*
X108680000Y-96500000D02*
X108680000Y-95020000D01*
X108720000Y-92940000D02*
X108720000Y-91452000D01*
X108720000Y-96508000D02*
X108720000Y-95020000D01*
X108760000Y-92940000D02*
X108760000Y-91444000D01*
X108760000Y-96516000D02*
X108760000Y-95020000D01*
X108800000Y-92940000D02*
X108800000Y-91437000D01*
X108800000Y-96523000D02*
X108800000Y-95020000D01*
X108840000Y-92940000D02*
X108840000Y-91430000D01*
X108840000Y-96530000D02*
X108840000Y-95020000D01*
X108880000Y-92940000D02*
X108880000Y-91424000D01*
X108880000Y-96536000D02*
X108880000Y-95020000D01*
X108920000Y-92940000D02*
X108920000Y-91419000D01*
X108920000Y-96541000D02*
X108920000Y-95020000D01*
X108960000Y-92940000D02*
X108960000Y-91415000D01*
X108960000Y-96545000D02*
X108960000Y-95020000D01*
X109000000Y-92940000D02*
X109000000Y-91411000D01*
X109000000Y-96549000D02*
X109000000Y-95020000D01*
X109040000Y-96553000D02*
X109040000Y-91407000D01*
X109080000Y-96556000D02*
X109080000Y-91404000D01*
X109120000Y-96558000D02*
X109120000Y-91402000D01*
X109160000Y-96559000D02*
X109160000Y-91401000D01*
X109200000Y-96560000D02*
X109200000Y-91400000D01*
X109240000Y-96560000D02*
X109240000Y-91400000D01*
X111860000Y-93980000D02*
G75*
G03X111860000Y-93980000I-2620000J0D01*
G01*
X101031522Y-92141522D02*
G75*
G03X102870000Y-96580000I1838478J-1838478D01*
G01*
X104708478Y-92141522D02*
G75*
G02X102870000Y-96580000I-1838478J-1838478D01*
G01*
X104670000Y-92130000D02*
X101070000Y-92130000D01*
X101031522Y-84521522D02*
G75*
G03X102870000Y-88960000I1838478J-1838478D01*
G01*
X104708478Y-84521522D02*
G75*
G02X102870000Y-88960000I-1838478J-1838478D01*
G01*
X104670000Y-84510000D02*
X101070000Y-84510000D01*
X94681522Y-84521522D02*
G75*
G03X96520000Y-88960000I1838478J-1838478D01*
G01*
X98358478Y-84521522D02*
G75*
G02X96520000Y-88960000I-1838478J-1838478D01*
G01*
X98320000Y-84510000D02*
X94720000Y-84510000D01*
X102936522Y-74234522D02*
G75*
G03X104775000Y-78673000I1838478J-1838478D01*
G01*
X106613478Y-74234522D02*
G75*
G02X104775000Y-78673000I-1838478J-1838478D01*
G01*
X106575000Y-74223000D02*
X102975000Y-74223000D01*
X95951522Y-74234522D02*
G75*
G03X97790000Y-78673000I1838478J-1838478D01*
G01*
X99628478Y-74234522D02*
G75*
G02X97790000Y-78673000I-1838478J-1838478D01*
G01*
X99590000Y-74223000D02*
X95990000Y-74223000D01*
X120750000Y-99600000D02*
X120420000Y-99600000D01*
X120750000Y-106140000D02*
X120750000Y-99600000D01*
X120420000Y-106140000D02*
X120750000Y-106140000D01*
X118010000Y-99600000D02*
X118340000Y-99600000D01*
X118010000Y-106140000D02*
X118010000Y-99600000D01*
X118340000Y-106140000D02*
X118010000Y-106140000D01*
X91980000Y-90400000D02*
X91980000Y-90070000D01*
X91980000Y-90070000D02*
X98520000Y-90070000D01*
X98520000Y-90070000D02*
X98520000Y-90400000D01*
X91980000Y-92480000D02*
X91980000Y-92810000D01*
X91980000Y-92810000D02*
X98520000Y-92810000D01*
X98520000Y-92810000D02*
X98520000Y-92480000D01*
X114515000Y-105450000D02*
X114200000Y-105450000D01*
X116940000Y-105450000D02*
X116625000Y-105450000D01*
X114515000Y-100210000D02*
X114200000Y-100210000D01*
X116940000Y-100210000D02*
X116625000Y-100210000D01*
X114200000Y-100210000D02*
X114200000Y-105450000D01*
X116940000Y-100210000D02*
X116940000Y-105450000D01*
X91400000Y-95147500D02*
X91400000Y-94832500D01*
X91400000Y-97572500D02*
X91400000Y-97257500D01*
X96640000Y-95147500D02*
X96640000Y-94832500D01*
X96640000Y-97572500D02*
X96640000Y-97257500D01*
X96640000Y-94832500D02*
X91400000Y-94832500D01*
X96640000Y-97572500D02*
X91400000Y-97572500D01*
X113090000Y-105520000D02*
X113090000Y-103870000D01*
X77410000Y-105520000D02*
X113090000Y-105520000D01*
X77410000Y-100220000D02*
X77410000Y-105520000D01*
X113090000Y-100220000D02*
X77410000Y-100220000D01*
X113090000Y-101870000D02*
X113090000Y-100220000D01*
X113090000Y-103870000D02*
G75*
G02X113090000Y-101870000I0J1000000D01*
G01*
D12*
X110850000Y-72228000D02*
X110850000Y-69942000D01*
X110850000Y-69942000D02*
X123550000Y-69942000D01*
X123550000Y-69942000D02*
X123550000Y-72228000D01*
X123550000Y-77562000D02*
X123550000Y-76292000D01*
X110850000Y-77562000D02*
X110850000Y-76292000D01*
X110850000Y-83658000D02*
X110850000Y-81626000D01*
X123550000Y-83658000D02*
X123550000Y-81626000D01*
X123550000Y-83658000D02*
X110850000Y-83658000D01*
D14*
X92123333Y-113340000D02*
X92123333Y-109600000D01*
X92123333Y-109600000D02*
X78676667Y-109600000D01*
X78676667Y-109600000D02*
X78676667Y-113340000D01*
X92363333Y-111600000D02*
X92363333Y-109360000D01*
X92363333Y-109360000D02*
X88170000Y-109360000D01*
X124123333Y-113340000D02*
X124123333Y-109600000D01*
X124123333Y-109600000D02*
X110676667Y-109600000D01*
X110676667Y-109600000D02*
X110676667Y-113340000D01*
X124363333Y-111600000D02*
X124363333Y-109360000D01*
X124363333Y-109360000D02*
X120170000Y-109360000D01*
D12*
X79250000Y-72228000D02*
X79250000Y-69942000D01*
X79250000Y-69942000D02*
X91950000Y-69942000D01*
X91950000Y-69942000D02*
X91950000Y-72228000D01*
X91950000Y-77562000D02*
X91950000Y-76292000D01*
X79250000Y-77562000D02*
X79250000Y-76292000D01*
X79250000Y-83658000D02*
X79250000Y-81626000D01*
X91950000Y-83658000D02*
X91950000Y-81626000D01*
X91950000Y-83658000D02*
X79250000Y-83658000D01*
D14*
X84200000Y-94200000D02*
X84200000Y-89700000D01*
X80200000Y-95450000D02*
X81700000Y-95450000D01*
X77700000Y-89700000D02*
X77700000Y-94200000D01*
X81700000Y-88450000D02*
X80200000Y-88450000D01*
D13*
X106061333Y-111203619D02*
X106061333Y-111929333D01*
X106012952Y-112074476D01*
X105916190Y-112171238D01*
X105771047Y-112219619D01*
X105674285Y-112219619D01*
X106448380Y-111203619D02*
X107077333Y-111203619D01*
X106738666Y-111590666D01*
X106883809Y-111590666D01*
X106980571Y-111639047D01*
X107028952Y-111687428D01*
X107077333Y-111784190D01*
X107077333Y-112026095D01*
X107028952Y-112122857D01*
X106980571Y-112171238D01*
X106883809Y-112219619D01*
X106593523Y-112219619D01*
X106496761Y-112171238D01*
X106448380Y-112122857D01*
D12*
X122245523Y-86304380D02*
X121912190Y-85828190D01*
X121674095Y-86304380D02*
X121674095Y-85304380D01*
X122055047Y-85304380D01*
X122150285Y-85352000D01*
X122197904Y-85399619D01*
X122245523Y-85494857D01*
X122245523Y-85637714D01*
X122197904Y-85732952D01*
X122150285Y-85780571D01*
X122055047Y-85828190D01*
X121674095Y-85828190D01*
X122674095Y-86304380D02*
X122674095Y-85304380D01*
X123245523Y-86304380D01*
X123245523Y-85304380D01*
X123674095Y-85399619D02*
X123721714Y-85352000D01*
X123816952Y-85304380D01*
X124055047Y-85304380D01*
X124150285Y-85352000D01*
X124197904Y-85399619D01*
X124245523Y-85494857D01*
X124245523Y-85590095D01*
X124197904Y-85732952D01*
X123626476Y-86304380D01*
X124245523Y-86304380D01*
X86891904Y-90622380D02*
X86891904Y-89622380D01*
X87130000Y-89622380D01*
X87272857Y-89670000D01*
X87368095Y-89765238D01*
X87415714Y-89860476D01*
X87463333Y-90050952D01*
X87463333Y-90193809D01*
X87415714Y-90384285D01*
X87368095Y-90479523D01*
X87272857Y-90574761D01*
X87130000Y-90622380D01*
X86891904Y-90622380D01*
X88415714Y-90622380D02*
X87844285Y-90622380D01*
X88130000Y-90622380D02*
X88130000Y-89622380D01*
X88034761Y-89765238D01*
X87939523Y-89860476D01*
X87844285Y-89908095D01*
X100909523Y-79446380D02*
X100576190Y-78970190D01*
X100338095Y-79446380D02*
X100338095Y-78446380D01*
X100719047Y-78446380D01*
X100814285Y-78494000D01*
X100861904Y-78541619D01*
X100909523Y-78636857D01*
X100909523Y-78779714D01*
X100861904Y-78874952D01*
X100814285Y-78922571D01*
X100719047Y-78970190D01*
X100338095Y-78970190D01*
X101338095Y-79446380D02*
X101338095Y-78446380D01*
X101909523Y-79446380D01*
X101909523Y-78446380D01*
X102909523Y-79446380D02*
X102338095Y-79446380D01*
X102623809Y-79446380D02*
X102623809Y-78446380D01*
X102528571Y-78589238D01*
X102433333Y-78684476D01*
X102338095Y-78732095D01*
X109053333Y-84685142D02*
X109005714Y-84732761D01*
X108862857Y-84780380D01*
X108767619Y-84780380D01*
X108624761Y-84732761D01*
X108529523Y-84637523D01*
X108481904Y-84542285D01*
X108434285Y-84351809D01*
X108434285Y-84208952D01*
X108481904Y-84018476D01*
X108529523Y-83923238D01*
X108624761Y-83828000D01*
X108767619Y-83780380D01*
X108862857Y-83780380D01*
X109005714Y-83828000D01*
X109053333Y-83875619D01*
X109434285Y-83875619D02*
X109481904Y-83828000D01*
X109577142Y-83780380D01*
X109815238Y-83780380D01*
X109910476Y-83828000D01*
X109958095Y-83875619D01*
X110005714Y-83970857D01*
X110005714Y-84066095D01*
X109958095Y-84208952D01*
X109386666Y-84780380D01*
X110005714Y-84780380D01*
X109053333Y-90908142D02*
X109005714Y-90955761D01*
X108862857Y-91003380D01*
X108767619Y-91003380D01*
X108624761Y-90955761D01*
X108529523Y-90860523D01*
X108481904Y-90765285D01*
X108434285Y-90574809D01*
X108434285Y-90431952D01*
X108481904Y-90241476D01*
X108529523Y-90146238D01*
X108624761Y-90051000D01*
X108767619Y-90003380D01*
X108862857Y-90003380D01*
X109005714Y-90051000D01*
X109053333Y-90098619D01*
X110005714Y-91003380D02*
X109434285Y-91003380D01*
X109720000Y-91003380D02*
X109720000Y-90003380D01*
X109624761Y-90146238D01*
X109529523Y-90241476D01*
X109434285Y-90289095D01*
X102108095Y-90892380D02*
X102108095Y-91701904D01*
X102155714Y-91797142D01*
X102203333Y-91844761D01*
X102298571Y-91892380D01*
X102489047Y-91892380D01*
X102584285Y-91844761D01*
X102631904Y-91797142D01*
X102679523Y-91701904D01*
X102679523Y-90892380D01*
X103679523Y-91892380D02*
X103108095Y-91892380D01*
X103393809Y-91892380D02*
X103393809Y-90892380D01*
X103298571Y-91035238D01*
X103203333Y-91130476D01*
X103108095Y-91178095D01*
X102774761Y-84367619D02*
X102679523Y-84320000D01*
X102584285Y-84224761D01*
X102441428Y-84081904D01*
X102346190Y-84034285D01*
X102250952Y-84034285D01*
X102298571Y-84272380D02*
X102203333Y-84224761D01*
X102108095Y-84129523D01*
X102060476Y-83939047D01*
X102060476Y-83605714D01*
X102108095Y-83415238D01*
X102203333Y-83320000D01*
X102298571Y-83272380D01*
X102489047Y-83272380D01*
X102584285Y-83320000D01*
X102679523Y-83415238D01*
X102727142Y-83605714D01*
X102727142Y-83939047D01*
X102679523Y-84129523D01*
X102584285Y-84224761D01*
X102489047Y-84272380D01*
X102298571Y-84272380D01*
X103584285Y-83605714D02*
X103584285Y-84272380D01*
X103346190Y-83224761D02*
X103108095Y-83939047D01*
X103727142Y-83939047D01*
X96424761Y-84367619D02*
X96329523Y-84320000D01*
X96234285Y-84224761D01*
X96091428Y-84081904D01*
X95996190Y-84034285D01*
X95900952Y-84034285D01*
X95948571Y-84272380D02*
X95853333Y-84224761D01*
X95758095Y-84129523D01*
X95710476Y-83939047D01*
X95710476Y-83605714D01*
X95758095Y-83415238D01*
X95853333Y-83320000D01*
X95948571Y-83272380D01*
X96139047Y-83272380D01*
X96234285Y-83320000D01*
X96329523Y-83415238D01*
X96377142Y-83605714D01*
X96377142Y-83939047D01*
X96329523Y-84129523D01*
X96234285Y-84224761D01*
X96139047Y-84272380D01*
X95948571Y-84272380D01*
X96710476Y-83272380D02*
X97329523Y-83272380D01*
X96996190Y-83653333D01*
X97139047Y-83653333D01*
X97234285Y-83700952D01*
X97281904Y-83748571D01*
X97329523Y-83843809D01*
X97329523Y-84081904D01*
X97281904Y-84177142D01*
X97234285Y-84224761D01*
X97139047Y-84272380D01*
X96853333Y-84272380D01*
X96758095Y-84224761D01*
X96710476Y-84177142D01*
X104679761Y-73953619D02*
X104584523Y-73906000D01*
X104489285Y-73810761D01*
X104346428Y-73667904D01*
X104251190Y-73620285D01*
X104155952Y-73620285D01*
X104203571Y-73858380D02*
X104108333Y-73810761D01*
X104013095Y-73715523D01*
X103965476Y-73525047D01*
X103965476Y-73191714D01*
X104013095Y-73001238D01*
X104108333Y-72906000D01*
X104203571Y-72858380D01*
X104394047Y-72858380D01*
X104489285Y-72906000D01*
X104584523Y-73001238D01*
X104632142Y-73191714D01*
X104632142Y-73525047D01*
X104584523Y-73715523D01*
X104489285Y-73810761D01*
X104394047Y-73858380D01*
X104203571Y-73858380D01*
X105013095Y-72953619D02*
X105060714Y-72906000D01*
X105155952Y-72858380D01*
X105394047Y-72858380D01*
X105489285Y-72906000D01*
X105536904Y-72953619D01*
X105584523Y-73048857D01*
X105584523Y-73144095D01*
X105536904Y-73286952D01*
X104965476Y-73858380D01*
X105584523Y-73858380D01*
X97694761Y-73953619D02*
X97599523Y-73906000D01*
X97504285Y-73810761D01*
X97361428Y-73667904D01*
X97266190Y-73620285D01*
X97170952Y-73620285D01*
X97218571Y-73858380D02*
X97123333Y-73810761D01*
X97028095Y-73715523D01*
X96980476Y-73525047D01*
X96980476Y-73191714D01*
X97028095Y-73001238D01*
X97123333Y-72906000D01*
X97218571Y-72858380D01*
X97409047Y-72858380D01*
X97504285Y-72906000D01*
X97599523Y-73001238D01*
X97647142Y-73191714D01*
X97647142Y-73525047D01*
X97599523Y-73715523D01*
X97504285Y-73810761D01*
X97409047Y-73858380D01*
X97218571Y-73858380D01*
X98599523Y-73858380D02*
X98028095Y-73858380D01*
X98313809Y-73858380D02*
X98313809Y-72858380D01*
X98218571Y-73001238D01*
X98123333Y-73096476D01*
X98028095Y-73144095D01*
X118610142Y-97861380D02*
X118276809Y-97385190D01*
X118038714Y-97861380D02*
X118038714Y-96861380D01*
X118419666Y-96861380D01*
X118514904Y-96909000D01*
X118562523Y-96956619D01*
X118610142Y-97051857D01*
X118610142Y-97194714D01*
X118562523Y-97289952D01*
X118514904Y-97337571D01*
X118419666Y-97385190D01*
X118038714Y-97385190D01*
X119562523Y-97861380D02*
X118991095Y-97861380D01*
X119276809Y-97861380D02*
X119276809Y-96861380D01*
X119181571Y-97004238D01*
X119086333Y-97099476D01*
X118991095Y-97147095D01*
X120181571Y-96861380D02*
X120276809Y-96861380D01*
X120372047Y-96909000D01*
X120419666Y-96956619D01*
X120467285Y-97051857D01*
X120514904Y-97242333D01*
X120514904Y-97480428D01*
X120467285Y-97670904D01*
X120419666Y-97766142D01*
X120372047Y-97813761D01*
X120276809Y-97861380D01*
X120181571Y-97861380D01*
X120086333Y-97813761D01*
X120038714Y-97766142D01*
X119991095Y-97670904D01*
X119943476Y-97480428D01*
X119943476Y-97242333D01*
X119991095Y-97051857D01*
X120038714Y-96956619D01*
X120086333Y-96909000D01*
X120181571Y-96861380D01*
X92543333Y-89352380D02*
X92210000Y-88876190D01*
X91971904Y-89352380D02*
X91971904Y-88352380D01*
X92352857Y-88352380D01*
X92448095Y-88400000D01*
X92495714Y-88447619D01*
X92543333Y-88542857D01*
X92543333Y-88685714D01*
X92495714Y-88780952D01*
X92448095Y-88828571D01*
X92352857Y-88876190D01*
X91971904Y-88876190D01*
X93019523Y-89352380D02*
X93210000Y-89352380D01*
X93305238Y-89304761D01*
X93352857Y-89257142D01*
X93448095Y-89114285D01*
X93495714Y-88923809D01*
X93495714Y-88542857D01*
X93448095Y-88447619D01*
X93400476Y-88400000D01*
X93305238Y-88352380D01*
X93114761Y-88352380D01*
X93019523Y-88400000D01*
X92971904Y-88447619D01*
X92924285Y-88542857D01*
X92924285Y-88780952D01*
X92971904Y-88876190D01*
X93019523Y-88923809D01*
X93114761Y-88971428D01*
X93305238Y-88971428D01*
X93400476Y-88923809D01*
X93448095Y-88876190D01*
X93495714Y-88780952D01*
X115403333Y-99036142D02*
X115355714Y-99083761D01*
X115212857Y-99131380D01*
X115117619Y-99131380D01*
X114974761Y-99083761D01*
X114879523Y-98988523D01*
X114831904Y-98893285D01*
X114784285Y-98702809D01*
X114784285Y-98559952D01*
X114831904Y-98369476D01*
X114879523Y-98274238D01*
X114974761Y-98179000D01*
X115117619Y-98131380D01*
X115212857Y-98131380D01*
X115355714Y-98179000D01*
X115403333Y-98226619D01*
X116308095Y-98131380D02*
X115831904Y-98131380D01*
X115784285Y-98607571D01*
X115831904Y-98559952D01*
X115927142Y-98512333D01*
X116165238Y-98512333D01*
X116260476Y-98559952D01*
X116308095Y-98607571D01*
X116355714Y-98702809D01*
X116355714Y-98940904D01*
X116308095Y-99036142D01*
X116260476Y-99083761D01*
X116165238Y-99131380D01*
X115927142Y-99131380D01*
X115831904Y-99083761D01*
X115784285Y-99036142D01*
X93813333Y-94019642D02*
X93765714Y-94067261D01*
X93622857Y-94114880D01*
X93527619Y-94114880D01*
X93384761Y-94067261D01*
X93289523Y-93972023D01*
X93241904Y-93876785D01*
X93194285Y-93686309D01*
X93194285Y-93543452D01*
X93241904Y-93352976D01*
X93289523Y-93257738D01*
X93384761Y-93162500D01*
X93527619Y-93114880D01*
X93622857Y-93114880D01*
X93765714Y-93162500D01*
X93813333Y-93210119D01*
X94146666Y-93114880D02*
X94765714Y-93114880D01*
X94432380Y-93495833D01*
X94575238Y-93495833D01*
X94670476Y-93543452D01*
X94718095Y-93591071D01*
X94765714Y-93686309D01*
X94765714Y-93924404D01*
X94718095Y-94019642D01*
X94670476Y-94067261D01*
X94575238Y-94114880D01*
X94289523Y-94114880D01*
X94194285Y-94067261D01*
X94146666Y-94019642D01*
X110998095Y-96480380D02*
X110998095Y-97289904D01*
X111045714Y-97385142D01*
X111093333Y-97432761D01*
X111188571Y-97480380D01*
X111379047Y-97480380D01*
X111474285Y-97432761D01*
X111521904Y-97385142D01*
X111569523Y-97289904D01*
X111569523Y-96480380D01*
X111998095Y-96575619D02*
X112045714Y-96528000D01*
X112140952Y-96480380D01*
X112379047Y-96480380D01*
X112474285Y-96528000D01*
X112521904Y-96575619D01*
X112569523Y-96670857D01*
X112569523Y-96766095D01*
X112521904Y-96908952D01*
X111950476Y-97480380D01*
X112569523Y-97480380D01*
X109116904Y-83002380D02*
X109116904Y-82002380D01*
X109497857Y-82002380D01*
X109593095Y-82050000D01*
X109640714Y-82097619D01*
X109688333Y-82192857D01*
X109688333Y-82335714D01*
X109640714Y-82430952D01*
X109593095Y-82478571D01*
X109497857Y-82526190D01*
X109116904Y-82526190D01*
X110069285Y-82097619D02*
X110116904Y-82050000D01*
X110212142Y-82002380D01*
X110450238Y-82002380D01*
X110545476Y-82050000D01*
X110593095Y-82097619D01*
X110640714Y-82192857D01*
X110640714Y-82288095D01*
X110593095Y-82430952D01*
X110021666Y-83002380D01*
X110640714Y-83002380D01*
X114609523Y-74657142D02*
X114561904Y-74704761D01*
X114419047Y-74752380D01*
X114323809Y-74752380D01*
X114180952Y-74704761D01*
X114085714Y-74609523D01*
X114038095Y-74514285D01*
X113990476Y-74323809D01*
X113990476Y-74180952D01*
X114038095Y-73990476D01*
X114085714Y-73895238D01*
X114180952Y-73800000D01*
X114323809Y-73752380D01*
X114419047Y-73752380D01*
X114561904Y-73800000D01*
X114609523Y-73847619D01*
X115228571Y-73752380D02*
X115419047Y-73752380D01*
X115514285Y-73800000D01*
X115609523Y-73895238D01*
X115657142Y-74085714D01*
X115657142Y-74419047D01*
X115609523Y-74609523D01*
X115514285Y-74704761D01*
X115419047Y-74752380D01*
X115228571Y-74752380D01*
X115133333Y-74704761D01*
X115038095Y-74609523D01*
X114990476Y-74419047D01*
X114990476Y-74085714D01*
X115038095Y-73895238D01*
X115133333Y-73800000D01*
X115228571Y-73752380D01*
X116085714Y-74752380D02*
X116085714Y-73752380D01*
X116657142Y-74752380D01*
X116657142Y-73752380D01*
X117133333Y-74752380D02*
X117133333Y-73752380D01*
X117704761Y-74752380D01*
X117704761Y-73752380D01*
X117942857Y-74847619D02*
X118704761Y-74847619D01*
X118847619Y-73752380D02*
X119085714Y-74752380D01*
X119276190Y-74038095D01*
X119466666Y-74752380D01*
X119704761Y-73752380D01*
X120085714Y-74752380D02*
X120085714Y-73752380D01*
X120561904Y-74752380D02*
X120561904Y-73752380D01*
X93166666Y-111052380D02*
X93166666Y-111766666D01*
X93119047Y-111909523D01*
X93023809Y-112004761D01*
X92880952Y-112052380D01*
X92785714Y-112052380D01*
X93595238Y-111147619D02*
X93642857Y-111100000D01*
X93738095Y-111052380D01*
X93976190Y-111052380D01*
X94071428Y-111100000D01*
X94119047Y-111147619D01*
X94166666Y-111242857D01*
X94166666Y-111338095D01*
X94119047Y-111480952D01*
X93547619Y-112052380D01*
X94166666Y-112052380D01*
X109066666Y-111152380D02*
X109066666Y-111866666D01*
X109019047Y-112009523D01*
X108923809Y-112104761D01*
X108780952Y-112152380D01*
X108685714Y-112152380D01*
X110066666Y-112152380D02*
X109495238Y-112152380D01*
X109780952Y-112152380D02*
X109780952Y-111152380D01*
X109685714Y-111295238D01*
X109590476Y-111390476D01*
X109495238Y-111438095D01*
X92461904Y-83352380D02*
X92461904Y-82352380D01*
X92842857Y-82352380D01*
X92938095Y-82400000D01*
X92985714Y-82447619D01*
X93033333Y-82542857D01*
X93033333Y-82685714D01*
X92985714Y-82780952D01*
X92938095Y-82828571D01*
X92842857Y-82876190D01*
X92461904Y-82876190D01*
X93985714Y-83352380D02*
X93414285Y-83352380D01*
X93700000Y-83352380D02*
X93700000Y-82352380D01*
X93604761Y-82495238D01*
X93509523Y-82590476D01*
X93414285Y-82638095D01*
X82909523Y-74657142D02*
X82861904Y-74704761D01*
X82719047Y-74752380D01*
X82623809Y-74752380D01*
X82480952Y-74704761D01*
X82385714Y-74609523D01*
X82338095Y-74514285D01*
X82290476Y-74323809D01*
X82290476Y-74180952D01*
X82338095Y-73990476D01*
X82385714Y-73895238D01*
X82480952Y-73800000D01*
X82623809Y-73752380D01*
X82719047Y-73752380D01*
X82861904Y-73800000D01*
X82909523Y-73847619D01*
X83528571Y-73752380D02*
X83719047Y-73752380D01*
X83814285Y-73800000D01*
X83909523Y-73895238D01*
X83957142Y-74085714D01*
X83957142Y-74419047D01*
X83909523Y-74609523D01*
X83814285Y-74704761D01*
X83719047Y-74752380D01*
X83528571Y-74752380D01*
X83433333Y-74704761D01*
X83338095Y-74609523D01*
X83290476Y-74419047D01*
X83290476Y-74085714D01*
X83338095Y-73895238D01*
X83433333Y-73800000D01*
X83528571Y-73752380D01*
X84385714Y-74752380D02*
X84385714Y-73752380D01*
X84957142Y-74752380D01*
X84957142Y-73752380D01*
X85433333Y-74752380D02*
X85433333Y-73752380D01*
X86004761Y-74752380D01*
X86004761Y-73752380D01*
X86242857Y-74847619D02*
X87004761Y-74847619D01*
X87147619Y-73752380D02*
X87385714Y-74752380D01*
X87576190Y-74038095D01*
X87766666Y-74752380D01*
X88004761Y-73752380D01*
X88385714Y-74752380D02*
X88385714Y-73752380D01*
X88861904Y-74752380D02*
X88861904Y-73752380D01*
X81049761Y-93408333D02*
X81097380Y-93265476D01*
X81097380Y-93027380D01*
X81049761Y-92932142D01*
X81002142Y-92884523D01*
X80906904Y-92836904D01*
X80811666Y-92836904D01*
X80716428Y-92884523D01*
X80668809Y-92932142D01*
X80621190Y-93027380D01*
X80573571Y-93217857D01*
X80525952Y-93313095D01*
X80478333Y-93360714D01*
X80383095Y-93408333D01*
X80287857Y-93408333D01*
X80192619Y-93360714D01*
X80145000Y-93313095D01*
X80097380Y-93217857D01*
X80097380Y-92979761D01*
X80145000Y-92836904D01*
X80097380Y-92503571D02*
X81097380Y-92265476D01*
X80383095Y-92075000D01*
X81097380Y-91884523D01*
X80097380Y-91646428D01*
X81097380Y-90741666D02*
X81097380Y-91313095D01*
X81097380Y-91027380D02*
X80097380Y-91027380D01*
X80240238Y-91122619D01*
X80335476Y-91217857D01*
X80383095Y-91313095D01*
M02*
