M48
;DRILL file {KiCad 4.0.7-e2-6376~58~ubuntu17.04.1} date Sun Mar  4 22:48:58 2018
;FORMAT={3:3/ absolute / metric / suppress leading zeros}
FMAT,2
METRIC,TZ
T1C0.300
T2C0.400
T3C0.635
T4C1.016
T5C1.100
T6C1.905
%
G90
G05
M71
T1
X79300Y-84200
X79300Y-85000
X79300Y-85800
X79300Y-86600
X85600Y-89400
X85600Y-90200
X85600Y-91000
X101600Y-104100
X102400Y-104100
X103200Y-104100
X104000Y-104100
X104500Y-108200
X104500Y-109000
X104500Y-109800
T2
X81800Y-108000
X87200Y-93700
X88300Y-104600
X89500Y-107600
X91200Y-108600
X92500Y-98200
X92500Y-99000
X92600Y-94800
X93800Y-107700
X95300Y-109500
X96000Y-96700
X96400Y-99600
X96800Y-92200
X97800Y-99600
X98300Y-91500
X99000Y-89200
X99850Y-87250
X100000Y-104600
X100400Y-91500
X101600Y-95000
X102000Y-105900
X102400Y-78400
X102400Y-101800
X102900Y-98200
X103200Y-102600
X103800Y-98500
X104800Y-80800
X105800Y-98300
X105800Y-104800
X105900Y-93900
X107400Y-77300
X109300Y-110500
X109900Y-85300
X111000Y-108200
X111400Y-105400
X116015Y-105515
X116015Y-108600
X118000Y-84100
X118200Y-102800
X121200Y-105300
T3
X83695Y-80483
X83695Y-82388
X85600Y-80483
X85600Y-82388
X87505Y-80483
X87505Y-82388
X115295Y-80483
X115295Y-82388
X117200Y-80483
X117200Y-82388
X119105Y-80483
X119105Y-82388
T4
X97460Y-108330
X97460Y-110870
X100000Y-108330
X100000Y-110870
X102540Y-108330
X102540Y-110870
T5
X78700Y-88700
X78700Y-95200
X83200Y-88700
X83200Y-95200
T6
X79250Y-74260
X79250Y-79594
X91950Y-74260
X91950Y-79594
X110850Y-74260
X110850Y-79594
X123550Y-74260
X123550Y-79594
T0
M30
