M48
; DRILL file {KiCad 5.1.5+dfsg1-2build2} date to. 12. nov. 2020 kl. 23.34 +0100
; FORMAT={-:-/ absolute / inch / decimal}
; #@! TF.CreationDate,2020-11-12T23:34:39+01:00
; #@! TF.GenerationSoftware,Kicad,Pcbnew,5.1.5+dfsg1-2build2
FMAT,2
INCH
T1C0.0157
T2C0.0250
T3C0.0295
T4C0.0315
T5C0.0354
T6C0.0400
T7C0.0433
T8C0.0750
%
G90
G05
T1
X3.105Y-3.995
X3.5Y-3.3
X3.69Y-4.1025
X3.7275Y-3.6175
X3.7953Y-4.1204
X3.8471Y-3.515
X4.0Y-4.0
X4.031Y-4.078
X4.1256Y-3.9685
X4.245Y-4.355
X4.3421Y-4.2667
X4.4976Y-4.078
X4.5625Y-4.2446
X4.7Y-4.2689
T2
X4.5392Y-3.1686
X4.5392Y-3.2436
X4.6142Y-3.1686
X4.6142Y-3.2436
X4.6892Y-3.1686
X4.6892Y-3.2436
X3.2951Y-3.1686
X3.2951Y-3.2436
X3.3701Y-3.1686
X3.3701Y-3.2436
X3.4451Y-3.1686
X3.4451Y-3.2436
T3
X3.8Y-2.995
X3.85Y-3.045
X3.9Y-2.995
X4.075Y-2.995
X4.125Y-3.045
X4.175Y-2.995
X4.0Y-3.4
X4.05Y-3.45
X4.1Y-3.4
X3.75Y-3.4
X3.8Y-3.45
X3.85Y-3.4
X4.0Y-3.7
X4.05Y-3.7
X4.1Y-3.7
T4
X3.6031Y-3.7875
X3.8Y-3.7875
X4.55Y-3.95
X4.55Y-4.1469
X4.2516Y-3.45
X4.35Y-3.45
X3.6Y-3.6
X3.9Y-3.6
X3.8Y-3.2
X3.9Y-3.2
X4.0Y-3.2
X4.1Y-3.2
X4.2Y-3.2
X4.7Y-3.9
X4.7Y-4.2
X4.84Y-3.48
X4.84Y-3.58
X4.84Y-3.68
X4.84Y-3.78
X4.84Y-3.88
X4.84Y-3.98
X4.84Y-4.08
X4.84Y-4.18
X3.1Y-3.9
X3.1Y-4.2
X3.2Y-3.9
X3.2Y-4.2
X3.3Y-3.9
X3.3Y-4.2
X3.4Y-3.9
X3.4Y-4.2
X3.5Y-3.9
X3.5Y-4.2
X3.6Y-3.9
X3.6Y-4.2
X3.7Y-3.9
X3.7Y-4.2
X3.8Y-3.9
X3.8Y-4.2
X3.9Y-3.9
X3.9Y-4.2
X4.0Y-3.9
X4.0Y-4.2
X4.1Y-3.9
X4.1Y-4.2
X4.2Y-3.9
X4.2Y-4.2
X4.3Y-3.9
X4.3Y-4.2
X4.4Y-3.9
X4.4Y-4.2
X4.2516Y-3.7
X4.35Y-3.7
T5
X3.4Y-3.65
X3.5Y-3.65
T6
X3.9Y-4.3
X3.9Y-4.4
X4.0Y-4.3
X4.0Y-4.4
X4.1Y-4.3
X4.1Y-4.4
T7
X3.0984Y-3.4921
X3.0984Y-3.748
X3.2756Y-3.4921
X3.2756Y-3.748
T8
X4.3642Y-2.9236
X4.3642Y-3.1336
X4.8642Y-2.9236
X4.8642Y-3.1336
X3.1201Y-2.9236
X3.1201Y-3.1336
X3.6201Y-2.9236
X3.6201Y-3.1336
T0
M30
