G04 #@! TF.FileFunction,Copper,L1,Top,Signal*
%FSLAX46Y46*%
G04 Gerber Fmt 4.6, Leading zero omitted, Abs format (unit mm)*
G04 Created by KiCad (PCBNEW 4.0.7) date 06/24/18 00:10:50*
%MOMM*%
%LPD*%
G01*
G04 APERTURE LIST*
%ADD10C,0.100000*%
%ADD11R,1.846667X3.480000*%
%ADD12R,1.524000X1.524000*%
%ADD13C,1.524000*%
%ADD14C,2.000000*%
%ADD15R,0.550000X1.600000*%
%ADD16R,1.600000X0.550000*%
%ADD17R,2.000000X3.800000*%
%ADD18R,2.000000X1.500000*%
%ADD19R,1.300000X1.500000*%
%ADD20R,1.500000X1.250000*%
%ADD21R,1.500000X1.300000*%
%ADD22R,2.000000X1.700000*%
%ADD23R,1.500000X3.200000*%
%ADD24R,3.200000X1.500000*%
%ADD25R,1.900000X0.800000*%
%ADD26R,0.800000X1.900000*%
%ADD27R,1.270000X1.270000*%
%ADD28C,1.270000*%
%ADD29C,3.048000*%
%ADD30R,1.520000X6.050000*%
%ADD31C,0.600000*%
%ADD32C,0.250000*%
%ADD33C,0.600000*%
%ADD34C,0.254000*%
G04 APERTURE END LIST*
D10*
D11*
X90940000Y-111600000D03*
X88170000Y-111600000D03*
X85400000Y-111600000D03*
X82630000Y-111600000D03*
X79860000Y-111600000D03*
X122940000Y-111600000D03*
X120170000Y-111600000D03*
X117400000Y-111600000D03*
X114630000Y-111600000D03*
X111860000Y-111600000D03*
D12*
X97460000Y-110870000D03*
D13*
X97460000Y-108330000D03*
X100000000Y-110870000D03*
X100000000Y-108330000D03*
X102540000Y-110870000D03*
X102540000Y-108330000D03*
D14*
X83200000Y-95200000D03*
X78700000Y-95200000D03*
X83200000Y-88700000D03*
X78700000Y-88700000D03*
D15*
X98200000Y-93550000D03*
X97400000Y-93550000D03*
X96600000Y-93550000D03*
X95800000Y-93550000D03*
X95000000Y-93550000D03*
X94200000Y-93550000D03*
X93400000Y-93550000D03*
X92600000Y-93550000D03*
D16*
X91150000Y-95000000D03*
X91150000Y-95800000D03*
X91150000Y-96600000D03*
X91150000Y-97400000D03*
X91150000Y-98200000D03*
X91150000Y-99000000D03*
X91150000Y-99800000D03*
X91150000Y-100600000D03*
D15*
X92600000Y-102050000D03*
X93400000Y-102050000D03*
X94200000Y-102050000D03*
X95000000Y-102050000D03*
X95800000Y-102050000D03*
X96600000Y-102050000D03*
X97400000Y-102050000D03*
X98200000Y-102050000D03*
D16*
X99650000Y-100600000D03*
X99650000Y-99800000D03*
X99650000Y-99000000D03*
X99650000Y-98200000D03*
X99650000Y-97400000D03*
X99650000Y-96600000D03*
X99650000Y-95800000D03*
X99650000Y-95000000D03*
D17*
X123750000Y-95600000D03*
D18*
X117450000Y-95600000D03*
X117450000Y-97900000D03*
X117450000Y-93300000D03*
D19*
X111125000Y-103650000D03*
X111125000Y-106350000D03*
X108585000Y-103650000D03*
X108585000Y-106350000D03*
X82200000Y-103450000D03*
X82200000Y-106150000D03*
X79800000Y-103450000D03*
X79800000Y-106150000D03*
D20*
X96650000Y-91000000D03*
X94150000Y-91000000D03*
X95150000Y-104600000D03*
X97650000Y-104600000D03*
D21*
X86250000Y-86300000D03*
X83550000Y-86300000D03*
X119650000Y-86100000D03*
X116950000Y-86100000D03*
D19*
X98400000Y-77350000D03*
X98400000Y-74650000D03*
X98400000Y-81400000D03*
X98400000Y-84100000D03*
D22*
X114200000Y-90500000D03*
X110200000Y-90500000D03*
D21*
X104500000Y-90500000D03*
X107200000Y-90500000D03*
D20*
X106800000Y-111900000D03*
X109300000Y-111900000D03*
D21*
X103150000Y-105900000D03*
X105850000Y-105900000D03*
D23*
X114200000Y-97800000D03*
X114200000Y-93800000D03*
D24*
X122200000Y-90200000D03*
X118200000Y-90200000D03*
D25*
X92710000Y-87250000D03*
X92710000Y-85350000D03*
X89710000Y-86300000D03*
X111400000Y-85250000D03*
X111400000Y-87150000D03*
X114400000Y-86200000D03*
D26*
X104050000Y-74400000D03*
X102150000Y-74400000D03*
X103100000Y-77400000D03*
X102150000Y-83900000D03*
X104050000Y-83900000D03*
X103100000Y-80900000D03*
D27*
X119105000Y-82388000D03*
D28*
X119105000Y-80483000D03*
X117200000Y-82388000D03*
X117200000Y-80483000D03*
X115295000Y-82388000D03*
X115295000Y-80483000D03*
D29*
X123550000Y-79594000D03*
X110850000Y-74260000D03*
X123550000Y-74260000D03*
X110850000Y-79594000D03*
D30*
X119105000Y-75530000D03*
X115295000Y-75530000D03*
D27*
X87503000Y-82388000D03*
D28*
X87503000Y-80483000D03*
X85598000Y-82388000D03*
X85598000Y-80483000D03*
X83693000Y-82388000D03*
X83693000Y-80483000D03*
D29*
X91948000Y-79594000D03*
X79248000Y-74260000D03*
X91948000Y-74260000D03*
X79248000Y-79594000D03*
D30*
X87503000Y-75530000D03*
X83693000Y-75530000D03*
D31*
X121200000Y-105300000D03*
X101600000Y-95000000D03*
X92600000Y-94800000D03*
X102000000Y-105900000D03*
X118200000Y-102800000D03*
X106680000Y-110236000D03*
X116015000Y-105515000D03*
X116015000Y-108600000D03*
X96000000Y-96700000D03*
X96800000Y-92200000D03*
X109728000Y-109474000D03*
X113030000Y-105410000D03*
X105900000Y-93900000D03*
X88300000Y-104600000D03*
X95300000Y-109500000D03*
X91200000Y-108600000D03*
X100000000Y-104600000D03*
X87200000Y-93700000D03*
X99000000Y-89200000D03*
X93800000Y-107700000D03*
X89500000Y-107600000D03*
X81800000Y-108000000D03*
X114554000Y-84074000D03*
X116459000Y-84582000D03*
X106800000Y-76200000D03*
X96520000Y-74930000D03*
X99850000Y-87250000D03*
X96400000Y-99600000D03*
X109900000Y-85300000D03*
X97800000Y-99600000D03*
X101600000Y-77470000D03*
X102900000Y-98200000D03*
X103800000Y-98500000D03*
X104800000Y-80800000D03*
X103200000Y-102600000D03*
X92500000Y-99000000D03*
X92500000Y-98200000D03*
X102400000Y-101800000D03*
X105800000Y-98300000D03*
X105800000Y-104800000D03*
X100400000Y-91500000D03*
X98300000Y-91500000D03*
D32*
X100300000Y-112300000D02*
X101400000Y-112300000D01*
X100200000Y-112200000D02*
X100300000Y-112300000D01*
X99600000Y-112200000D02*
X100200000Y-112200000D01*
X122940000Y-111600000D02*
X122940000Y-109740000D01*
X122940000Y-109740000D02*
X119600000Y-106400000D01*
X119600000Y-106400000D02*
X119600000Y-106300000D01*
X119600000Y-106300000D02*
X113500000Y-100200000D01*
X113500000Y-100200000D02*
X111800000Y-100200000D01*
X111800000Y-100200000D02*
X107400000Y-95800000D01*
X107400000Y-95800000D02*
X99650000Y-95800000D01*
X99650000Y-96600000D02*
X107200000Y-96600000D01*
X107200000Y-96600000D02*
X111300000Y-100700000D01*
X111300000Y-100700000D02*
X113100000Y-100700000D01*
X113100000Y-100700000D02*
X120100000Y-107700000D01*
X120100000Y-107700000D02*
X120100000Y-108360000D01*
X120100000Y-108360000D02*
X120170000Y-108430000D01*
X120170000Y-108430000D02*
X120170000Y-111600000D01*
X117400000Y-111600000D02*
X117900000Y-111100000D01*
X117900000Y-111100000D02*
X117900000Y-106400000D01*
X117900000Y-106400000D02*
X112800000Y-101300000D01*
X112800000Y-101300000D02*
X110900000Y-101300000D01*
X110900000Y-101300000D02*
X109400000Y-99800000D01*
X109400000Y-99800000D02*
X99650000Y-99800000D01*
X99650000Y-100600000D02*
X109500000Y-100600000D01*
X109500000Y-100600000D02*
X110900000Y-102000000D01*
X110900000Y-102000000D02*
X112600000Y-102000000D01*
X112600000Y-102000000D02*
X114600000Y-104000000D01*
X114600000Y-104000000D02*
X114600000Y-111570000D01*
X114600000Y-111570000D02*
X114630000Y-111600000D01*
X108458000Y-110236000D02*
X108585000Y-110109000D01*
X108585000Y-110109000D02*
X108585000Y-106350000D01*
X111312666Y-110236000D02*
X108458000Y-110236000D01*
X111860000Y-111600000D02*
X111860000Y-110783334D01*
X111860000Y-110783334D02*
X111312666Y-110236000D01*
X111800000Y-111540000D02*
X111860000Y-111600000D01*
X121200000Y-105300000D02*
X119400000Y-105300000D01*
X119400000Y-105300000D02*
X113800000Y-99700000D01*
X113800000Y-99700000D02*
X112300000Y-99700000D01*
X112300000Y-99700000D02*
X107600000Y-95000000D01*
X107600000Y-95000000D02*
X101600000Y-95000000D01*
X92600000Y-94800000D02*
X92600000Y-93550000D01*
D33*
X102000000Y-105900000D02*
X103200000Y-105900000D01*
X118200000Y-102800000D02*
X114200000Y-98800000D01*
X114200000Y-98800000D02*
X114200000Y-97800000D01*
X93400000Y-102000000D02*
X93400000Y-103400000D01*
X93400000Y-103400000D02*
X94600000Y-104600000D01*
X94600000Y-104600000D02*
X95100000Y-104600000D01*
X95100000Y-104600000D02*
X97460000Y-106960000D01*
X97460000Y-106960000D02*
X97460000Y-108330000D01*
X93400000Y-102050000D02*
X93400000Y-97000000D01*
X93400000Y-97000000D02*
X94200000Y-96200000D01*
X95800000Y-93550000D02*
X95800000Y-94600000D01*
X95800000Y-94600000D02*
X94200000Y-96200000D01*
X95800000Y-93550000D02*
X95800000Y-91850000D01*
X95800000Y-91850000D02*
X96650000Y-91000000D01*
X114200000Y-97800000D02*
X117350000Y-97800000D01*
D32*
X117350000Y-97800000D02*
X117450000Y-97900000D01*
X117400000Y-97950000D02*
X117450000Y-97900000D01*
D33*
X94200000Y-96200000D02*
X94200000Y-93550000D01*
D32*
X93400000Y-102050000D02*
X93400000Y-102850000D01*
X109300000Y-111900000D02*
X109175000Y-111900000D01*
X109175000Y-111900000D02*
X107511000Y-110236000D01*
X107511000Y-110236000D02*
X106680000Y-110236000D01*
X94996000Y-99822000D02*
X94996000Y-97704000D01*
X94996000Y-97704000D02*
X96000000Y-96700000D01*
X95800000Y-100626000D02*
X94996000Y-99822000D01*
X95800000Y-102050000D02*
X95800000Y-100626000D01*
X116015000Y-108600000D02*
X116015000Y-105515000D01*
X116100000Y-108500000D02*
X116015000Y-108585000D01*
X116015000Y-108585000D02*
X116015000Y-108600000D01*
X116100000Y-105800000D02*
X116100000Y-108500000D01*
X96600000Y-96100000D02*
X96000000Y-96700000D01*
X96600000Y-93550000D02*
X96600000Y-96100000D01*
X96600000Y-92400000D02*
X96800000Y-92200000D01*
X96600000Y-93550000D02*
X96600000Y-92400000D01*
X95800000Y-102050000D02*
X95800000Y-103100000D01*
X95800000Y-103100000D02*
X96100000Y-103400000D01*
X96100000Y-103400000D02*
X96450000Y-103400000D01*
X96450000Y-103400000D02*
X97650000Y-104600000D01*
X94150000Y-91650000D02*
X95000000Y-92500000D01*
X95000000Y-92500000D02*
X95000000Y-93550000D01*
X94150000Y-91000000D02*
X94150000Y-91650000D01*
X111125000Y-106350000D02*
X111125000Y-108077000D01*
X111125000Y-108077000D02*
X109728000Y-109474000D01*
X112725000Y-106350000D02*
X112268000Y-106350000D01*
X112268000Y-106350000D02*
X111125000Y-106350000D01*
X111000000Y-106475000D02*
X111125000Y-106350000D01*
X113030000Y-106045000D02*
X112725000Y-106350000D01*
X113030000Y-105410000D02*
X113030000Y-106045000D01*
X105900000Y-93900000D02*
X100100000Y-93900000D01*
X100100000Y-93900000D02*
X99650000Y-94350000D01*
X99650000Y-94350000D02*
X99650000Y-95000000D01*
X90940000Y-111600000D02*
X93800000Y-111600000D01*
X94800000Y-112600000D02*
X98270000Y-112600000D01*
X93800000Y-111600000D02*
X94800000Y-112600000D01*
X98270000Y-112600000D02*
X100000000Y-110870000D01*
X92600000Y-102050000D02*
X92600000Y-109940000D01*
X92600000Y-109940000D02*
X90940000Y-111600000D01*
X86800000Y-104600000D02*
X86800000Y-110230000D01*
X86800000Y-101800000D02*
X86800000Y-104600000D01*
X86800000Y-104600000D02*
X88300000Y-104600000D01*
X91150000Y-99800000D02*
X88800000Y-99800000D01*
X88800000Y-99800000D02*
X86800000Y-101800000D01*
X86800000Y-110230000D02*
X88170000Y-111600000D01*
X95300000Y-109500000D02*
X95400000Y-109600000D01*
X95400000Y-109600000D02*
X98100000Y-109600000D01*
X99370000Y-108330000D02*
X98100000Y-109600000D01*
X100000000Y-108330000D02*
X99370000Y-108330000D01*
X91200000Y-108600000D02*
X88600000Y-108600000D01*
X88600000Y-108600000D02*
X88170000Y-109030000D01*
X88170000Y-109030000D02*
X88170000Y-111600000D01*
X100000000Y-108330000D02*
X100000000Y-104600000D01*
X85400000Y-102200000D02*
X85400000Y-104600000D01*
X91150000Y-97400000D02*
X89700000Y-97400000D01*
X89700000Y-97400000D02*
X85400000Y-101700000D01*
X85400000Y-101700000D02*
X85400000Y-102200000D01*
X85400000Y-104600000D02*
X85400000Y-111600000D01*
X91150000Y-96600000D02*
X89100000Y-96600000D01*
X89100000Y-96600000D02*
X84000000Y-101700000D01*
X84000000Y-101700000D02*
X84000000Y-107400000D01*
X84000000Y-107400000D02*
X82630000Y-108770000D01*
X82630000Y-108770000D02*
X82630000Y-111600000D01*
X87200000Y-93700000D02*
X78400000Y-102500000D01*
X78400000Y-102500000D02*
X78400000Y-106000000D01*
X78400000Y-106000000D02*
X78550000Y-106150000D01*
X78550000Y-106150000D02*
X79800000Y-106150000D01*
X99000000Y-89200000D02*
X99000000Y-91900000D01*
X99000000Y-91900000D02*
X98200000Y-92700000D01*
X98200000Y-92700000D02*
X98200000Y-93550000D01*
X79800000Y-106150000D02*
X79800000Y-111540000D01*
X79800000Y-111540000D02*
X79860000Y-111600000D01*
X93800000Y-109900000D02*
X93800000Y-107700000D01*
X94770000Y-110870000D02*
X93800000Y-109900000D01*
X97460000Y-110870000D02*
X94770000Y-110870000D01*
X89500000Y-107600000D02*
X89500000Y-101100000D01*
X89500000Y-101100000D02*
X90000000Y-100600000D01*
X90000000Y-100600000D02*
X91150000Y-100600000D01*
X82200000Y-106150000D02*
X82200000Y-107600000D01*
X82200000Y-107600000D02*
X81800000Y-108000000D01*
D33*
X98400000Y-77350000D02*
X98400000Y-77450000D01*
X98400000Y-77450000D02*
X100150001Y-79200001D01*
X100150001Y-79200001D02*
X105599999Y-79200001D01*
X105599999Y-79200001D02*
X106000000Y-78800000D01*
X107400000Y-82508000D02*
X108966000Y-84074000D01*
X108966000Y-84074000D02*
X114554000Y-84074000D01*
X107400000Y-77300000D02*
X107400000Y-82508000D01*
X119650000Y-86100000D02*
X118132000Y-84582000D01*
X118132000Y-84582000D02*
X116459000Y-84582000D01*
X119549802Y-79248000D02*
X119198000Y-79248000D01*
X119198000Y-79248000D02*
X119105000Y-79155000D01*
X119105000Y-79155000D02*
X119105000Y-75530000D01*
X119105000Y-82388000D02*
X119105000Y-82162802D01*
X119105000Y-82162802D02*
X120240001Y-81027801D01*
X120240001Y-81027801D02*
X120240001Y-79938199D01*
X120240001Y-79938199D02*
X119549802Y-79248000D01*
X88237999Y-79347999D02*
X87695999Y-79347999D01*
X87695999Y-79347999D02*
X87503000Y-79155000D01*
X87503000Y-79155000D02*
X87503000Y-75530000D01*
X88863000Y-79973000D02*
X88237999Y-79347999D01*
X88863000Y-81028000D02*
X88863000Y-79973000D01*
X87503000Y-82388000D02*
X88863000Y-81028000D01*
X104050000Y-74900000D02*
X105400000Y-74900000D01*
X119650000Y-85250000D02*
X119650000Y-86100000D01*
X106000000Y-77300000D02*
X106000000Y-75500000D01*
X106000000Y-78800000D02*
X106000000Y-77300000D01*
X106000000Y-77300000D02*
X107400000Y-77300000D01*
X106000000Y-75500000D02*
X105400000Y-74900000D01*
X95688000Y-82388000D02*
X96676000Y-81400000D01*
X87505000Y-82388000D02*
X95688000Y-82388000D01*
X119650000Y-86100000D02*
X119650000Y-82933000D01*
X119650000Y-82933000D02*
X119105000Y-82388000D01*
X87505000Y-83495000D02*
X86250000Y-84750000D01*
X86250000Y-84750000D02*
X86250000Y-86300000D01*
X87505000Y-82388000D02*
X87505000Y-83495000D01*
X121600000Y-86100000D02*
X122200000Y-86700000D01*
X122200000Y-86700000D02*
X122200000Y-90200000D01*
X119650000Y-86100000D02*
X121600000Y-86100000D01*
X120700000Y-93500000D02*
X122200000Y-92000000D01*
X122200000Y-92000000D02*
X122200000Y-90200000D01*
X120700000Y-95600000D02*
X120700000Y-93500000D01*
X117450000Y-95600000D02*
X120700000Y-95600000D01*
X96676000Y-81400000D02*
X98400000Y-81400000D01*
X98400000Y-81400000D02*
X100150000Y-81400000D01*
X100150000Y-81400000D02*
X102150000Y-83400000D01*
X98400000Y-77350000D02*
X98400000Y-81400000D01*
D32*
X104902000Y-72898000D02*
X103102000Y-72898000D01*
X103102000Y-72898000D02*
X102150000Y-73850000D01*
X102150000Y-73850000D02*
X102150000Y-74400000D01*
X106800000Y-74796000D02*
X104902000Y-72898000D01*
X106800000Y-76200000D02*
X106800000Y-74796000D01*
X96520000Y-74930000D02*
X98120000Y-74930000D01*
X98120000Y-74930000D02*
X98400000Y-74650000D01*
X102150000Y-74900000D02*
X102150000Y-73950000D01*
X98400000Y-74650000D02*
X101900000Y-74650000D01*
X101900000Y-74650000D02*
X102150000Y-74900000D01*
X99850000Y-87250000D02*
X92710000Y-87250000D01*
X97400000Y-100600000D02*
X96400000Y-99600000D01*
X97400000Y-102050000D02*
X97400000Y-100600000D01*
X109900000Y-85300000D02*
X109950000Y-85250000D01*
X109950000Y-85250000D02*
X111900000Y-85250000D01*
X98200000Y-100000000D02*
X97800000Y-99600000D01*
X98200000Y-102050000D02*
X98200000Y-100000000D01*
X101600000Y-77470000D02*
X103030000Y-77470000D01*
X103030000Y-77470000D02*
X103100000Y-77400000D01*
X103100000Y-77700000D02*
X103100000Y-76900000D01*
X99650000Y-98200000D02*
X102900000Y-98200000D01*
X103800000Y-98500000D02*
X103300000Y-99000000D01*
X103300000Y-99000000D02*
X99650000Y-99000000D01*
X104800000Y-80800000D02*
X104000000Y-80800000D01*
X104000000Y-80800000D02*
X103400000Y-81400000D01*
X103400000Y-81400000D02*
X103100000Y-81400000D01*
X107600000Y-103650000D02*
X108585000Y-103650000D01*
X103200000Y-102600000D02*
X105650000Y-102600000D01*
X105650000Y-102600000D02*
X106700000Y-103650000D01*
X106700000Y-103650000D02*
X107600000Y-103650000D01*
X91150000Y-99000000D02*
X92500000Y-99000000D01*
X102400000Y-101800000D02*
X109375000Y-101800000D01*
X109375000Y-101800000D02*
X111125000Y-103550000D01*
X111125000Y-103550000D02*
X111125000Y-103650000D01*
X91150000Y-98200000D02*
X92500000Y-98200000D01*
X82200000Y-103450000D02*
X82200000Y-102100000D01*
X82200000Y-102100000D02*
X88500000Y-95800000D01*
X88500000Y-95800000D02*
X91150000Y-95800000D01*
X92000000Y-95800000D02*
X91150000Y-95800000D01*
X79800000Y-103450000D02*
X79800000Y-102700000D01*
X79800000Y-102700000D02*
X87500000Y-95000000D01*
X87500000Y-95000000D02*
X91150000Y-95000000D01*
X105800000Y-104800000D02*
X105800000Y-105850000D01*
X105800000Y-105850000D02*
X105850000Y-105900000D01*
X105730000Y-110870000D02*
X105770000Y-110870000D01*
X105770000Y-110870000D02*
X106800000Y-111900000D01*
X105800000Y-104800000D02*
X105800000Y-110800000D01*
X105800000Y-110800000D02*
X105730000Y-110870000D01*
X105730000Y-110870000D02*
X102540000Y-110870000D01*
X105800000Y-98300000D02*
X104900000Y-97400000D01*
X104900000Y-97400000D02*
X99650000Y-97400000D01*
X84980000Y-87630000D02*
X87180000Y-87630000D01*
X87180000Y-87630000D02*
X88510000Y-86300000D01*
X88510000Y-86300000D02*
X89710000Y-86300000D01*
X83650000Y-86300000D02*
X84980000Y-87630000D01*
X89710000Y-86300000D02*
X89160000Y-86300000D01*
X83550000Y-86300000D02*
X83650000Y-86300000D01*
X83693000Y-82388000D02*
X82732999Y-81427999D01*
X82732999Y-81427999D02*
X82732999Y-79765001D01*
X82732999Y-79765001D02*
X83693000Y-78805000D01*
X83693000Y-78805000D02*
X83693000Y-75530000D01*
X83695000Y-82388000D02*
X83695000Y-86155000D01*
X83695000Y-86155000D02*
X83550000Y-86300000D01*
X115295000Y-82388000D02*
X114334999Y-81427999D01*
X114334999Y-81427999D02*
X114334999Y-79765001D01*
X114334999Y-79765001D02*
X115295000Y-78805000D01*
X115295000Y-78805000D02*
X115295000Y-75530000D01*
X116950000Y-86100000D02*
X114000000Y-86100000D01*
X114000000Y-86100000D02*
X113900000Y-86200000D01*
X115295000Y-82388000D02*
X115295000Y-84445000D01*
X115295000Y-84445000D02*
X116950000Y-86100000D01*
X97002000Y-84100000D02*
X95752000Y-85350000D01*
X95752000Y-85350000D02*
X92710000Y-85350000D01*
X98400000Y-84100000D02*
X97002000Y-84100000D01*
X104050000Y-83400000D02*
X105100000Y-83400000D01*
X105100000Y-83400000D02*
X108800000Y-87100000D01*
X108800000Y-87100000D02*
X111850000Y-87100000D01*
X111850000Y-87100000D02*
X111900000Y-87150000D01*
X98400000Y-84100000D02*
X99500000Y-84100000D01*
X99500000Y-84100000D02*
X100200000Y-84800000D01*
X100200000Y-84800000D02*
X102650000Y-84800000D01*
X102650000Y-84800000D02*
X104050000Y-83400000D01*
X107200000Y-90500000D02*
X110200000Y-90500000D01*
X101100000Y-91500000D02*
X102100000Y-90500000D01*
X102100000Y-90500000D02*
X104500000Y-90500000D01*
X100400000Y-91500000D02*
X101100000Y-91500000D01*
X98300000Y-91500000D02*
X97400000Y-92400000D01*
X97400000Y-92400000D02*
X97400000Y-93550000D01*
X85200000Y-93000000D02*
X83200000Y-95000000D01*
X86000000Y-92200000D02*
X85200000Y-93000000D01*
X85200000Y-93000000D02*
X84000000Y-94200000D01*
X83200000Y-93700000D02*
X83200000Y-90500000D01*
X83200000Y-95000000D02*
X83200000Y-93700000D01*
X83200000Y-93700000D02*
X83200000Y-95200000D01*
X83200000Y-90500000D02*
X83200000Y-89300000D01*
X83200000Y-90500000D02*
X83200000Y-88700000D01*
X93400000Y-93550000D02*
X93400000Y-92700000D01*
X93400000Y-92700000D02*
X92900000Y-92200000D01*
X92900000Y-92200000D02*
X86000000Y-92200000D01*
X83200000Y-89300000D02*
X82800000Y-88900000D01*
D34*
G36*
X81972999Y-79765001D02*
X81972999Y-81427999D01*
X82030851Y-81718838D01*
X82195598Y-81965400D01*
X82423170Y-82192972D01*
X82422780Y-82639510D01*
X82615718Y-83106458D01*
X82935000Y-83426297D01*
X82935000Y-85002560D01*
X82800000Y-85002560D01*
X82564683Y-85046838D01*
X82348559Y-85185910D01*
X82203569Y-85398110D01*
X82152560Y-85650000D01*
X82152560Y-86950000D01*
X82196838Y-87185317D01*
X82278226Y-87311797D01*
X82275057Y-87313106D01*
X81814722Y-87772637D01*
X81565284Y-88373352D01*
X81564716Y-89023795D01*
X81813106Y-89624943D01*
X82272637Y-90085278D01*
X82440000Y-90154773D01*
X82440000Y-93744953D01*
X82275057Y-93813106D01*
X81814722Y-94272637D01*
X81565284Y-94873352D01*
X81564716Y-95523795D01*
X81813106Y-96124943D01*
X82272637Y-96585278D01*
X82873352Y-96834716D01*
X82990380Y-96834818D01*
X77862599Y-101962599D01*
X77697852Y-102209161D01*
X77640000Y-102500000D01*
X77640000Y-106000000D01*
X77697852Y-106290839D01*
X77862599Y-106537401D01*
X78012599Y-106687401D01*
X78259161Y-106852148D01*
X78502670Y-106900585D01*
X78546838Y-107135317D01*
X78685910Y-107351441D01*
X78898110Y-107496431D01*
X79040000Y-107525164D01*
X79040000Y-109212560D01*
X78936667Y-109212560D01*
X78701350Y-109256838D01*
X78485226Y-109395910D01*
X78340236Y-109608110D01*
X78289227Y-109860000D01*
X78289227Y-112890000D01*
X77110000Y-112890000D01*
X77110000Y-96352532D01*
X77727073Y-96352532D01*
X77825736Y-96619387D01*
X78435461Y-96845908D01*
X79085460Y-96821856D01*
X79574264Y-96619387D01*
X79672927Y-96352532D01*
X78700000Y-95379605D01*
X77727073Y-96352532D01*
X77110000Y-96352532D01*
X77110000Y-95662367D01*
X77280613Y-96074264D01*
X77547468Y-96172927D01*
X78520395Y-95200000D01*
X78879605Y-95200000D01*
X79852532Y-96172927D01*
X80119387Y-96074264D01*
X80345908Y-95464539D01*
X80321856Y-94814540D01*
X80119387Y-94325736D01*
X79852532Y-94227073D01*
X78879605Y-95200000D01*
X78520395Y-95200000D01*
X77547468Y-94227073D01*
X77280613Y-94325736D01*
X77110000Y-94784974D01*
X77110000Y-94047468D01*
X77727073Y-94047468D01*
X78700000Y-95020395D01*
X79672927Y-94047468D01*
X79574264Y-93780613D01*
X78964539Y-93554092D01*
X78314540Y-93578144D01*
X77825736Y-93780613D01*
X77727073Y-94047468D01*
X77110000Y-94047468D01*
X77110000Y-89852532D01*
X77727073Y-89852532D01*
X77825736Y-90119387D01*
X78435461Y-90345908D01*
X79085460Y-90321856D01*
X79574264Y-90119387D01*
X79672927Y-89852532D01*
X78700000Y-88879605D01*
X77727073Y-89852532D01*
X77110000Y-89852532D01*
X77110000Y-89162367D01*
X77280613Y-89574264D01*
X77547468Y-89672927D01*
X78520395Y-88700000D01*
X78879605Y-88700000D01*
X79852532Y-89672927D01*
X80119387Y-89574264D01*
X80345908Y-88964539D01*
X80321856Y-88314540D01*
X80119387Y-87825736D01*
X79852532Y-87727073D01*
X78879605Y-88700000D01*
X78520395Y-88700000D01*
X77547468Y-87727073D01*
X77280613Y-87825736D01*
X77110000Y-88284974D01*
X77110000Y-87547468D01*
X77727073Y-87547468D01*
X78700000Y-88520395D01*
X79672927Y-87547468D01*
X79574264Y-87280613D01*
X78964539Y-87054092D01*
X78314540Y-87078144D01*
X77825736Y-87280613D01*
X77727073Y-87547468D01*
X77110000Y-87547468D01*
X77110000Y-80073296D01*
X77416622Y-80815377D01*
X78023428Y-81423244D01*
X78816664Y-81752624D01*
X79675567Y-81753374D01*
X80469377Y-81425378D01*
X81077244Y-80818572D01*
X81406624Y-80025336D01*
X81407015Y-79577000D01*
X82010395Y-79577000D01*
X81972999Y-79765001D01*
X81972999Y-79765001D01*
G37*
X81972999Y-79765001D02*
X81972999Y-81427999D01*
X82030851Y-81718838D01*
X82195598Y-81965400D01*
X82423170Y-82192972D01*
X82422780Y-82639510D01*
X82615718Y-83106458D01*
X82935000Y-83426297D01*
X82935000Y-85002560D01*
X82800000Y-85002560D01*
X82564683Y-85046838D01*
X82348559Y-85185910D01*
X82203569Y-85398110D01*
X82152560Y-85650000D01*
X82152560Y-86950000D01*
X82196838Y-87185317D01*
X82278226Y-87311797D01*
X82275057Y-87313106D01*
X81814722Y-87772637D01*
X81565284Y-88373352D01*
X81564716Y-89023795D01*
X81813106Y-89624943D01*
X82272637Y-90085278D01*
X82440000Y-90154773D01*
X82440000Y-93744953D01*
X82275057Y-93813106D01*
X81814722Y-94272637D01*
X81565284Y-94873352D01*
X81564716Y-95523795D01*
X81813106Y-96124943D01*
X82272637Y-96585278D01*
X82873352Y-96834716D01*
X82990380Y-96834818D01*
X77862599Y-101962599D01*
X77697852Y-102209161D01*
X77640000Y-102500000D01*
X77640000Y-106000000D01*
X77697852Y-106290839D01*
X77862599Y-106537401D01*
X78012599Y-106687401D01*
X78259161Y-106852148D01*
X78502670Y-106900585D01*
X78546838Y-107135317D01*
X78685910Y-107351441D01*
X78898110Y-107496431D01*
X79040000Y-107525164D01*
X79040000Y-109212560D01*
X78936667Y-109212560D01*
X78701350Y-109256838D01*
X78485226Y-109395910D01*
X78340236Y-109608110D01*
X78289227Y-109860000D01*
X78289227Y-112890000D01*
X77110000Y-112890000D01*
X77110000Y-96352532D01*
X77727073Y-96352532D01*
X77825736Y-96619387D01*
X78435461Y-96845908D01*
X79085460Y-96821856D01*
X79574264Y-96619387D01*
X79672927Y-96352532D01*
X78700000Y-95379605D01*
X77727073Y-96352532D01*
X77110000Y-96352532D01*
X77110000Y-95662367D01*
X77280613Y-96074264D01*
X77547468Y-96172927D01*
X78520395Y-95200000D01*
X78879605Y-95200000D01*
X79852532Y-96172927D01*
X80119387Y-96074264D01*
X80345908Y-95464539D01*
X80321856Y-94814540D01*
X80119387Y-94325736D01*
X79852532Y-94227073D01*
X78879605Y-95200000D01*
X78520395Y-95200000D01*
X77547468Y-94227073D01*
X77280613Y-94325736D01*
X77110000Y-94784974D01*
X77110000Y-94047468D01*
X77727073Y-94047468D01*
X78700000Y-95020395D01*
X79672927Y-94047468D01*
X79574264Y-93780613D01*
X78964539Y-93554092D01*
X78314540Y-93578144D01*
X77825736Y-93780613D01*
X77727073Y-94047468D01*
X77110000Y-94047468D01*
X77110000Y-89852532D01*
X77727073Y-89852532D01*
X77825736Y-90119387D01*
X78435461Y-90345908D01*
X79085460Y-90321856D01*
X79574264Y-90119387D01*
X79672927Y-89852532D01*
X78700000Y-88879605D01*
X77727073Y-89852532D01*
X77110000Y-89852532D01*
X77110000Y-89162367D01*
X77280613Y-89574264D01*
X77547468Y-89672927D01*
X78520395Y-88700000D01*
X78879605Y-88700000D01*
X79852532Y-89672927D01*
X80119387Y-89574264D01*
X80345908Y-88964539D01*
X80321856Y-88314540D01*
X80119387Y-87825736D01*
X79852532Y-87727073D01*
X78879605Y-88700000D01*
X78520395Y-88700000D01*
X77547468Y-87727073D01*
X77280613Y-87825736D01*
X77110000Y-88284974D01*
X77110000Y-87547468D01*
X77727073Y-87547468D01*
X78700000Y-88520395D01*
X79672927Y-87547468D01*
X79574264Y-87280613D01*
X78964539Y-87054092D01*
X78314540Y-87078144D01*
X77825736Y-87280613D01*
X77727073Y-87547468D01*
X77110000Y-87547468D01*
X77110000Y-80073296D01*
X77416622Y-80815377D01*
X78023428Y-81423244D01*
X78816664Y-81752624D01*
X79675567Y-81753374D01*
X80469377Y-81425378D01*
X81077244Y-80818572D01*
X81406624Y-80025336D01*
X81407015Y-79577000D01*
X82010395Y-79577000D01*
X81972999Y-79765001D01*
G36*
X109427000Y-111773000D02*
X109447000Y-111773000D01*
X109447000Y-112027000D01*
X109427000Y-112027000D01*
X109427000Y-112047000D01*
X109173000Y-112047000D01*
X109173000Y-112027000D01*
X109153000Y-112027000D01*
X109153000Y-111773000D01*
X109173000Y-111773000D01*
X109173000Y-111753000D01*
X109427000Y-111753000D01*
X109427000Y-111773000D01*
X109427000Y-111773000D01*
G37*
X109427000Y-111773000D02*
X109447000Y-111773000D01*
X109447000Y-112027000D01*
X109427000Y-112027000D01*
X109427000Y-112047000D01*
X109173000Y-112047000D01*
X109173000Y-112027000D01*
X109153000Y-112027000D01*
X109153000Y-111773000D01*
X109173000Y-111773000D01*
X109173000Y-111753000D01*
X109427000Y-111753000D01*
X109427000Y-111773000D01*
G36*
X106700000Y-104410000D02*
X107289442Y-104410000D01*
X107331838Y-104635317D01*
X107470910Y-104851441D01*
X107683110Y-104996431D01*
X107696197Y-104999081D01*
X107483559Y-105135910D01*
X107338569Y-105348110D01*
X107287560Y-105600000D01*
X107287560Y-107100000D01*
X107331838Y-107335317D01*
X107470910Y-107551441D01*
X107683110Y-107696431D01*
X107825000Y-107725164D01*
X107825000Y-109841673D01*
X107755852Y-109945161D01*
X107698000Y-110236000D01*
X107755852Y-110526839D01*
X107903728Y-110748152D01*
X107801890Y-110678569D01*
X107550000Y-110627560D01*
X106602362Y-110627560D01*
X106560000Y-110585198D01*
X106560000Y-107197440D01*
X106600000Y-107197440D01*
X106835317Y-107153162D01*
X107051441Y-107014090D01*
X107196431Y-106801890D01*
X107247440Y-106550000D01*
X107247440Y-105250000D01*
X107203162Y-105014683D01*
X107064090Y-104798559D01*
X106851890Y-104653569D01*
X106735149Y-104629928D01*
X106735162Y-104614833D01*
X106646097Y-104399278D01*
X106700000Y-104410000D01*
X106700000Y-104410000D01*
G37*
X106700000Y-104410000D02*
X107289442Y-104410000D01*
X107331838Y-104635317D01*
X107470910Y-104851441D01*
X107683110Y-104996431D01*
X107696197Y-104999081D01*
X107483559Y-105135910D01*
X107338569Y-105348110D01*
X107287560Y-105600000D01*
X107287560Y-107100000D01*
X107331838Y-107335317D01*
X107470910Y-107551441D01*
X107683110Y-107696431D01*
X107825000Y-107725164D01*
X107825000Y-109841673D01*
X107755852Y-109945161D01*
X107698000Y-110236000D01*
X107755852Y-110526839D01*
X107903728Y-110748152D01*
X107801890Y-110678569D01*
X107550000Y-110627560D01*
X106602362Y-110627560D01*
X106560000Y-110585198D01*
X106560000Y-107197440D01*
X106600000Y-107197440D01*
X106835317Y-107153162D01*
X107051441Y-107014090D01*
X107196431Y-106801890D01*
X107247440Y-106550000D01*
X107247440Y-105250000D01*
X107203162Y-105014683D01*
X107064090Y-104798559D01*
X106851890Y-104653569D01*
X106735149Y-104629928D01*
X106735162Y-104614833D01*
X106646097Y-104399278D01*
X106700000Y-104410000D01*
G36*
X101465162Y-101613201D02*
X101464838Y-101985167D01*
X101606883Y-102328943D01*
X101869673Y-102592192D01*
X102213201Y-102734838D01*
X102264882Y-102734883D01*
X102264838Y-102785167D01*
X102406883Y-103128943D01*
X102669673Y-103392192D01*
X103013201Y-103534838D01*
X103385167Y-103535162D01*
X103728943Y-103393117D01*
X103762118Y-103360000D01*
X105335198Y-103360000D01*
X105840232Y-103865034D01*
X105614833Y-103864838D01*
X105271057Y-104006883D01*
X105007808Y-104269673D01*
X104865162Y-104613201D01*
X104865133Y-104646753D01*
X104864683Y-104646838D01*
X104648559Y-104785910D01*
X104503569Y-104998110D01*
X104500919Y-105011197D01*
X104364090Y-104798559D01*
X104151890Y-104653569D01*
X103900000Y-104602560D01*
X102400000Y-104602560D01*
X102164683Y-104646838D01*
X101948559Y-104785910D01*
X101826296Y-104964848D01*
X101814833Y-104964838D01*
X101471057Y-105106883D01*
X101207808Y-105369673D01*
X101065162Y-105713201D01*
X101064838Y-106085167D01*
X101206883Y-106428943D01*
X101469673Y-106692192D01*
X101813201Y-106834838D01*
X101828713Y-106834852D01*
X101935910Y-107001441D01*
X101984690Y-107034771D01*
X101808857Y-107107603D01*
X101739392Y-107349787D01*
X102540000Y-108150395D01*
X103340608Y-107349787D01*
X103296911Y-107197440D01*
X103900000Y-107197440D01*
X104135317Y-107153162D01*
X104351441Y-107014090D01*
X104496431Y-106801890D01*
X104499081Y-106788803D01*
X104635910Y-107001441D01*
X104848110Y-107146431D01*
X105040000Y-107185290D01*
X105040000Y-110110000D01*
X103737531Y-110110000D01*
X103725010Y-110079697D01*
X103332370Y-109686371D01*
X103140273Y-109606605D01*
X103271143Y-109552397D01*
X103340608Y-109310213D01*
X102540000Y-108509605D01*
X101739392Y-109310213D01*
X101808857Y-109552397D01*
X101949318Y-109602509D01*
X101749697Y-109684990D01*
X101356371Y-110077630D01*
X101270051Y-110285512D01*
X101185010Y-110079697D01*
X100792370Y-109686371D01*
X100584488Y-109600051D01*
X100790303Y-109515010D01*
X101183629Y-109122370D01*
X101263395Y-108930273D01*
X101317603Y-109061143D01*
X101559787Y-109130608D01*
X102360395Y-108330000D01*
X102719605Y-108330000D01*
X103520213Y-109130608D01*
X103762397Y-109061143D01*
X103949144Y-108537698D01*
X103921362Y-107982632D01*
X103762397Y-107598857D01*
X103520213Y-107529392D01*
X102719605Y-108330000D01*
X102360395Y-108330000D01*
X101559787Y-107529392D01*
X101317603Y-107598857D01*
X101267491Y-107739318D01*
X101185010Y-107539697D01*
X100792370Y-107146371D01*
X100760000Y-107132930D01*
X100760000Y-105162463D01*
X100792192Y-105130327D01*
X100934838Y-104786799D01*
X100935162Y-104414833D01*
X100793117Y-104071057D01*
X100530327Y-103807808D01*
X100186799Y-103665162D01*
X99814833Y-103664838D01*
X99471057Y-103806883D01*
X99207808Y-104069673D01*
X99065162Y-104413201D01*
X99064838Y-104785167D01*
X99206883Y-105128943D01*
X99240000Y-105162118D01*
X99240000Y-107132469D01*
X99209697Y-107144990D01*
X98816371Y-107537630D01*
X98730051Y-107745512D01*
X98645010Y-107539697D01*
X98395000Y-107289250D01*
X98395000Y-106960000D01*
X98323827Y-106602191D01*
X98121145Y-106298855D01*
X97682290Y-105860000D01*
X97777002Y-105860000D01*
X97777002Y-105701252D01*
X97935750Y-105860000D01*
X98526309Y-105860000D01*
X98759698Y-105763327D01*
X98938327Y-105584699D01*
X99035000Y-105351310D01*
X99035000Y-104885750D01*
X98876250Y-104727000D01*
X97777000Y-104727000D01*
X97777000Y-104747000D01*
X97523000Y-104747000D01*
X97523000Y-104727000D01*
X97503000Y-104727000D01*
X97503000Y-104473000D01*
X97523000Y-104473000D01*
X97523000Y-104453000D01*
X97777000Y-104453000D01*
X97777000Y-104473000D01*
X98876250Y-104473000D01*
X99035000Y-104314250D01*
X99035000Y-103848690D01*
X98938327Y-103615301D01*
X98759698Y-103436673D01*
X98745245Y-103430686D01*
X98926441Y-103314090D01*
X99071431Y-103101890D01*
X99122440Y-102850000D01*
X99122440Y-101522440D01*
X100450000Y-101522440D01*
X100685317Y-101478162D01*
X100868946Y-101360000D01*
X101570301Y-101360000D01*
X101465162Y-101613201D01*
X101465162Y-101613201D01*
G37*
X101465162Y-101613201D02*
X101464838Y-101985167D01*
X101606883Y-102328943D01*
X101869673Y-102592192D01*
X102213201Y-102734838D01*
X102264882Y-102734883D01*
X102264838Y-102785167D01*
X102406883Y-103128943D01*
X102669673Y-103392192D01*
X103013201Y-103534838D01*
X103385167Y-103535162D01*
X103728943Y-103393117D01*
X103762118Y-103360000D01*
X105335198Y-103360000D01*
X105840232Y-103865034D01*
X105614833Y-103864838D01*
X105271057Y-104006883D01*
X105007808Y-104269673D01*
X104865162Y-104613201D01*
X104865133Y-104646753D01*
X104864683Y-104646838D01*
X104648559Y-104785910D01*
X104503569Y-104998110D01*
X104500919Y-105011197D01*
X104364090Y-104798559D01*
X104151890Y-104653569D01*
X103900000Y-104602560D01*
X102400000Y-104602560D01*
X102164683Y-104646838D01*
X101948559Y-104785910D01*
X101826296Y-104964848D01*
X101814833Y-104964838D01*
X101471057Y-105106883D01*
X101207808Y-105369673D01*
X101065162Y-105713201D01*
X101064838Y-106085167D01*
X101206883Y-106428943D01*
X101469673Y-106692192D01*
X101813201Y-106834838D01*
X101828713Y-106834852D01*
X101935910Y-107001441D01*
X101984690Y-107034771D01*
X101808857Y-107107603D01*
X101739392Y-107349787D01*
X102540000Y-108150395D01*
X103340608Y-107349787D01*
X103296911Y-107197440D01*
X103900000Y-107197440D01*
X104135317Y-107153162D01*
X104351441Y-107014090D01*
X104496431Y-106801890D01*
X104499081Y-106788803D01*
X104635910Y-107001441D01*
X104848110Y-107146431D01*
X105040000Y-107185290D01*
X105040000Y-110110000D01*
X103737531Y-110110000D01*
X103725010Y-110079697D01*
X103332370Y-109686371D01*
X103140273Y-109606605D01*
X103271143Y-109552397D01*
X103340608Y-109310213D01*
X102540000Y-108509605D01*
X101739392Y-109310213D01*
X101808857Y-109552397D01*
X101949318Y-109602509D01*
X101749697Y-109684990D01*
X101356371Y-110077630D01*
X101270051Y-110285512D01*
X101185010Y-110079697D01*
X100792370Y-109686371D01*
X100584488Y-109600051D01*
X100790303Y-109515010D01*
X101183629Y-109122370D01*
X101263395Y-108930273D01*
X101317603Y-109061143D01*
X101559787Y-109130608D01*
X102360395Y-108330000D01*
X102719605Y-108330000D01*
X103520213Y-109130608D01*
X103762397Y-109061143D01*
X103949144Y-108537698D01*
X103921362Y-107982632D01*
X103762397Y-107598857D01*
X103520213Y-107529392D01*
X102719605Y-108330000D01*
X102360395Y-108330000D01*
X101559787Y-107529392D01*
X101317603Y-107598857D01*
X101267491Y-107739318D01*
X101185010Y-107539697D01*
X100792370Y-107146371D01*
X100760000Y-107132930D01*
X100760000Y-105162463D01*
X100792192Y-105130327D01*
X100934838Y-104786799D01*
X100935162Y-104414833D01*
X100793117Y-104071057D01*
X100530327Y-103807808D01*
X100186799Y-103665162D01*
X99814833Y-103664838D01*
X99471057Y-103806883D01*
X99207808Y-104069673D01*
X99065162Y-104413201D01*
X99064838Y-104785167D01*
X99206883Y-105128943D01*
X99240000Y-105162118D01*
X99240000Y-107132469D01*
X99209697Y-107144990D01*
X98816371Y-107537630D01*
X98730051Y-107745512D01*
X98645010Y-107539697D01*
X98395000Y-107289250D01*
X98395000Y-106960000D01*
X98323827Y-106602191D01*
X98121145Y-106298855D01*
X97682290Y-105860000D01*
X97777002Y-105860000D01*
X97777002Y-105701252D01*
X97935750Y-105860000D01*
X98526309Y-105860000D01*
X98759698Y-105763327D01*
X98938327Y-105584699D01*
X99035000Y-105351310D01*
X99035000Y-104885750D01*
X98876250Y-104727000D01*
X97777000Y-104727000D01*
X97777000Y-104747000D01*
X97523000Y-104747000D01*
X97523000Y-104727000D01*
X97503000Y-104727000D01*
X97503000Y-104473000D01*
X97523000Y-104473000D01*
X97523000Y-104453000D01*
X97777000Y-104453000D01*
X97777000Y-104473000D01*
X98876250Y-104473000D01*
X99035000Y-104314250D01*
X99035000Y-103848690D01*
X98938327Y-103615301D01*
X98759698Y-103436673D01*
X98745245Y-103430686D01*
X98926441Y-103314090D01*
X99071431Y-103101890D01*
X99122440Y-102850000D01*
X99122440Y-101522440D01*
X100450000Y-101522440D01*
X100685317Y-101478162D01*
X100868946Y-101360000D01*
X101570301Y-101360000D01*
X101465162Y-101613201D01*
G36*
X117140000Y-106714802D02*
X117140000Y-109212560D01*
X116476667Y-109212560D01*
X116241350Y-109256838D01*
X116025226Y-109395910D01*
X116016851Y-109408168D01*
X115805223Y-109263569D01*
X115553333Y-109212560D01*
X115360000Y-109212560D01*
X115360000Y-104934802D01*
X117140000Y-106714802D01*
X117140000Y-106714802D01*
G37*
X117140000Y-106714802D02*
X117140000Y-109212560D01*
X116476667Y-109212560D01*
X116241350Y-109256838D01*
X116025226Y-109395910D01*
X116016851Y-109408168D01*
X115805223Y-109263569D01*
X115553333Y-109212560D01*
X115360000Y-109212560D01*
X115360000Y-104934802D01*
X117140000Y-106714802D01*
G36*
X96791245Y-94890495D02*
X96885750Y-94985000D01*
X97001310Y-94985000D01*
X97021753Y-94976532D01*
X97125000Y-94997440D01*
X97675000Y-94997440D01*
X97804589Y-94973056D01*
X97925000Y-94997440D01*
X98202560Y-94997440D01*
X98202560Y-95275000D01*
X98226944Y-95404589D01*
X98202560Y-95525000D01*
X98202560Y-96075000D01*
X98226944Y-96204589D01*
X98202560Y-96325000D01*
X98202560Y-96875000D01*
X98226944Y-97004589D01*
X98202560Y-97125000D01*
X98202560Y-97675000D01*
X98226944Y-97804589D01*
X98202560Y-97925000D01*
X98202560Y-98475000D01*
X98226944Y-98604589D01*
X98202560Y-98725000D01*
X98202560Y-98754754D01*
X97986799Y-98665162D01*
X97614833Y-98664838D01*
X97271057Y-98806883D01*
X97099932Y-98977709D01*
X96930327Y-98807808D01*
X96586799Y-98665162D01*
X96214833Y-98664838D01*
X95871057Y-98806883D01*
X95607808Y-99069673D01*
X95465162Y-99413201D01*
X95464838Y-99785167D01*
X95606883Y-100128943D01*
X95869673Y-100392192D01*
X96213201Y-100534838D01*
X96260077Y-100534879D01*
X96327758Y-100602560D01*
X96325000Y-100602560D01*
X96219295Y-100622450D01*
X96201310Y-100615000D01*
X96085750Y-100615000D01*
X95989349Y-100711401D01*
X95873559Y-100785910D01*
X95800116Y-100893397D01*
X95739090Y-100798559D01*
X95608755Y-100709505D01*
X95514250Y-100615000D01*
X95398690Y-100615000D01*
X95378247Y-100623468D01*
X95275000Y-100602560D01*
X94725000Y-100602560D01*
X94595411Y-100626944D01*
X94475000Y-100602560D01*
X94335000Y-100602560D01*
X94335000Y-97387290D01*
X96461145Y-95261145D01*
X96645659Y-94985000D01*
X96727002Y-94985000D01*
X96727002Y-94846600D01*
X96791245Y-94890495D01*
X96791245Y-94890495D01*
G37*
X96791245Y-94890495D02*
X96885750Y-94985000D01*
X97001310Y-94985000D01*
X97021753Y-94976532D01*
X97125000Y-94997440D01*
X97675000Y-94997440D01*
X97804589Y-94973056D01*
X97925000Y-94997440D01*
X98202560Y-94997440D01*
X98202560Y-95275000D01*
X98226944Y-95404589D01*
X98202560Y-95525000D01*
X98202560Y-96075000D01*
X98226944Y-96204589D01*
X98202560Y-96325000D01*
X98202560Y-96875000D01*
X98226944Y-97004589D01*
X98202560Y-97125000D01*
X98202560Y-97675000D01*
X98226944Y-97804589D01*
X98202560Y-97925000D01*
X98202560Y-98475000D01*
X98226944Y-98604589D01*
X98202560Y-98725000D01*
X98202560Y-98754754D01*
X97986799Y-98665162D01*
X97614833Y-98664838D01*
X97271057Y-98806883D01*
X97099932Y-98977709D01*
X96930327Y-98807808D01*
X96586799Y-98665162D01*
X96214833Y-98664838D01*
X95871057Y-98806883D01*
X95607808Y-99069673D01*
X95465162Y-99413201D01*
X95464838Y-99785167D01*
X95606883Y-100128943D01*
X95869673Y-100392192D01*
X96213201Y-100534838D01*
X96260077Y-100534879D01*
X96327758Y-100602560D01*
X96325000Y-100602560D01*
X96219295Y-100622450D01*
X96201310Y-100615000D01*
X96085750Y-100615000D01*
X95989349Y-100711401D01*
X95873559Y-100785910D01*
X95800116Y-100893397D01*
X95739090Y-100798559D01*
X95608755Y-100709505D01*
X95514250Y-100615000D01*
X95398690Y-100615000D01*
X95378247Y-100623468D01*
X95275000Y-100602560D01*
X94725000Y-100602560D01*
X94595411Y-100626944D01*
X94475000Y-100602560D01*
X94335000Y-100602560D01*
X94335000Y-97387290D01*
X96461145Y-95261145D01*
X96645659Y-94985000D01*
X96727002Y-94985000D01*
X96727002Y-94846600D01*
X96791245Y-94890495D01*
G36*
X108262599Y-87637401D02*
X108509160Y-87802148D01*
X108800000Y-87860000D01*
X109894895Y-87860000D01*
X109985910Y-88001441D01*
X110198110Y-88146431D01*
X110450000Y-88197440D01*
X112350000Y-88197440D01*
X112585317Y-88153162D01*
X112801441Y-88014090D01*
X112946431Y-87801890D01*
X112997440Y-87550000D01*
X112997440Y-87059319D01*
X113198110Y-87196431D01*
X113450000Y-87247440D01*
X115350000Y-87247440D01*
X115585317Y-87203162D01*
X115692596Y-87134130D01*
X115735910Y-87201441D01*
X115948110Y-87346431D01*
X116200000Y-87397440D01*
X117700000Y-87397440D01*
X117935317Y-87353162D01*
X118151441Y-87214090D01*
X118296431Y-87001890D01*
X118299081Y-86988803D01*
X118435910Y-87201441D01*
X118648110Y-87346431D01*
X118900000Y-87397440D01*
X120400000Y-87397440D01*
X120635317Y-87353162D01*
X120851441Y-87214090D01*
X120973808Y-87035000D01*
X121212710Y-87035000D01*
X121265000Y-87087290D01*
X121265000Y-88802560D01*
X120600000Y-88802560D01*
X120364683Y-88846838D01*
X120200507Y-88952482D01*
X120159698Y-88911673D01*
X119926309Y-88815000D01*
X118485750Y-88815000D01*
X118327000Y-88973750D01*
X118327000Y-90073000D01*
X118347000Y-90073000D01*
X118347000Y-90327000D01*
X118327000Y-90327000D01*
X118327000Y-91426250D01*
X118485750Y-91585000D01*
X119926309Y-91585000D01*
X120159698Y-91488327D01*
X120201660Y-91446366D01*
X120348110Y-91546431D01*
X120600000Y-91597440D01*
X121265000Y-91597440D01*
X121265000Y-91612710D01*
X120038855Y-92838855D01*
X119836173Y-93142191D01*
X119765000Y-93500000D01*
X119765000Y-94665000D01*
X119062630Y-94665000D01*
X119053162Y-94614683D01*
X118947518Y-94450508D01*
X118988327Y-94409699D01*
X119085000Y-94176310D01*
X119085000Y-93585750D01*
X118926250Y-93427000D01*
X117577000Y-93427000D01*
X117577000Y-93447000D01*
X117323000Y-93447000D01*
X117323000Y-93427000D01*
X115973750Y-93427000D01*
X115815000Y-93585750D01*
X115815000Y-94176310D01*
X115911673Y-94409699D01*
X115953634Y-94451660D01*
X115853569Y-94598110D01*
X115802560Y-94850000D01*
X115802560Y-96350000D01*
X115846838Y-96585317D01*
X115953759Y-96751477D01*
X115876192Y-96865000D01*
X115597440Y-96865000D01*
X115597440Y-96200000D01*
X115553162Y-95964683D01*
X115447518Y-95800507D01*
X115488327Y-95759698D01*
X115585000Y-95526309D01*
X115585000Y-94085750D01*
X115426250Y-93927000D01*
X114327000Y-93927000D01*
X114327000Y-93947000D01*
X114073000Y-93947000D01*
X114073000Y-93927000D01*
X112973750Y-93927000D01*
X112815000Y-94085750D01*
X112815000Y-95526309D01*
X112911673Y-95759698D01*
X112953634Y-95801660D01*
X112853569Y-95948110D01*
X112802560Y-96200000D01*
X112802560Y-98940000D01*
X112614802Y-98940000D01*
X108137401Y-94462599D01*
X107890839Y-94297852D01*
X107600000Y-94240000D01*
X106771223Y-94240000D01*
X106834838Y-94086799D01*
X106835162Y-93714833D01*
X106693117Y-93371057D01*
X106430327Y-93107808D01*
X106086799Y-92965162D01*
X105714833Y-92964838D01*
X105371057Y-93106883D01*
X105337882Y-93140000D01*
X100100000Y-93140000D01*
X99809161Y-93197852D01*
X99562599Y-93362599D01*
X99122440Y-93802758D01*
X99122440Y-92852362D01*
X99537401Y-92437401D01*
X99702148Y-92190839D01*
X99713172Y-92135418D01*
X99869673Y-92292192D01*
X100213201Y-92434838D01*
X100585167Y-92435162D01*
X100928943Y-92293117D01*
X100962118Y-92260000D01*
X101100000Y-92260000D01*
X101390839Y-92202148D01*
X101637401Y-92037401D01*
X102414802Y-91260000D01*
X103123258Y-91260000D01*
X103146838Y-91385317D01*
X103285910Y-91601441D01*
X103498110Y-91746431D01*
X103750000Y-91797440D01*
X105250000Y-91797440D01*
X105485317Y-91753162D01*
X105701441Y-91614090D01*
X105846431Y-91401890D01*
X105849081Y-91388803D01*
X105985910Y-91601441D01*
X106198110Y-91746431D01*
X106450000Y-91797440D01*
X107950000Y-91797440D01*
X108185317Y-91753162D01*
X108401441Y-91614090D01*
X108546431Y-91401890D01*
X108554669Y-91361209D01*
X108596838Y-91585317D01*
X108735910Y-91801441D01*
X108948110Y-91946431D01*
X109200000Y-91997440D01*
X111200000Y-91997440D01*
X111435317Y-91953162D01*
X111651441Y-91814090D01*
X111796431Y-91601890D01*
X111847440Y-91350000D01*
X111847440Y-90785750D01*
X112565000Y-90785750D01*
X112565000Y-91476310D01*
X112661673Y-91709699D01*
X112840302Y-91888327D01*
X112884242Y-91906527D01*
X112815000Y-92073691D01*
X112815000Y-93514250D01*
X112973750Y-93673000D01*
X114073000Y-93673000D01*
X114073000Y-90627000D01*
X114327000Y-90627000D01*
X114327000Y-93673000D01*
X115426250Y-93673000D01*
X115585000Y-93514250D01*
X115585000Y-92423690D01*
X115815000Y-92423690D01*
X115815000Y-93014250D01*
X115973750Y-93173000D01*
X117323000Y-93173000D01*
X117323000Y-92073750D01*
X117577000Y-92073750D01*
X117577000Y-93173000D01*
X118926250Y-93173000D01*
X119085000Y-93014250D01*
X119085000Y-92423690D01*
X118988327Y-92190301D01*
X118809698Y-92011673D01*
X118576309Y-91915000D01*
X117735750Y-91915000D01*
X117577000Y-92073750D01*
X117323000Y-92073750D01*
X117164250Y-91915000D01*
X116323691Y-91915000D01*
X116090302Y-92011673D01*
X115911673Y-92190301D01*
X115815000Y-92423690D01*
X115585000Y-92423690D01*
X115585000Y-92073691D01*
X115515758Y-91906527D01*
X115559698Y-91888327D01*
X115738327Y-91709699D01*
X115835000Y-91476310D01*
X115835000Y-90785750D01*
X115676250Y-90627000D01*
X114327000Y-90627000D01*
X114073000Y-90627000D01*
X112723750Y-90627000D01*
X112565000Y-90785750D01*
X111847440Y-90785750D01*
X111847440Y-90485750D01*
X115965000Y-90485750D01*
X115965000Y-91076310D01*
X116061673Y-91309699D01*
X116240302Y-91488327D01*
X116473691Y-91585000D01*
X117914250Y-91585000D01*
X118073000Y-91426250D01*
X118073000Y-90327000D01*
X116123750Y-90327000D01*
X115965000Y-90485750D01*
X111847440Y-90485750D01*
X111847440Y-89650000D01*
X111823674Y-89523690D01*
X112565000Y-89523690D01*
X112565000Y-90214250D01*
X112723750Y-90373000D01*
X114073000Y-90373000D01*
X114073000Y-89173750D01*
X114327000Y-89173750D01*
X114327000Y-90373000D01*
X115676250Y-90373000D01*
X115835000Y-90214250D01*
X115835000Y-89523690D01*
X115752158Y-89323690D01*
X115965000Y-89323690D01*
X115965000Y-89914250D01*
X116123750Y-90073000D01*
X118073000Y-90073000D01*
X118073000Y-88973750D01*
X117914250Y-88815000D01*
X116473691Y-88815000D01*
X116240302Y-88911673D01*
X116061673Y-89090301D01*
X115965000Y-89323690D01*
X115752158Y-89323690D01*
X115738327Y-89290301D01*
X115559698Y-89111673D01*
X115326309Y-89015000D01*
X114485750Y-89015000D01*
X114327000Y-89173750D01*
X114073000Y-89173750D01*
X113914250Y-89015000D01*
X113073691Y-89015000D01*
X112840302Y-89111673D01*
X112661673Y-89290301D01*
X112565000Y-89523690D01*
X111823674Y-89523690D01*
X111803162Y-89414683D01*
X111664090Y-89198559D01*
X111451890Y-89053569D01*
X111200000Y-89002560D01*
X109200000Y-89002560D01*
X108964683Y-89046838D01*
X108748559Y-89185910D01*
X108603569Y-89398110D01*
X108556317Y-89631449D01*
X108553162Y-89614683D01*
X108414090Y-89398559D01*
X108201890Y-89253569D01*
X107950000Y-89202560D01*
X106450000Y-89202560D01*
X106214683Y-89246838D01*
X105998559Y-89385910D01*
X105853569Y-89598110D01*
X105850919Y-89611197D01*
X105714090Y-89398559D01*
X105501890Y-89253569D01*
X105250000Y-89202560D01*
X103750000Y-89202560D01*
X103514683Y-89246838D01*
X103298559Y-89385910D01*
X103153569Y-89598110D01*
X103124836Y-89740000D01*
X102100000Y-89740000D01*
X101809161Y-89797852D01*
X101562599Y-89962599D01*
X100850526Y-90674672D01*
X100586799Y-90565162D01*
X100214833Y-90564838D01*
X99871057Y-90706883D01*
X99760000Y-90817746D01*
X99760000Y-89762463D01*
X99792192Y-89730327D01*
X99934838Y-89386799D01*
X99935162Y-89014833D01*
X99793117Y-88671057D01*
X99530327Y-88407808D01*
X99186799Y-88265162D01*
X98814833Y-88264838D01*
X98471057Y-88406883D01*
X98207808Y-88669673D01*
X98065162Y-89013201D01*
X98064838Y-89385167D01*
X98206883Y-89728943D01*
X98240000Y-89762118D01*
X98240000Y-90564947D01*
X98114833Y-90564838D01*
X98047440Y-90592684D01*
X98047440Y-90375000D01*
X98003162Y-90139683D01*
X97864090Y-89923559D01*
X97651890Y-89778569D01*
X97400000Y-89727560D01*
X95900000Y-89727560D01*
X95664683Y-89771838D01*
X95448559Y-89910910D01*
X95402031Y-89979006D01*
X95259698Y-89836673D01*
X95026309Y-89740000D01*
X94435750Y-89740000D01*
X94277000Y-89898750D01*
X94277000Y-90873000D01*
X94297000Y-90873000D01*
X94297000Y-91127000D01*
X94277000Y-91127000D01*
X94277000Y-91147000D01*
X94023000Y-91147000D01*
X94023000Y-91127000D01*
X92923750Y-91127000D01*
X92765000Y-91285750D01*
X92765000Y-91440000D01*
X86000000Y-91440000D01*
X85709161Y-91497852D01*
X85462599Y-91662599D01*
X83960000Y-93165198D01*
X83960000Y-90248690D01*
X92765000Y-90248690D01*
X92765000Y-90714250D01*
X92923750Y-90873000D01*
X94023000Y-90873000D01*
X94023000Y-89898750D01*
X93864250Y-89740000D01*
X93273691Y-89740000D01*
X93040302Y-89836673D01*
X92861673Y-90015301D01*
X92765000Y-90248690D01*
X83960000Y-90248690D01*
X83960000Y-90155047D01*
X84124943Y-90086894D01*
X84585278Y-89627363D01*
X84834716Y-89026648D01*
X84835284Y-88376205D01*
X84828535Y-88359871D01*
X84980000Y-88390000D01*
X87180000Y-88390000D01*
X87470839Y-88332148D01*
X87717401Y-88167401D01*
X88574855Y-87309947D01*
X88760000Y-87347440D01*
X90660000Y-87347440D01*
X90895317Y-87303162D01*
X91111441Y-87164090D01*
X91112560Y-87162452D01*
X91112560Y-87650000D01*
X91156838Y-87885317D01*
X91295910Y-88101441D01*
X91508110Y-88246431D01*
X91760000Y-88297440D01*
X93660000Y-88297440D01*
X93895317Y-88253162D01*
X94111441Y-88114090D01*
X94182563Y-88010000D01*
X99287537Y-88010000D01*
X99319673Y-88042192D01*
X99663201Y-88184838D01*
X100035167Y-88185162D01*
X100378943Y-88043117D01*
X100642192Y-87780327D01*
X100784838Y-87436799D01*
X100785162Y-87064833D01*
X100643117Y-86721057D01*
X100380327Y-86457808D01*
X100036799Y-86315162D01*
X99664833Y-86314838D01*
X99321057Y-86456883D01*
X99287882Y-86490000D01*
X94182931Y-86490000D01*
X94124090Y-86398559D01*
X93978917Y-86299367D01*
X94111441Y-86214090D01*
X94182563Y-86110000D01*
X95752000Y-86110000D01*
X96042839Y-86052148D01*
X96289401Y-85887401D01*
X97138072Y-85038730D01*
X97146838Y-85085317D01*
X97285910Y-85301441D01*
X97498110Y-85446431D01*
X97750000Y-85497440D01*
X99050000Y-85497440D01*
X99285317Y-85453162D01*
X99501441Y-85314090D01*
X99557395Y-85232198D01*
X99662598Y-85337401D01*
X99814436Y-85438855D01*
X99909161Y-85502148D01*
X100200000Y-85560000D01*
X102650000Y-85560000D01*
X102940839Y-85502148D01*
X103187401Y-85337401D01*
X103208159Y-85316643D01*
X103398110Y-85446431D01*
X103650000Y-85497440D01*
X104450000Y-85497440D01*
X104685317Y-85453162D01*
X104901441Y-85314090D01*
X105046431Y-85101890D01*
X105097440Y-84850000D01*
X105097440Y-84472242D01*
X108262599Y-87637401D01*
X108262599Y-87637401D01*
G37*
X108262599Y-87637401D02*
X108509160Y-87802148D01*
X108800000Y-87860000D01*
X109894895Y-87860000D01*
X109985910Y-88001441D01*
X110198110Y-88146431D01*
X110450000Y-88197440D01*
X112350000Y-88197440D01*
X112585317Y-88153162D01*
X112801441Y-88014090D01*
X112946431Y-87801890D01*
X112997440Y-87550000D01*
X112997440Y-87059319D01*
X113198110Y-87196431D01*
X113450000Y-87247440D01*
X115350000Y-87247440D01*
X115585317Y-87203162D01*
X115692596Y-87134130D01*
X115735910Y-87201441D01*
X115948110Y-87346431D01*
X116200000Y-87397440D01*
X117700000Y-87397440D01*
X117935317Y-87353162D01*
X118151441Y-87214090D01*
X118296431Y-87001890D01*
X118299081Y-86988803D01*
X118435910Y-87201441D01*
X118648110Y-87346431D01*
X118900000Y-87397440D01*
X120400000Y-87397440D01*
X120635317Y-87353162D01*
X120851441Y-87214090D01*
X120973808Y-87035000D01*
X121212710Y-87035000D01*
X121265000Y-87087290D01*
X121265000Y-88802560D01*
X120600000Y-88802560D01*
X120364683Y-88846838D01*
X120200507Y-88952482D01*
X120159698Y-88911673D01*
X119926309Y-88815000D01*
X118485750Y-88815000D01*
X118327000Y-88973750D01*
X118327000Y-90073000D01*
X118347000Y-90073000D01*
X118347000Y-90327000D01*
X118327000Y-90327000D01*
X118327000Y-91426250D01*
X118485750Y-91585000D01*
X119926309Y-91585000D01*
X120159698Y-91488327D01*
X120201660Y-91446366D01*
X120348110Y-91546431D01*
X120600000Y-91597440D01*
X121265000Y-91597440D01*
X121265000Y-91612710D01*
X120038855Y-92838855D01*
X119836173Y-93142191D01*
X119765000Y-93500000D01*
X119765000Y-94665000D01*
X119062630Y-94665000D01*
X119053162Y-94614683D01*
X118947518Y-94450508D01*
X118988327Y-94409699D01*
X119085000Y-94176310D01*
X119085000Y-93585750D01*
X118926250Y-93427000D01*
X117577000Y-93427000D01*
X117577000Y-93447000D01*
X117323000Y-93447000D01*
X117323000Y-93427000D01*
X115973750Y-93427000D01*
X115815000Y-93585750D01*
X115815000Y-94176310D01*
X115911673Y-94409699D01*
X115953634Y-94451660D01*
X115853569Y-94598110D01*
X115802560Y-94850000D01*
X115802560Y-96350000D01*
X115846838Y-96585317D01*
X115953759Y-96751477D01*
X115876192Y-96865000D01*
X115597440Y-96865000D01*
X115597440Y-96200000D01*
X115553162Y-95964683D01*
X115447518Y-95800507D01*
X115488327Y-95759698D01*
X115585000Y-95526309D01*
X115585000Y-94085750D01*
X115426250Y-93927000D01*
X114327000Y-93927000D01*
X114327000Y-93947000D01*
X114073000Y-93947000D01*
X114073000Y-93927000D01*
X112973750Y-93927000D01*
X112815000Y-94085750D01*
X112815000Y-95526309D01*
X112911673Y-95759698D01*
X112953634Y-95801660D01*
X112853569Y-95948110D01*
X112802560Y-96200000D01*
X112802560Y-98940000D01*
X112614802Y-98940000D01*
X108137401Y-94462599D01*
X107890839Y-94297852D01*
X107600000Y-94240000D01*
X106771223Y-94240000D01*
X106834838Y-94086799D01*
X106835162Y-93714833D01*
X106693117Y-93371057D01*
X106430327Y-93107808D01*
X106086799Y-92965162D01*
X105714833Y-92964838D01*
X105371057Y-93106883D01*
X105337882Y-93140000D01*
X100100000Y-93140000D01*
X99809161Y-93197852D01*
X99562599Y-93362599D01*
X99122440Y-93802758D01*
X99122440Y-92852362D01*
X99537401Y-92437401D01*
X99702148Y-92190839D01*
X99713172Y-92135418D01*
X99869673Y-92292192D01*
X100213201Y-92434838D01*
X100585167Y-92435162D01*
X100928943Y-92293117D01*
X100962118Y-92260000D01*
X101100000Y-92260000D01*
X101390839Y-92202148D01*
X101637401Y-92037401D01*
X102414802Y-91260000D01*
X103123258Y-91260000D01*
X103146838Y-91385317D01*
X103285910Y-91601441D01*
X103498110Y-91746431D01*
X103750000Y-91797440D01*
X105250000Y-91797440D01*
X105485317Y-91753162D01*
X105701441Y-91614090D01*
X105846431Y-91401890D01*
X105849081Y-91388803D01*
X105985910Y-91601441D01*
X106198110Y-91746431D01*
X106450000Y-91797440D01*
X107950000Y-91797440D01*
X108185317Y-91753162D01*
X108401441Y-91614090D01*
X108546431Y-91401890D01*
X108554669Y-91361209D01*
X108596838Y-91585317D01*
X108735910Y-91801441D01*
X108948110Y-91946431D01*
X109200000Y-91997440D01*
X111200000Y-91997440D01*
X111435317Y-91953162D01*
X111651441Y-91814090D01*
X111796431Y-91601890D01*
X111847440Y-91350000D01*
X111847440Y-90785750D01*
X112565000Y-90785750D01*
X112565000Y-91476310D01*
X112661673Y-91709699D01*
X112840302Y-91888327D01*
X112884242Y-91906527D01*
X112815000Y-92073691D01*
X112815000Y-93514250D01*
X112973750Y-93673000D01*
X114073000Y-93673000D01*
X114073000Y-90627000D01*
X114327000Y-90627000D01*
X114327000Y-93673000D01*
X115426250Y-93673000D01*
X115585000Y-93514250D01*
X115585000Y-92423690D01*
X115815000Y-92423690D01*
X115815000Y-93014250D01*
X115973750Y-93173000D01*
X117323000Y-93173000D01*
X117323000Y-92073750D01*
X117577000Y-92073750D01*
X117577000Y-93173000D01*
X118926250Y-93173000D01*
X119085000Y-93014250D01*
X119085000Y-92423690D01*
X118988327Y-92190301D01*
X118809698Y-92011673D01*
X118576309Y-91915000D01*
X117735750Y-91915000D01*
X117577000Y-92073750D01*
X117323000Y-92073750D01*
X117164250Y-91915000D01*
X116323691Y-91915000D01*
X116090302Y-92011673D01*
X115911673Y-92190301D01*
X115815000Y-92423690D01*
X115585000Y-92423690D01*
X115585000Y-92073691D01*
X115515758Y-91906527D01*
X115559698Y-91888327D01*
X115738327Y-91709699D01*
X115835000Y-91476310D01*
X115835000Y-90785750D01*
X115676250Y-90627000D01*
X114327000Y-90627000D01*
X114073000Y-90627000D01*
X112723750Y-90627000D01*
X112565000Y-90785750D01*
X111847440Y-90785750D01*
X111847440Y-90485750D01*
X115965000Y-90485750D01*
X115965000Y-91076310D01*
X116061673Y-91309699D01*
X116240302Y-91488327D01*
X116473691Y-91585000D01*
X117914250Y-91585000D01*
X118073000Y-91426250D01*
X118073000Y-90327000D01*
X116123750Y-90327000D01*
X115965000Y-90485750D01*
X111847440Y-90485750D01*
X111847440Y-89650000D01*
X111823674Y-89523690D01*
X112565000Y-89523690D01*
X112565000Y-90214250D01*
X112723750Y-90373000D01*
X114073000Y-90373000D01*
X114073000Y-89173750D01*
X114327000Y-89173750D01*
X114327000Y-90373000D01*
X115676250Y-90373000D01*
X115835000Y-90214250D01*
X115835000Y-89523690D01*
X115752158Y-89323690D01*
X115965000Y-89323690D01*
X115965000Y-89914250D01*
X116123750Y-90073000D01*
X118073000Y-90073000D01*
X118073000Y-88973750D01*
X117914250Y-88815000D01*
X116473691Y-88815000D01*
X116240302Y-88911673D01*
X116061673Y-89090301D01*
X115965000Y-89323690D01*
X115752158Y-89323690D01*
X115738327Y-89290301D01*
X115559698Y-89111673D01*
X115326309Y-89015000D01*
X114485750Y-89015000D01*
X114327000Y-89173750D01*
X114073000Y-89173750D01*
X113914250Y-89015000D01*
X113073691Y-89015000D01*
X112840302Y-89111673D01*
X112661673Y-89290301D01*
X112565000Y-89523690D01*
X111823674Y-89523690D01*
X111803162Y-89414683D01*
X111664090Y-89198559D01*
X111451890Y-89053569D01*
X111200000Y-89002560D01*
X109200000Y-89002560D01*
X108964683Y-89046838D01*
X108748559Y-89185910D01*
X108603569Y-89398110D01*
X108556317Y-89631449D01*
X108553162Y-89614683D01*
X108414090Y-89398559D01*
X108201890Y-89253569D01*
X107950000Y-89202560D01*
X106450000Y-89202560D01*
X106214683Y-89246838D01*
X105998559Y-89385910D01*
X105853569Y-89598110D01*
X105850919Y-89611197D01*
X105714090Y-89398559D01*
X105501890Y-89253569D01*
X105250000Y-89202560D01*
X103750000Y-89202560D01*
X103514683Y-89246838D01*
X103298559Y-89385910D01*
X103153569Y-89598110D01*
X103124836Y-89740000D01*
X102100000Y-89740000D01*
X101809161Y-89797852D01*
X101562599Y-89962599D01*
X100850526Y-90674672D01*
X100586799Y-90565162D01*
X100214833Y-90564838D01*
X99871057Y-90706883D01*
X99760000Y-90817746D01*
X99760000Y-89762463D01*
X99792192Y-89730327D01*
X99934838Y-89386799D01*
X99935162Y-89014833D01*
X99793117Y-88671057D01*
X99530327Y-88407808D01*
X99186799Y-88265162D01*
X98814833Y-88264838D01*
X98471057Y-88406883D01*
X98207808Y-88669673D01*
X98065162Y-89013201D01*
X98064838Y-89385167D01*
X98206883Y-89728943D01*
X98240000Y-89762118D01*
X98240000Y-90564947D01*
X98114833Y-90564838D01*
X98047440Y-90592684D01*
X98047440Y-90375000D01*
X98003162Y-90139683D01*
X97864090Y-89923559D01*
X97651890Y-89778569D01*
X97400000Y-89727560D01*
X95900000Y-89727560D01*
X95664683Y-89771838D01*
X95448559Y-89910910D01*
X95402031Y-89979006D01*
X95259698Y-89836673D01*
X95026309Y-89740000D01*
X94435750Y-89740000D01*
X94277000Y-89898750D01*
X94277000Y-90873000D01*
X94297000Y-90873000D01*
X94297000Y-91127000D01*
X94277000Y-91127000D01*
X94277000Y-91147000D01*
X94023000Y-91147000D01*
X94023000Y-91127000D01*
X92923750Y-91127000D01*
X92765000Y-91285750D01*
X92765000Y-91440000D01*
X86000000Y-91440000D01*
X85709161Y-91497852D01*
X85462599Y-91662599D01*
X83960000Y-93165198D01*
X83960000Y-90248690D01*
X92765000Y-90248690D01*
X92765000Y-90714250D01*
X92923750Y-90873000D01*
X94023000Y-90873000D01*
X94023000Y-89898750D01*
X93864250Y-89740000D01*
X93273691Y-89740000D01*
X93040302Y-89836673D01*
X92861673Y-90015301D01*
X92765000Y-90248690D01*
X83960000Y-90248690D01*
X83960000Y-90155047D01*
X84124943Y-90086894D01*
X84585278Y-89627363D01*
X84834716Y-89026648D01*
X84835284Y-88376205D01*
X84828535Y-88359871D01*
X84980000Y-88390000D01*
X87180000Y-88390000D01*
X87470839Y-88332148D01*
X87717401Y-88167401D01*
X88574855Y-87309947D01*
X88760000Y-87347440D01*
X90660000Y-87347440D01*
X90895317Y-87303162D01*
X91111441Y-87164090D01*
X91112560Y-87162452D01*
X91112560Y-87650000D01*
X91156838Y-87885317D01*
X91295910Y-88101441D01*
X91508110Y-88246431D01*
X91760000Y-88297440D01*
X93660000Y-88297440D01*
X93895317Y-88253162D01*
X94111441Y-88114090D01*
X94182563Y-88010000D01*
X99287537Y-88010000D01*
X99319673Y-88042192D01*
X99663201Y-88184838D01*
X100035167Y-88185162D01*
X100378943Y-88043117D01*
X100642192Y-87780327D01*
X100784838Y-87436799D01*
X100785162Y-87064833D01*
X100643117Y-86721057D01*
X100380327Y-86457808D01*
X100036799Y-86315162D01*
X99664833Y-86314838D01*
X99321057Y-86456883D01*
X99287882Y-86490000D01*
X94182931Y-86490000D01*
X94124090Y-86398559D01*
X93978917Y-86299367D01*
X94111441Y-86214090D01*
X94182563Y-86110000D01*
X95752000Y-86110000D01*
X96042839Y-86052148D01*
X96289401Y-85887401D01*
X97138072Y-85038730D01*
X97146838Y-85085317D01*
X97285910Y-85301441D01*
X97498110Y-85446431D01*
X97750000Y-85497440D01*
X99050000Y-85497440D01*
X99285317Y-85453162D01*
X99501441Y-85314090D01*
X99557395Y-85232198D01*
X99662598Y-85337401D01*
X99814436Y-85438855D01*
X99909161Y-85502148D01*
X100200000Y-85560000D01*
X102650000Y-85560000D01*
X102940839Y-85502148D01*
X103187401Y-85337401D01*
X103208159Y-85316643D01*
X103398110Y-85446431D01*
X103650000Y-85497440D01*
X104450000Y-85497440D01*
X104685317Y-85453162D01*
X104901441Y-85314090D01*
X105046431Y-85101890D01*
X105097440Y-84850000D01*
X105097440Y-84472242D01*
X108262599Y-87637401D01*
G36*
X115488748Y-80468858D02*
X115474605Y-80483000D01*
X116073186Y-81081581D01*
X116122718Y-81201458D01*
X116356447Y-81435595D01*
X116247405Y-81544447D01*
X116015337Y-81311974D01*
X115893975Y-81261580D01*
X115295000Y-80662605D01*
X115280858Y-80676748D01*
X115101253Y-80497143D01*
X115115395Y-80483000D01*
X115101253Y-80468858D01*
X115280858Y-80289253D01*
X115295000Y-80303395D01*
X115309143Y-80289253D01*
X115488748Y-80468858D01*
X115488748Y-80468858D01*
G37*
X115488748Y-80468858D02*
X115474605Y-80483000D01*
X116073186Y-81081581D01*
X116122718Y-81201458D01*
X116356447Y-81435595D01*
X116247405Y-81544447D01*
X116015337Y-81311974D01*
X115893975Y-81261580D01*
X115295000Y-80662605D01*
X115280858Y-80676748D01*
X115101253Y-80497143D01*
X115115395Y-80483000D01*
X115101253Y-80468858D01*
X115280858Y-80289253D01*
X115295000Y-80303395D01*
X115309143Y-80289253D01*
X115488748Y-80468858D01*
G36*
X86278910Y-79006441D02*
X86491110Y-79151431D01*
X86570487Y-79167505D01*
X86639173Y-79512809D01*
X86654414Y-79535619D01*
X86550405Y-79639447D01*
X86318337Y-79406974D01*
X85851727Y-79213221D01*
X85346490Y-79212780D01*
X84879542Y-79405718D01*
X84521974Y-79762663D01*
X84471580Y-79884025D01*
X83872605Y-80483000D01*
X84471186Y-81081581D01*
X84520718Y-81201458D01*
X84754447Y-81435595D01*
X84645405Y-81544447D01*
X84413337Y-81311974D01*
X84291975Y-81261580D01*
X83693000Y-80662605D01*
X83678858Y-80676748D01*
X83499253Y-80497143D01*
X83513395Y-80483000D01*
X83499253Y-80468858D01*
X83678858Y-80289253D01*
X83693000Y-80303395D01*
X84401528Y-79594867D01*
X84347697Y-79365821D01*
X84239757Y-79328398D01*
X84323920Y-79202440D01*
X84453000Y-79202440D01*
X84688317Y-79158162D01*
X84904441Y-79019090D01*
X85008360Y-78867000D01*
X86189182Y-78867000D01*
X86278910Y-79006441D01*
X86278910Y-79006441D01*
G37*
X86278910Y-79006441D02*
X86491110Y-79151431D01*
X86570487Y-79167505D01*
X86639173Y-79512809D01*
X86654414Y-79535619D01*
X86550405Y-79639447D01*
X86318337Y-79406974D01*
X85851727Y-79213221D01*
X85346490Y-79212780D01*
X84879542Y-79405718D01*
X84521974Y-79762663D01*
X84471580Y-79884025D01*
X83872605Y-80483000D01*
X84471186Y-81081581D01*
X84520718Y-81201458D01*
X84754447Y-81435595D01*
X84645405Y-81544447D01*
X84413337Y-81311974D01*
X84291975Y-81261580D01*
X83693000Y-80662605D01*
X83678858Y-80676748D01*
X83499253Y-80497143D01*
X83513395Y-80483000D01*
X83499253Y-80468858D01*
X83678858Y-80289253D01*
X83693000Y-80303395D01*
X84401528Y-79594867D01*
X84347697Y-79365821D01*
X84239757Y-79328398D01*
X84323920Y-79202440D01*
X84453000Y-79202440D01*
X84688317Y-79158162D01*
X84904441Y-79019090D01*
X85008360Y-78867000D01*
X86189182Y-78867000D01*
X86278910Y-79006441D01*
M02*
