G04 #@! TF.FileFunction,Legend,Top*
%FSLAX46Y46*%
G04 Gerber Fmt 4.6, Leading zero omitted, Abs format (unit mm)*
G04 Created by KiCad (PCBNEW 4.0.7-e2-6376~58~ubuntu17.04.1) date Sat Dec 30 23:45:55 2017*
%MOMM*%
%LPD*%
G01*
G04 APERTURE LIST*
%ADD10C,0.100000*%
%ADD11C,0.300000*%
%ADD12C,0.150000*%
%ADD13C,0.120000*%
%ADD14C,0.203200*%
G04 APERTURE END LIST*
D10*
D11*
X112578572Y-103703571D02*
X112578572Y-102203571D01*
X113435715Y-103703571D01*
X113435715Y-102203571D01*
X114792858Y-102703571D02*
X114792858Y-103703571D01*
X114150001Y-102703571D02*
X114150001Y-103489286D01*
X114221429Y-103632143D01*
X114364287Y-103703571D01*
X114578572Y-103703571D01*
X114721429Y-103632143D01*
X114792858Y-103560714D01*
X115507144Y-102703571D02*
X115507144Y-103703571D01*
X115507144Y-102846429D02*
X115578572Y-102775000D01*
X115721430Y-102703571D01*
X115935715Y-102703571D01*
X116078572Y-102775000D01*
X116150001Y-102917857D01*
X116150001Y-103703571D01*
X117507144Y-103632143D02*
X117364287Y-103703571D01*
X117078573Y-103703571D01*
X116935715Y-103632143D01*
X116864287Y-103560714D01*
X116792858Y-103417857D01*
X116792858Y-102989286D01*
X116864287Y-102846429D01*
X116935715Y-102775000D01*
X117078573Y-102703571D01*
X117364287Y-102703571D01*
X117507144Y-102775000D01*
X118150001Y-103703571D02*
X118150001Y-102203571D01*
X118792858Y-103703571D02*
X118792858Y-102917857D01*
X118721429Y-102775000D01*
X118578572Y-102703571D01*
X118364287Y-102703571D01*
X118221429Y-102775000D01*
X118150001Y-102846429D01*
X120150001Y-102703571D02*
X120150001Y-103703571D01*
X119507144Y-102703571D02*
X119507144Y-103489286D01*
X119578572Y-103632143D01*
X119721430Y-103703571D01*
X119935715Y-103703571D01*
X120078572Y-103632143D01*
X120150001Y-103560714D01*
X120864287Y-103703571D02*
X120864287Y-102203571D01*
X121007144Y-103132143D02*
X121435715Y-103703571D01*
X121435715Y-102703571D02*
X120864287Y-103275000D01*
X122721430Y-102203571D02*
X122435716Y-102203571D01*
X122292859Y-102275000D01*
X122221430Y-102346429D01*
X122078573Y-102560714D01*
X122007144Y-102846429D01*
X122007144Y-103417857D01*
X122078573Y-103560714D01*
X122150001Y-103632143D01*
X122292859Y-103703571D01*
X122578573Y-103703571D01*
X122721430Y-103632143D01*
X122792859Y-103560714D01*
X122864287Y-103417857D01*
X122864287Y-103060714D01*
X122792859Y-102917857D01*
X122721430Y-102846429D01*
X122578573Y-102775000D01*
X122292859Y-102775000D01*
X122150001Y-102846429D01*
X122078573Y-102917857D01*
X122007144Y-103060714D01*
X124150001Y-102703571D02*
X124150001Y-103703571D01*
X123792858Y-102132143D02*
X123435715Y-103203571D01*
X124364287Y-103203571D01*
X113971429Y-106825000D02*
X113900001Y-106753571D01*
X113757144Y-106539286D01*
X113685715Y-106396429D01*
X113614286Y-106182143D01*
X113542858Y-105825000D01*
X113542858Y-105539286D01*
X113614286Y-105182143D01*
X113685715Y-104967857D01*
X113757144Y-104825000D01*
X113900001Y-104610714D01*
X113971429Y-104539286D01*
X115185715Y-106182143D02*
X115042858Y-106253571D01*
X114757144Y-106253571D01*
X114614286Y-106182143D01*
X114542858Y-106110714D01*
X114471429Y-105967857D01*
X114471429Y-105539286D01*
X114542858Y-105396429D01*
X114614286Y-105325000D01*
X114757144Y-105253571D01*
X115042858Y-105253571D01*
X115185715Y-105325000D01*
X115685715Y-106825000D02*
X115757143Y-106753571D01*
X115900000Y-106539286D01*
X115971429Y-106396429D01*
X116042858Y-106182143D01*
X116114286Y-105825000D01*
X116114286Y-105539286D01*
X116042858Y-105182143D01*
X115971429Y-104967857D01*
X115900000Y-104825000D01*
X115757143Y-104610714D01*
X115685715Y-104539286D01*
X117757143Y-104753571D02*
X118614286Y-104753571D01*
X118185715Y-106253571D02*
X118185715Y-104753571D01*
X119757143Y-105253571D02*
X119757143Y-106253571D01*
X119114286Y-105253571D02*
X119114286Y-106039286D01*
X119185714Y-106182143D01*
X119328572Y-106253571D01*
X119542857Y-106253571D01*
X119685714Y-106182143D01*
X119757143Y-106110714D01*
X120685715Y-106253571D02*
X120542857Y-106182143D01*
X120471429Y-106039286D01*
X120471429Y-104753571D01*
X121900000Y-106253571D02*
X121900000Y-105467857D01*
X121828571Y-105325000D01*
X121685714Y-105253571D01*
X121400000Y-105253571D01*
X121257143Y-105325000D01*
X121900000Y-106182143D02*
X121757143Y-106253571D01*
X121400000Y-106253571D01*
X121257143Y-106182143D01*
X121185714Y-106039286D01*
X121185714Y-105896429D01*
X121257143Y-105753571D01*
X121400000Y-105682143D01*
X121757143Y-105682143D01*
X121900000Y-105610714D01*
X122614286Y-105253571D02*
X122614286Y-106253571D01*
X122614286Y-105396429D02*
X122685714Y-105325000D01*
X122828572Y-105253571D01*
X123042857Y-105253571D01*
X123185714Y-105325000D01*
X123257143Y-105467857D01*
X123257143Y-106253571D01*
D12*
X110850000Y-72228000D02*
X110850000Y-69942000D01*
X110850000Y-69942000D02*
X123550000Y-69942000D01*
X123550000Y-69942000D02*
X123550000Y-72228000D01*
X123550000Y-77562000D02*
X123550000Y-76292000D01*
X110850000Y-77562000D02*
X110850000Y-76292000D01*
X110850000Y-83658000D02*
X110850000Y-81626000D01*
X123550000Y-83658000D02*
X123550000Y-81626000D01*
X123550000Y-83658000D02*
X110850000Y-83658000D01*
X99025000Y-94175000D02*
X98800000Y-94175000D01*
X99025000Y-101425000D02*
X98700000Y-101425000D01*
X91775000Y-101425000D02*
X92100000Y-101425000D01*
X91775000Y-94175000D02*
X92100000Y-94175000D01*
X99025000Y-94175000D02*
X99025000Y-94500000D01*
X91775000Y-94175000D02*
X91775000Y-94500000D01*
X91775000Y-101425000D02*
X91775000Y-101100000D01*
X99025000Y-101425000D02*
X99025000Y-101100000D01*
X98800000Y-94175000D02*
X98800000Y-92750000D01*
D13*
X92123333Y-113340000D02*
X92123333Y-109600000D01*
X92123333Y-109600000D02*
X78676667Y-109600000D01*
X78676667Y-109600000D02*
X78676667Y-113340000D01*
X92363333Y-111600000D02*
X92363333Y-109360000D01*
X92363333Y-109360000D02*
X88170000Y-109360000D01*
X124123333Y-113340000D02*
X124123333Y-109600000D01*
X124123333Y-109600000D02*
X110676667Y-109600000D01*
X110676667Y-109600000D02*
X110676667Y-113340000D01*
X124363333Y-111600000D02*
X124363333Y-109360000D01*
X124363333Y-109360000D02*
X120170000Y-109360000D01*
D12*
X79250000Y-72228000D02*
X79250000Y-69942000D01*
X79250000Y-69942000D02*
X91950000Y-69942000D01*
X91950000Y-69942000D02*
X91950000Y-72228000D01*
X91950000Y-77562000D02*
X91950000Y-76292000D01*
X79250000Y-77562000D02*
X79250000Y-76292000D01*
X79250000Y-83658000D02*
X79250000Y-81626000D01*
X91950000Y-83658000D02*
X91950000Y-81626000D01*
X91950000Y-83658000D02*
X79250000Y-83658000D01*
D13*
X89040000Y-84720000D02*
X89040000Y-85650000D01*
X89040000Y-87880000D02*
X89040000Y-86950000D01*
X89040000Y-87880000D02*
X91200000Y-87880000D01*
X89040000Y-84720000D02*
X90500000Y-84720000D01*
X113660000Y-87780000D02*
X113660000Y-86850000D01*
X113660000Y-84620000D02*
X113660000Y-85550000D01*
X113660000Y-84620000D02*
X111500000Y-84620000D01*
X113660000Y-87780000D02*
X112200000Y-87780000D01*
X101520000Y-76660000D02*
X102450000Y-76660000D01*
X104680000Y-76660000D02*
X103750000Y-76660000D01*
X104680000Y-76660000D02*
X104680000Y-74500000D01*
X101520000Y-76660000D02*
X101520000Y-75200000D01*
X104680000Y-81640000D02*
X103750000Y-81640000D01*
X101520000Y-81640000D02*
X102450000Y-81640000D01*
X101520000Y-81640000D02*
X101520000Y-83800000D01*
X104680000Y-81640000D02*
X104680000Y-83100000D01*
X122510000Y-99010000D02*
X122510000Y-97750000D01*
X122510000Y-92190000D02*
X122510000Y-93450000D01*
X118750000Y-99010000D02*
X122510000Y-99010000D01*
X116500000Y-92190000D02*
X122510000Y-92190000D01*
X108920000Y-105600000D02*
X108920000Y-104400000D01*
X110680000Y-104400000D02*
X110680000Y-105600000D01*
X106720000Y-105600000D02*
X106720000Y-104400000D01*
X108480000Y-104400000D02*
X108480000Y-105600000D01*
X81320000Y-105400000D02*
X81320000Y-104200000D01*
X83080000Y-104200000D02*
X83080000Y-105400000D01*
X78920000Y-105400000D02*
X78920000Y-104200000D01*
X80680000Y-104200000D02*
X80680000Y-105400000D01*
X112720000Y-94800000D02*
X112720000Y-96800000D01*
X115680000Y-96800000D02*
X115680000Y-94800000D01*
X119200000Y-91680000D02*
X121200000Y-91680000D01*
X121200000Y-88720000D02*
X119200000Y-88720000D01*
X94900000Y-91850000D02*
X95900000Y-91850000D01*
X95900000Y-90150000D02*
X94900000Y-90150000D01*
X96900000Y-103750000D02*
X95900000Y-103750000D01*
X95900000Y-105450000D02*
X96900000Y-105450000D01*
X84300000Y-85420000D02*
X85500000Y-85420000D01*
X85500000Y-87180000D02*
X84300000Y-87180000D01*
X117700000Y-85220000D02*
X118900000Y-85220000D01*
X118900000Y-86980000D02*
X117700000Y-86980000D01*
X99280000Y-75400000D02*
X99280000Y-76600000D01*
X97520000Y-76600000D02*
X97520000Y-75400000D01*
X97520000Y-83350000D02*
X97520000Y-82150000D01*
X99280000Y-82150000D02*
X99280000Y-83350000D01*
D12*
X96013113Y-112790000D02*
G75*
G03X96013113Y-112790000I-403113J0D01*
G01*
D14*
X103810000Y-112140000D02*
X96190000Y-112140000D01*
X96190000Y-107060000D02*
X103810000Y-107060000D01*
X103810000Y-107060000D02*
X103810000Y-112140000D01*
X96190000Y-112140000D02*
X96190000Y-107060000D01*
D13*
X115300000Y-91450000D02*
X115300000Y-89550000D01*
X115300000Y-89550000D02*
X110600000Y-89550000D01*
X115300000Y-91450000D02*
X110600000Y-91450000D01*
X106450000Y-91380000D02*
X105250000Y-91380000D01*
X105250000Y-89620000D02*
X106450000Y-89620000D01*
X84200000Y-94200000D02*
X84200000Y-89700000D01*
X80200000Y-95450000D02*
X81700000Y-95450000D01*
X77700000Y-89700000D02*
X77700000Y-94200000D01*
X81700000Y-88450000D02*
X80200000Y-88450000D01*
D12*
X108461905Y-83552381D02*
X108461905Y-82552381D01*
X108842858Y-82552381D01*
X108938096Y-82600000D01*
X108985715Y-82647619D01*
X109033334Y-82742857D01*
X109033334Y-82885714D01*
X108985715Y-82980952D01*
X108938096Y-83028571D01*
X108842858Y-83076190D01*
X108461905Y-83076190D01*
X109414286Y-82647619D02*
X109461905Y-82600000D01*
X109557143Y-82552381D01*
X109795239Y-82552381D01*
X109890477Y-82600000D01*
X109938096Y-82647619D01*
X109985715Y-82742857D01*
X109985715Y-82838095D01*
X109938096Y-82980952D01*
X109366667Y-83552381D01*
X109985715Y-83552381D01*
X114609525Y-74657143D02*
X114561906Y-74704762D01*
X114419049Y-74752381D01*
X114323811Y-74752381D01*
X114180953Y-74704762D01*
X114085715Y-74609524D01*
X114038096Y-74514286D01*
X113990477Y-74323810D01*
X113990477Y-74180952D01*
X114038096Y-73990476D01*
X114085715Y-73895238D01*
X114180953Y-73800000D01*
X114323811Y-73752381D01*
X114419049Y-73752381D01*
X114561906Y-73800000D01*
X114609525Y-73847619D01*
X115228572Y-73752381D02*
X115419049Y-73752381D01*
X115514287Y-73800000D01*
X115609525Y-73895238D01*
X115657144Y-74085714D01*
X115657144Y-74419048D01*
X115609525Y-74609524D01*
X115514287Y-74704762D01*
X115419049Y-74752381D01*
X115228572Y-74752381D01*
X115133334Y-74704762D01*
X115038096Y-74609524D01*
X114990477Y-74419048D01*
X114990477Y-74085714D01*
X115038096Y-73895238D01*
X115133334Y-73800000D01*
X115228572Y-73752381D01*
X116085715Y-74752381D02*
X116085715Y-73752381D01*
X116657144Y-74752381D01*
X116657144Y-73752381D01*
X117133334Y-74752381D02*
X117133334Y-73752381D01*
X117704763Y-74752381D01*
X117704763Y-73752381D01*
X117942858Y-74847619D02*
X118704763Y-74847619D01*
X118847620Y-73752381D02*
X119085715Y-74752381D01*
X119276192Y-74038095D01*
X119466668Y-74752381D01*
X119704763Y-73752381D01*
X120085715Y-74752381D02*
X120085715Y-73752381D01*
X120561905Y-74752381D02*
X120561905Y-73752381D01*
X101038095Y-99152381D02*
X101038095Y-99961905D01*
X101085714Y-100057143D01*
X101133333Y-100104762D01*
X101228571Y-100152381D01*
X101419048Y-100152381D01*
X101514286Y-100104762D01*
X101561905Y-100057143D01*
X101609524Y-99961905D01*
X101609524Y-99152381D01*
X102038095Y-99247619D02*
X102085714Y-99200000D01*
X102180952Y-99152381D01*
X102419048Y-99152381D01*
X102514286Y-99200000D01*
X102561905Y-99247619D01*
X102609524Y-99342857D01*
X102609524Y-99438095D01*
X102561905Y-99580952D01*
X101990476Y-100152381D01*
X102609524Y-100152381D01*
X93166667Y-111052381D02*
X93166667Y-111766667D01*
X93119047Y-111909524D01*
X93023809Y-112004762D01*
X92880952Y-112052381D01*
X92785714Y-112052381D01*
X93595238Y-111147619D02*
X93642857Y-111100000D01*
X93738095Y-111052381D01*
X93976191Y-111052381D01*
X94071429Y-111100000D01*
X94119048Y-111147619D01*
X94166667Y-111242857D01*
X94166667Y-111338095D01*
X94119048Y-111480952D01*
X93547619Y-112052381D01*
X94166667Y-112052381D01*
X109066667Y-111152381D02*
X109066667Y-111866667D01*
X109019047Y-112009524D01*
X108923809Y-112104762D01*
X108780952Y-112152381D01*
X108685714Y-112152381D01*
X110066667Y-112152381D02*
X109495238Y-112152381D01*
X109780952Y-112152381D02*
X109780952Y-111152381D01*
X109685714Y-111295238D01*
X109590476Y-111390476D01*
X109495238Y-111438095D01*
X92461905Y-83352381D02*
X92461905Y-82352381D01*
X92842858Y-82352381D01*
X92938096Y-82400000D01*
X92985715Y-82447619D01*
X93033334Y-82542857D01*
X93033334Y-82685714D01*
X92985715Y-82780952D01*
X92938096Y-82828571D01*
X92842858Y-82876190D01*
X92461905Y-82876190D01*
X93985715Y-83352381D02*
X93414286Y-83352381D01*
X93700000Y-83352381D02*
X93700000Y-82352381D01*
X93604762Y-82495238D01*
X93509524Y-82590476D01*
X93414286Y-82638095D01*
X82909525Y-74657143D02*
X82861906Y-74704762D01*
X82719049Y-74752381D01*
X82623811Y-74752381D01*
X82480953Y-74704762D01*
X82385715Y-74609524D01*
X82338096Y-74514286D01*
X82290477Y-74323810D01*
X82290477Y-74180952D01*
X82338096Y-73990476D01*
X82385715Y-73895238D01*
X82480953Y-73800000D01*
X82623811Y-73752381D01*
X82719049Y-73752381D01*
X82861906Y-73800000D01*
X82909525Y-73847619D01*
X83528572Y-73752381D02*
X83719049Y-73752381D01*
X83814287Y-73800000D01*
X83909525Y-73895238D01*
X83957144Y-74085714D01*
X83957144Y-74419048D01*
X83909525Y-74609524D01*
X83814287Y-74704762D01*
X83719049Y-74752381D01*
X83528572Y-74752381D01*
X83433334Y-74704762D01*
X83338096Y-74609524D01*
X83290477Y-74419048D01*
X83290477Y-74085714D01*
X83338096Y-73895238D01*
X83433334Y-73800000D01*
X83528572Y-73752381D01*
X84385715Y-74752381D02*
X84385715Y-73752381D01*
X84957144Y-74752381D01*
X84957144Y-73752381D01*
X85433334Y-74752381D02*
X85433334Y-73752381D01*
X86004763Y-74752381D01*
X86004763Y-73752381D01*
X86242858Y-74847619D02*
X87004763Y-74847619D01*
X87147620Y-73752381D02*
X87385715Y-74752381D01*
X87576192Y-74038095D01*
X87766668Y-74752381D01*
X88004763Y-73752381D01*
X88385715Y-74752381D02*
X88385715Y-73752381D01*
X88861905Y-74752381D02*
X88861905Y-73752381D01*
X89704762Y-89347619D02*
X89609524Y-89300000D01*
X89514286Y-89204762D01*
X89371429Y-89061905D01*
X89276190Y-89014286D01*
X89180952Y-89014286D01*
X89228571Y-89252381D02*
X89133333Y-89204762D01*
X89038095Y-89109524D01*
X88990476Y-88919048D01*
X88990476Y-88585714D01*
X89038095Y-88395238D01*
X89133333Y-88300000D01*
X89228571Y-88252381D01*
X89419048Y-88252381D01*
X89514286Y-88300000D01*
X89609524Y-88395238D01*
X89657143Y-88585714D01*
X89657143Y-88919048D01*
X89609524Y-89109524D01*
X89514286Y-89204762D01*
X89419048Y-89252381D01*
X89228571Y-89252381D01*
X90609524Y-89252381D02*
X90038095Y-89252381D01*
X90323809Y-89252381D02*
X90323809Y-88252381D01*
X90228571Y-88395238D01*
X90133333Y-88490476D01*
X90038095Y-88538095D01*
X110404762Y-86747619D02*
X110309524Y-86700000D01*
X110214286Y-86604762D01*
X110071429Y-86461905D01*
X109976190Y-86414286D01*
X109880952Y-86414286D01*
X109928571Y-86652381D02*
X109833333Y-86604762D01*
X109738095Y-86509524D01*
X109690476Y-86319048D01*
X109690476Y-85985714D01*
X109738095Y-85795238D01*
X109833333Y-85700000D01*
X109928571Y-85652381D01*
X110119048Y-85652381D01*
X110214286Y-85700000D01*
X110309524Y-85795238D01*
X110357143Y-85985714D01*
X110357143Y-86319048D01*
X110309524Y-86509524D01*
X110214286Y-86604762D01*
X110119048Y-86652381D01*
X109928571Y-86652381D01*
X110738095Y-85747619D02*
X110785714Y-85700000D01*
X110880952Y-85652381D01*
X111119048Y-85652381D01*
X111214286Y-85700000D01*
X111261905Y-85747619D01*
X111309524Y-85842857D01*
X111309524Y-85938095D01*
X111261905Y-86080952D01*
X110690476Y-86652381D01*
X111309524Y-86652381D01*
X103204762Y-79047619D02*
X103109524Y-79000000D01*
X103014286Y-78904762D01*
X102871429Y-78761905D01*
X102776190Y-78714286D01*
X102680952Y-78714286D01*
X102728571Y-78952381D02*
X102633333Y-78904762D01*
X102538095Y-78809524D01*
X102490476Y-78619048D01*
X102490476Y-78285714D01*
X102538095Y-78095238D01*
X102633333Y-78000000D01*
X102728571Y-77952381D01*
X102919048Y-77952381D01*
X103014286Y-78000000D01*
X103109524Y-78095238D01*
X103157143Y-78285714D01*
X103157143Y-78619048D01*
X103109524Y-78809524D01*
X103014286Y-78904762D01*
X102919048Y-78952381D01*
X102728571Y-78952381D01*
X103490476Y-77952381D02*
X104109524Y-77952381D01*
X103776190Y-78333333D01*
X103919048Y-78333333D01*
X104014286Y-78380952D01*
X104061905Y-78428571D01*
X104109524Y-78523810D01*
X104109524Y-78761905D01*
X104061905Y-78857143D01*
X104014286Y-78904762D01*
X103919048Y-78952381D01*
X103633333Y-78952381D01*
X103538095Y-78904762D01*
X103490476Y-78857143D01*
X103104762Y-85647619D02*
X103009524Y-85600000D01*
X102914286Y-85504762D01*
X102771429Y-85361905D01*
X102676190Y-85314286D01*
X102580952Y-85314286D01*
X102628571Y-85552381D02*
X102533333Y-85504762D01*
X102438095Y-85409524D01*
X102390476Y-85219048D01*
X102390476Y-84885714D01*
X102438095Y-84695238D01*
X102533333Y-84600000D01*
X102628571Y-84552381D01*
X102819048Y-84552381D01*
X102914286Y-84600000D01*
X103009524Y-84695238D01*
X103057143Y-84885714D01*
X103057143Y-85219048D01*
X103009524Y-85409524D01*
X102914286Y-85504762D01*
X102819048Y-85552381D01*
X102628571Y-85552381D01*
X103914286Y-84885714D02*
X103914286Y-85552381D01*
X103676190Y-84504762D02*
X103438095Y-85219048D01*
X104057143Y-85219048D01*
X120038095Y-99252381D02*
X120038095Y-100061905D01*
X120085714Y-100157143D01*
X120133333Y-100204762D01*
X120228571Y-100252381D01*
X120419048Y-100252381D01*
X120514286Y-100204762D01*
X120561905Y-100157143D01*
X120609524Y-100061905D01*
X120609524Y-99252381D01*
X121609524Y-100252381D02*
X121038095Y-100252381D01*
X121323809Y-100252381D02*
X121323809Y-99252381D01*
X121228571Y-99395238D01*
X121133333Y-99490476D01*
X121038095Y-99538095D01*
X111633334Y-105452381D02*
X111300000Y-104976190D01*
X111061905Y-105452381D02*
X111061905Y-104452381D01*
X111442858Y-104452381D01*
X111538096Y-104500000D01*
X111585715Y-104547619D01*
X111633334Y-104642857D01*
X111633334Y-104785714D01*
X111585715Y-104880952D01*
X111538096Y-104928571D01*
X111442858Y-104976190D01*
X111061905Y-104976190D01*
X112490477Y-104785714D02*
X112490477Y-105452381D01*
X112252381Y-104404762D02*
X112014286Y-105119048D01*
X112633334Y-105119048D01*
X105333334Y-105152381D02*
X105000000Y-104676190D01*
X104761905Y-105152381D02*
X104761905Y-104152381D01*
X105142858Y-104152381D01*
X105238096Y-104200000D01*
X105285715Y-104247619D01*
X105333334Y-104342857D01*
X105333334Y-104485714D01*
X105285715Y-104580952D01*
X105238096Y-104628571D01*
X105142858Y-104676190D01*
X104761905Y-104676190D01*
X106238096Y-104152381D02*
X105761905Y-104152381D01*
X105714286Y-104628571D01*
X105761905Y-104580952D01*
X105857143Y-104533333D01*
X106095239Y-104533333D01*
X106190477Y-104580952D01*
X106238096Y-104628571D01*
X106285715Y-104723810D01*
X106285715Y-104961905D01*
X106238096Y-105057143D01*
X106190477Y-105104762D01*
X106095239Y-105152381D01*
X105857143Y-105152381D01*
X105761905Y-105104762D01*
X105714286Y-105057143D01*
X83833334Y-105252381D02*
X83500000Y-104776190D01*
X83261905Y-105252381D02*
X83261905Y-104252381D01*
X83642858Y-104252381D01*
X83738096Y-104300000D01*
X83785715Y-104347619D01*
X83833334Y-104442857D01*
X83833334Y-104585714D01*
X83785715Y-104680952D01*
X83738096Y-104728571D01*
X83642858Y-104776190D01*
X83261905Y-104776190D01*
X84690477Y-104252381D02*
X84500000Y-104252381D01*
X84404762Y-104300000D01*
X84357143Y-104347619D01*
X84261905Y-104490476D01*
X84214286Y-104680952D01*
X84214286Y-105061905D01*
X84261905Y-105157143D01*
X84309524Y-105204762D01*
X84404762Y-105252381D01*
X84595239Y-105252381D01*
X84690477Y-105204762D01*
X84738096Y-105157143D01*
X84785715Y-105061905D01*
X84785715Y-104823810D01*
X84738096Y-104728571D01*
X84690477Y-104680952D01*
X84595239Y-104633333D01*
X84404762Y-104633333D01*
X84309524Y-104680952D01*
X84261905Y-104728571D01*
X84214286Y-104823810D01*
X77833334Y-105252381D02*
X77500000Y-104776190D01*
X77261905Y-105252381D02*
X77261905Y-104252381D01*
X77642858Y-104252381D01*
X77738096Y-104300000D01*
X77785715Y-104347619D01*
X77833334Y-104442857D01*
X77833334Y-104585714D01*
X77785715Y-104680952D01*
X77738096Y-104728571D01*
X77642858Y-104776190D01*
X77261905Y-104776190D01*
X78166667Y-104252381D02*
X78833334Y-104252381D01*
X78404762Y-105252381D01*
X111633334Y-96257143D02*
X111585715Y-96304762D01*
X111442858Y-96352381D01*
X111347620Y-96352381D01*
X111204762Y-96304762D01*
X111109524Y-96209524D01*
X111061905Y-96114286D01*
X111014286Y-95923810D01*
X111014286Y-95780952D01*
X111061905Y-95590476D01*
X111109524Y-95495238D01*
X111204762Y-95400000D01*
X111347620Y-95352381D01*
X111442858Y-95352381D01*
X111585715Y-95400000D01*
X111633334Y-95447619D01*
X112585715Y-96352381D02*
X112014286Y-96352381D01*
X112300000Y-96352381D02*
X112300000Y-95352381D01*
X112204762Y-95495238D01*
X112109524Y-95590476D01*
X112014286Y-95638095D01*
X124533334Y-90457143D02*
X124485715Y-90504762D01*
X124342858Y-90552381D01*
X124247620Y-90552381D01*
X124104762Y-90504762D01*
X124009524Y-90409524D01*
X123961905Y-90314286D01*
X123914286Y-90123810D01*
X123914286Y-89980952D01*
X123961905Y-89790476D01*
X124009524Y-89695238D01*
X124104762Y-89600000D01*
X124247620Y-89552381D01*
X124342858Y-89552381D01*
X124485715Y-89600000D01*
X124533334Y-89647619D01*
X124914286Y-89647619D02*
X124961905Y-89600000D01*
X125057143Y-89552381D01*
X125295239Y-89552381D01*
X125390477Y-89600000D01*
X125438096Y-89647619D01*
X125485715Y-89742857D01*
X125485715Y-89838095D01*
X125438096Y-89980952D01*
X124866667Y-90552381D01*
X125485715Y-90552381D01*
X95233334Y-89757143D02*
X95185715Y-89804762D01*
X95042858Y-89852381D01*
X94947620Y-89852381D01*
X94804762Y-89804762D01*
X94709524Y-89709524D01*
X94661905Y-89614286D01*
X94614286Y-89423810D01*
X94614286Y-89280952D01*
X94661905Y-89090476D01*
X94709524Y-88995238D01*
X94804762Y-88900000D01*
X94947620Y-88852381D01*
X95042858Y-88852381D01*
X95185715Y-88900000D01*
X95233334Y-88947619D01*
X95566667Y-88852381D02*
X96185715Y-88852381D01*
X95852381Y-89233333D01*
X95995239Y-89233333D01*
X96090477Y-89280952D01*
X96138096Y-89328571D01*
X96185715Y-89423810D01*
X96185715Y-89661905D01*
X96138096Y-89757143D01*
X96090477Y-89804762D01*
X95995239Y-89852381D01*
X95709524Y-89852381D01*
X95614286Y-89804762D01*
X95566667Y-89757143D01*
X92833334Y-105057143D02*
X92785715Y-105104762D01*
X92642858Y-105152381D01*
X92547620Y-105152381D01*
X92404762Y-105104762D01*
X92309524Y-105009524D01*
X92261905Y-104914286D01*
X92214286Y-104723810D01*
X92214286Y-104580952D01*
X92261905Y-104390476D01*
X92309524Y-104295238D01*
X92404762Y-104200000D01*
X92547620Y-104152381D01*
X92642858Y-104152381D01*
X92785715Y-104200000D01*
X92833334Y-104247619D01*
X93690477Y-104485714D02*
X93690477Y-105152381D01*
X93452381Y-104104762D02*
X93214286Y-104819048D01*
X93833334Y-104819048D01*
X84833334Y-88552381D02*
X84500000Y-88076190D01*
X84261905Y-88552381D02*
X84261905Y-87552381D01*
X84642858Y-87552381D01*
X84738096Y-87600000D01*
X84785715Y-87647619D01*
X84833334Y-87742857D01*
X84833334Y-87885714D01*
X84785715Y-87980952D01*
X84738096Y-88028571D01*
X84642858Y-88076190D01*
X84261905Y-88076190D01*
X85785715Y-88552381D02*
X85214286Y-88552381D01*
X85500000Y-88552381D02*
X85500000Y-87552381D01*
X85404762Y-87695238D01*
X85309524Y-87790476D01*
X85214286Y-87838095D01*
X118133334Y-88252381D02*
X117800000Y-87776190D01*
X117561905Y-88252381D02*
X117561905Y-87252381D01*
X117942858Y-87252381D01*
X118038096Y-87300000D01*
X118085715Y-87347619D01*
X118133334Y-87442857D01*
X118133334Y-87585714D01*
X118085715Y-87680952D01*
X118038096Y-87728571D01*
X117942858Y-87776190D01*
X117561905Y-87776190D01*
X118514286Y-87347619D02*
X118561905Y-87300000D01*
X118657143Y-87252381D01*
X118895239Y-87252381D01*
X118990477Y-87300000D01*
X119038096Y-87347619D01*
X119085715Y-87442857D01*
X119085715Y-87538095D01*
X119038096Y-87680952D01*
X118466667Y-88252381D01*
X119085715Y-88252381D01*
X98233334Y-79552381D02*
X97900000Y-79076190D01*
X97661905Y-79552381D02*
X97661905Y-78552381D01*
X98042858Y-78552381D01*
X98138096Y-78600000D01*
X98185715Y-78647619D01*
X98233334Y-78742857D01*
X98233334Y-78885714D01*
X98185715Y-78980952D01*
X98138096Y-79028571D01*
X98042858Y-79076190D01*
X97661905Y-79076190D01*
X98566667Y-78552381D02*
X99185715Y-78552381D01*
X98852381Y-78933333D01*
X98995239Y-78933333D01*
X99090477Y-78980952D01*
X99138096Y-79028571D01*
X99185715Y-79123810D01*
X99185715Y-79361905D01*
X99138096Y-79457143D01*
X99090477Y-79504762D01*
X98995239Y-79552381D01*
X98709524Y-79552381D01*
X98614286Y-79504762D01*
X98566667Y-79457143D01*
X98133334Y-86502381D02*
X97800000Y-86026190D01*
X97561905Y-86502381D02*
X97561905Y-85502381D01*
X97942858Y-85502381D01*
X98038096Y-85550000D01*
X98085715Y-85597619D01*
X98133334Y-85692857D01*
X98133334Y-85835714D01*
X98085715Y-85930952D01*
X98038096Y-85978571D01*
X97942858Y-86026190D01*
X97561905Y-86026190D01*
X98704762Y-85930952D02*
X98609524Y-85883333D01*
X98561905Y-85835714D01*
X98514286Y-85740476D01*
X98514286Y-85692857D01*
X98561905Y-85597619D01*
X98609524Y-85550000D01*
X98704762Y-85502381D01*
X98895239Y-85502381D01*
X98990477Y-85550000D01*
X99038096Y-85597619D01*
X99085715Y-85692857D01*
X99085715Y-85740476D01*
X99038096Y-85835714D01*
X98990477Y-85883333D01*
X98895239Y-85930952D01*
X98704762Y-85930952D01*
X98609524Y-85978571D01*
X98561905Y-86026190D01*
X98514286Y-86121429D01*
X98514286Y-86311905D01*
X98561905Y-86407143D01*
X98609524Y-86454762D01*
X98704762Y-86502381D01*
X98895239Y-86502381D01*
X98990477Y-86454762D01*
X99038096Y-86407143D01*
X99085715Y-86311905D01*
X99085715Y-86121429D01*
X99038096Y-86026190D01*
X98990477Y-85978571D01*
X98895239Y-85930952D01*
D14*
X104461333Y-111143619D02*
X104461333Y-111869333D01*
X104412953Y-112014476D01*
X104316191Y-112111238D01*
X104171048Y-112159619D01*
X104074286Y-112159619D01*
X104848381Y-111143619D02*
X105477333Y-111143619D01*
X105138667Y-111530667D01*
X105283809Y-111530667D01*
X105380571Y-111579048D01*
X105428952Y-111627429D01*
X105477333Y-111724190D01*
X105477333Y-111966095D01*
X105428952Y-112062857D01*
X105380571Y-112111238D01*
X105283809Y-112159619D01*
X104993524Y-112159619D01*
X104896762Y-112111238D01*
X104848381Y-112062857D01*
D12*
X109761905Y-93052381D02*
X109761905Y-92052381D01*
X110000000Y-92052381D01*
X110142858Y-92100000D01*
X110238096Y-92195238D01*
X110285715Y-92290476D01*
X110333334Y-92480952D01*
X110333334Y-92623810D01*
X110285715Y-92814286D01*
X110238096Y-92909524D01*
X110142858Y-93004762D01*
X110000000Y-93052381D01*
X109761905Y-93052381D01*
X111285715Y-93052381D02*
X110714286Y-93052381D01*
X111000000Y-93052381D02*
X111000000Y-92052381D01*
X110904762Y-92195238D01*
X110809524Y-92290476D01*
X110714286Y-92338095D01*
X105683334Y-89252381D02*
X105350000Y-88776190D01*
X105111905Y-89252381D02*
X105111905Y-88252381D01*
X105492858Y-88252381D01*
X105588096Y-88300000D01*
X105635715Y-88347619D01*
X105683334Y-88442857D01*
X105683334Y-88585714D01*
X105635715Y-88680952D01*
X105588096Y-88728571D01*
X105492858Y-88776190D01*
X105111905Y-88776190D01*
X106159524Y-89252381D02*
X106350000Y-89252381D01*
X106445239Y-89204762D01*
X106492858Y-89157143D01*
X106588096Y-89014286D01*
X106635715Y-88823810D01*
X106635715Y-88442857D01*
X106588096Y-88347619D01*
X106540477Y-88300000D01*
X106445239Y-88252381D01*
X106254762Y-88252381D01*
X106159524Y-88300000D01*
X106111905Y-88347619D01*
X106064286Y-88442857D01*
X106064286Y-88680952D01*
X106111905Y-88776190D01*
X106159524Y-88823810D01*
X106254762Y-88871429D01*
X106445239Y-88871429D01*
X106540477Y-88823810D01*
X106588096Y-88776190D01*
X106635715Y-88680952D01*
X79866667Y-98104762D02*
X80009524Y-98152381D01*
X80247620Y-98152381D01*
X80342858Y-98104762D01*
X80390477Y-98057143D01*
X80438096Y-97961905D01*
X80438096Y-97866667D01*
X80390477Y-97771429D01*
X80342858Y-97723810D01*
X80247620Y-97676190D01*
X80057143Y-97628571D01*
X79961905Y-97580952D01*
X79914286Y-97533333D01*
X79866667Y-97438095D01*
X79866667Y-97342857D01*
X79914286Y-97247619D01*
X79961905Y-97200000D01*
X80057143Y-97152381D01*
X80295239Y-97152381D01*
X80438096Y-97200000D01*
X80771429Y-97152381D02*
X81009524Y-98152381D01*
X81200001Y-97438095D01*
X81390477Y-98152381D01*
X81628572Y-97152381D01*
X82533334Y-98152381D02*
X81961905Y-98152381D01*
X82247619Y-98152381D02*
X82247619Y-97152381D01*
X82152381Y-97295238D01*
X82057143Y-97390476D01*
X81961905Y-97438095D01*
M02*
