G04 #@! TF.FileFunction,Legend,Top*
%FSLAX46Y46*%
G04 Gerber Fmt 4.6, Leading zero omitted, Abs format (unit mm)*
G04 Created by KiCad (PCBNEW 4.0.7) date 07/06/18 22:20:39*
%MOMM*%
%LPD*%
G01*
G04 APERTURE LIST*
%ADD10C,0.100000*%
%ADD11C,0.300000*%
%ADD12C,0.250000*%
%ADD13C,0.150000*%
%ADD14C,0.120000*%
%ADD15C,0.203200*%
G04 APERTURE END LIST*
D10*
D11*
X94314287Y-107678571D02*
X93600001Y-107678571D01*
X93528572Y-108392857D01*
X93600001Y-108321429D01*
X93742858Y-108250000D01*
X94100001Y-108250000D01*
X94242858Y-108321429D01*
X94314287Y-108392857D01*
X94385715Y-108535714D01*
X94385715Y-108892857D01*
X94314287Y-109035714D01*
X94242858Y-109107143D01*
X94100001Y-109178571D01*
X93742858Y-109178571D01*
X93600001Y-109107143D01*
X93528572Y-109035714D01*
X94814286Y-107678571D02*
X95314286Y-109178571D01*
X95814286Y-107678571D01*
D12*
X104738096Y-107800000D02*
X104642858Y-107752381D01*
X104500001Y-107752381D01*
X104357143Y-107800000D01*
X104261905Y-107895238D01*
X104214286Y-107990476D01*
X104166667Y-108180952D01*
X104166667Y-108323810D01*
X104214286Y-108514286D01*
X104261905Y-108609524D01*
X104357143Y-108704762D01*
X104500001Y-108752381D01*
X104595239Y-108752381D01*
X104738096Y-108704762D01*
X104785715Y-108657143D01*
X104785715Y-108323810D01*
X104595239Y-108323810D01*
X105214286Y-108752381D02*
X105214286Y-107752381D01*
X105785715Y-108752381D01*
X105785715Y-107752381D01*
X106261905Y-108752381D02*
X106261905Y-107752381D01*
X106500000Y-107752381D01*
X106642858Y-107800000D01*
X106738096Y-107895238D01*
X106785715Y-107990476D01*
X106833334Y-108180952D01*
X106833334Y-108323810D01*
X106785715Y-108514286D01*
X106738096Y-108609524D01*
X106642858Y-108704762D01*
X106500000Y-108752381D01*
X106261905Y-108752381D01*
D11*
X113078572Y-102228571D02*
X113078572Y-100728571D01*
X113935715Y-102228571D01*
X113935715Y-100728571D01*
X115292858Y-101228571D02*
X115292858Y-102228571D01*
X114650001Y-101228571D02*
X114650001Y-102014286D01*
X114721429Y-102157143D01*
X114864287Y-102228571D01*
X115078572Y-102228571D01*
X115221429Y-102157143D01*
X115292858Y-102085714D01*
X116007144Y-101228571D02*
X116007144Y-102228571D01*
X116007144Y-101371429D02*
X116078572Y-101300000D01*
X116221430Y-101228571D01*
X116435715Y-101228571D01*
X116578572Y-101300000D01*
X116650001Y-101442857D01*
X116650001Y-102228571D01*
X118007144Y-102157143D02*
X117864287Y-102228571D01*
X117578573Y-102228571D01*
X117435715Y-102157143D01*
X117364287Y-102085714D01*
X117292858Y-101942857D01*
X117292858Y-101514286D01*
X117364287Y-101371429D01*
X117435715Y-101300000D01*
X117578573Y-101228571D01*
X117864287Y-101228571D01*
X118007144Y-101300000D01*
X118650001Y-102228571D02*
X118650001Y-100728571D01*
X119292858Y-102228571D02*
X119292858Y-101442857D01*
X119221429Y-101300000D01*
X119078572Y-101228571D01*
X118864287Y-101228571D01*
X118721429Y-101300000D01*
X118650001Y-101371429D01*
X120650001Y-101228571D02*
X120650001Y-102228571D01*
X120007144Y-101228571D02*
X120007144Y-102014286D01*
X120078572Y-102157143D01*
X120221430Y-102228571D01*
X120435715Y-102228571D01*
X120578572Y-102157143D01*
X120650001Y-102085714D01*
X121364287Y-102228571D02*
X121364287Y-100728571D01*
X121507144Y-101657143D02*
X121935715Y-102228571D01*
X121935715Y-101228571D02*
X121364287Y-101800000D01*
X123221430Y-100728571D02*
X122935716Y-100728571D01*
X122792859Y-100800000D01*
X122721430Y-100871429D01*
X122578573Y-101085714D01*
X122507144Y-101371429D01*
X122507144Y-101942857D01*
X122578573Y-102085714D01*
X122650001Y-102157143D01*
X122792859Y-102228571D01*
X123078573Y-102228571D01*
X123221430Y-102157143D01*
X123292859Y-102085714D01*
X123364287Y-101942857D01*
X123364287Y-101585714D01*
X123292859Y-101442857D01*
X123221430Y-101371429D01*
X123078573Y-101300000D01*
X122792859Y-101300000D01*
X122650001Y-101371429D01*
X122578573Y-101442857D01*
X122507144Y-101585714D01*
X124650001Y-101228571D02*
X124650001Y-102228571D01*
X124292858Y-100657143D02*
X123935715Y-101728571D01*
X124864287Y-101728571D01*
X115614286Y-103635714D02*
X115471428Y-103564286D01*
X115185714Y-103564286D01*
X115042857Y-103635714D01*
X114900000Y-103778571D01*
X114828571Y-103921429D01*
X114828571Y-104207143D01*
X114900000Y-104350000D01*
X115042857Y-104492857D01*
X115185714Y-104564286D01*
X115471428Y-104564286D01*
X115614286Y-104492857D01*
X115328571Y-103064286D02*
X114971428Y-103135714D01*
X114614286Y-103350000D01*
X114400000Y-103707143D01*
X114328571Y-104064286D01*
X114400000Y-104421429D01*
X114614286Y-104778571D01*
X114971428Y-104992857D01*
X115328571Y-105064286D01*
X115685714Y-104992857D01*
X116042857Y-104778571D01*
X116257143Y-104421429D01*
X116328571Y-104064286D01*
X116257143Y-103707143D01*
X116042857Y-103350000D01*
X115685714Y-103135714D01*
X115328571Y-103064286D01*
X117900000Y-103278571D02*
X118757143Y-103278571D01*
X118328572Y-104778571D02*
X118328572Y-103278571D01*
X119900000Y-103778571D02*
X119900000Y-104778571D01*
X119257143Y-103778571D02*
X119257143Y-104564286D01*
X119328571Y-104707143D01*
X119471429Y-104778571D01*
X119685714Y-104778571D01*
X119828571Y-104707143D01*
X119900000Y-104635714D01*
X120828572Y-104778571D02*
X120685714Y-104707143D01*
X120614286Y-104564286D01*
X120614286Y-103278571D01*
X122042857Y-104778571D02*
X122042857Y-103992857D01*
X121971428Y-103850000D01*
X121828571Y-103778571D01*
X121542857Y-103778571D01*
X121400000Y-103850000D01*
X122042857Y-104707143D02*
X121900000Y-104778571D01*
X121542857Y-104778571D01*
X121400000Y-104707143D01*
X121328571Y-104564286D01*
X121328571Y-104421429D01*
X121400000Y-104278571D01*
X121542857Y-104207143D01*
X121900000Y-104207143D01*
X122042857Y-104135714D01*
X122757143Y-103778571D02*
X122757143Y-104778571D01*
X122757143Y-103921429D02*
X122828571Y-103850000D01*
X122971429Y-103778571D01*
X123185714Y-103778571D01*
X123328571Y-103850000D01*
X123400000Y-103992857D01*
X123400000Y-104778571D01*
X116328572Y-105971429D02*
X116400001Y-105900000D01*
X116542858Y-105828571D01*
X116900001Y-105828571D01*
X117042858Y-105900000D01*
X117114287Y-105971429D01*
X117185715Y-106114286D01*
X117185715Y-106257143D01*
X117114287Y-106471429D01*
X116257144Y-107328571D01*
X117185715Y-107328571D01*
X118114286Y-105828571D02*
X118257143Y-105828571D01*
X118400000Y-105900000D01*
X118471429Y-105971429D01*
X118542858Y-106114286D01*
X118614286Y-106400000D01*
X118614286Y-106757143D01*
X118542858Y-107042857D01*
X118471429Y-107185714D01*
X118400000Y-107257143D01*
X118257143Y-107328571D01*
X118114286Y-107328571D01*
X117971429Y-107257143D01*
X117900000Y-107185714D01*
X117828572Y-107042857D01*
X117757143Y-106757143D01*
X117757143Y-106400000D01*
X117828572Y-106114286D01*
X117900000Y-105971429D01*
X117971429Y-105900000D01*
X118114286Y-105828571D01*
X120042857Y-107328571D02*
X119185714Y-107328571D01*
X119614286Y-107328571D02*
X119614286Y-105828571D01*
X119471429Y-106042857D01*
X119328571Y-106185714D01*
X119185714Y-106257143D01*
X120900000Y-106471429D02*
X120757142Y-106400000D01*
X120685714Y-106328571D01*
X120614285Y-106185714D01*
X120614285Y-106114286D01*
X120685714Y-105971429D01*
X120757142Y-105900000D01*
X120900000Y-105828571D01*
X121185714Y-105828571D01*
X121328571Y-105900000D01*
X121400000Y-105971429D01*
X121471428Y-106114286D01*
X121471428Y-106185714D01*
X121400000Y-106328571D01*
X121328571Y-106400000D01*
X121185714Y-106471429D01*
X120900000Y-106471429D01*
X120757142Y-106542857D01*
X120685714Y-106614286D01*
X120614285Y-106757143D01*
X120614285Y-107042857D01*
X120685714Y-107185714D01*
X120757142Y-107257143D01*
X120900000Y-107328571D01*
X121185714Y-107328571D01*
X121328571Y-107257143D01*
X121400000Y-107185714D01*
X121471428Y-107042857D01*
X121471428Y-106757143D01*
X121400000Y-106614286D01*
X121328571Y-106542857D01*
X121185714Y-106471429D01*
D13*
X99025000Y-94175000D02*
X98800000Y-94175000D01*
X99025000Y-101425000D02*
X98700000Y-101425000D01*
X91775000Y-101425000D02*
X92100000Y-101425000D01*
X91775000Y-94175000D02*
X92100000Y-94175000D01*
X99025000Y-94175000D02*
X99025000Y-94500000D01*
X91775000Y-94175000D02*
X91775000Y-94500000D01*
X91775000Y-101425000D02*
X91775000Y-101100000D01*
X99025000Y-101425000D02*
X99025000Y-101100000D01*
X98800000Y-94175000D02*
X98800000Y-92750000D01*
D14*
X122510000Y-99010000D02*
X122510000Y-97750000D01*
X122510000Y-92190000D02*
X122510000Y-93450000D01*
X118750000Y-99010000D02*
X122510000Y-99010000D01*
X116500000Y-92190000D02*
X122510000Y-92190000D01*
X110245000Y-105600000D02*
X110245000Y-104400000D01*
X112005000Y-104400000D02*
X112005000Y-105600000D01*
X107705000Y-105600000D02*
X107705000Y-104400000D01*
X109465000Y-104400000D02*
X109465000Y-105600000D01*
X81320000Y-105400000D02*
X81320000Y-104200000D01*
X83080000Y-104200000D02*
X83080000Y-105400000D01*
X78920000Y-105400000D02*
X78920000Y-104200000D01*
X80680000Y-104200000D02*
X80680000Y-105400000D01*
X93307600Y-91147000D02*
X94307600Y-91147000D01*
X94307600Y-89447000D02*
X93307600Y-89447000D01*
X96900000Y-103750000D02*
X95900000Y-103750000D01*
X95900000Y-105450000D02*
X96900000Y-105450000D01*
X84300000Y-85420000D02*
X85500000Y-85420000D01*
X85500000Y-87180000D02*
X84300000Y-87180000D01*
X117700000Y-85220000D02*
X118900000Y-85220000D01*
X118900000Y-86980000D02*
X117700000Y-86980000D01*
X99280000Y-75400000D02*
X99280000Y-76600000D01*
X97520000Y-76600000D02*
X97520000Y-75400000D01*
X97520000Y-83350000D02*
X97520000Y-82150000D01*
X99280000Y-82150000D02*
X99280000Y-83350000D01*
X115300000Y-91450000D02*
X115300000Y-89550000D01*
X115300000Y-89550000D02*
X110600000Y-89550000D01*
X115300000Y-91450000D02*
X110600000Y-91450000D01*
X106450000Y-91380000D02*
X105250000Y-91380000D01*
X105250000Y-89620000D02*
X106450000Y-89620000D01*
X108550000Y-111050000D02*
X107550000Y-111050000D01*
X107550000Y-112750000D02*
X108550000Y-112750000D01*
X105100000Y-106780000D02*
X103900000Y-106780000D01*
X103900000Y-105020000D02*
X105100000Y-105020000D01*
X113148400Y-99588400D02*
X113148400Y-94088400D01*
X115248400Y-99588400D02*
X115248400Y-94088400D01*
X113148400Y-99588400D02*
X115248400Y-99588400D01*
X124100000Y-91250000D02*
X118600000Y-91250000D01*
X124100000Y-89150000D02*
X118600000Y-89150000D01*
X124100000Y-91250000D02*
X124100000Y-89150000D01*
X90450000Y-84720000D02*
X90450000Y-85650000D01*
X90450000Y-87880000D02*
X90450000Y-86950000D01*
X90450000Y-87880000D02*
X93610000Y-87880000D01*
X90450000Y-84720000D02*
X91910000Y-84720000D01*
X113660000Y-87780000D02*
X113660000Y-86850000D01*
X113660000Y-84620000D02*
X113660000Y-85550000D01*
X113660000Y-84620000D02*
X110500000Y-84620000D01*
X113660000Y-87780000D02*
X112200000Y-87780000D01*
X101520000Y-76660000D02*
X102450000Y-76660000D01*
X104680000Y-76660000D02*
X103750000Y-76660000D01*
X104680000Y-76660000D02*
X104680000Y-73500000D01*
X101520000Y-76660000D02*
X101520000Y-75200000D01*
X104680000Y-81640000D02*
X103750000Y-81640000D01*
X101520000Y-81640000D02*
X102450000Y-81640000D01*
X101520000Y-81640000D02*
X101520000Y-84800000D01*
X104680000Y-81640000D02*
X104680000Y-83100000D01*
X92123333Y-113340000D02*
X92123333Y-109600000D01*
X92123333Y-109600000D02*
X78676667Y-109600000D01*
X78676667Y-109600000D02*
X78676667Y-113340000D01*
X92363333Y-111600000D02*
X92363333Y-109360000D01*
X92363333Y-109360000D02*
X88170000Y-109360000D01*
X124123333Y-113340000D02*
X124123333Y-109600000D01*
X124123333Y-109600000D02*
X110676667Y-109600000D01*
X110676667Y-109600000D02*
X110676667Y-113340000D01*
X124363333Y-111600000D02*
X124363333Y-109360000D01*
X124363333Y-109360000D02*
X120170000Y-109360000D01*
D13*
X96013113Y-112790000D02*
G75*
G03X96013113Y-112790000I-403113J0D01*
G01*
D15*
X103810000Y-112140000D02*
X96190000Y-112140000D01*
X96190000Y-107060000D02*
X103810000Y-107060000D01*
X103810000Y-107060000D02*
X103810000Y-112140000D01*
X96190000Y-112140000D02*
X96190000Y-107060000D01*
D14*
X84200000Y-94200000D02*
X84200000Y-89700000D01*
X80200000Y-95450000D02*
X81700000Y-95450000D01*
X77700000Y-89700000D02*
X77700000Y-94200000D01*
X81700000Y-88450000D02*
X80200000Y-88450000D01*
D13*
X81684905Y-81697381D02*
X81684905Y-80697381D01*
X82065858Y-80697381D01*
X82161096Y-80745000D01*
X82208715Y-80792619D01*
X82256334Y-80887857D01*
X82256334Y-81030714D01*
X82208715Y-81125952D01*
X82161096Y-81173571D01*
X82065858Y-81221190D01*
X81684905Y-81221190D01*
X83208715Y-81697381D02*
X82637286Y-81697381D01*
X82923000Y-81697381D02*
X82923000Y-80697381D01*
X82827762Y-80840238D01*
X82732524Y-80935476D01*
X82637286Y-80983095D01*
X84812525Y-81602143D02*
X84764906Y-81649762D01*
X84622049Y-81697381D01*
X84526811Y-81697381D01*
X84383953Y-81649762D01*
X84288715Y-81554524D01*
X84241096Y-81459286D01*
X84193477Y-81268810D01*
X84193477Y-81125952D01*
X84241096Y-80935476D01*
X84288715Y-80840238D01*
X84383953Y-80745000D01*
X84526811Y-80697381D01*
X84622049Y-80697381D01*
X84764906Y-80745000D01*
X84812525Y-80792619D01*
X85431572Y-80697381D02*
X85622049Y-80697381D01*
X85717287Y-80745000D01*
X85812525Y-80840238D01*
X85860144Y-81030714D01*
X85860144Y-81364048D01*
X85812525Y-81554524D01*
X85717287Y-81649762D01*
X85622049Y-81697381D01*
X85431572Y-81697381D01*
X85336334Y-81649762D01*
X85241096Y-81554524D01*
X85193477Y-81364048D01*
X85193477Y-81030714D01*
X85241096Y-80840238D01*
X85336334Y-80745000D01*
X85431572Y-80697381D01*
X86288715Y-81697381D02*
X86288715Y-80697381D01*
X86860144Y-81697381D01*
X86860144Y-80697381D01*
X87336334Y-81697381D02*
X87336334Y-80697381D01*
X87907763Y-81697381D01*
X87907763Y-80697381D01*
X88145858Y-81792619D02*
X88907763Y-81792619D01*
X89050620Y-80697381D02*
X89288715Y-81697381D01*
X89479192Y-80983095D01*
X89669668Y-81697381D01*
X89907763Y-80697381D01*
X90288715Y-81697381D02*
X90288715Y-80697381D01*
X90764905Y-81697381D02*
X90764905Y-80697381D01*
X90170095Y-92670381D02*
X90170095Y-93479905D01*
X90217714Y-93575143D01*
X90265333Y-93622762D01*
X90360571Y-93670381D01*
X90551048Y-93670381D01*
X90646286Y-93622762D01*
X90693905Y-93575143D01*
X90741524Y-93479905D01*
X90741524Y-92670381D01*
X91170095Y-92765619D02*
X91217714Y-92718000D01*
X91312952Y-92670381D01*
X91551048Y-92670381D01*
X91646286Y-92718000D01*
X91693905Y-92765619D01*
X91741524Y-92860857D01*
X91741524Y-92956095D01*
X91693905Y-93098952D01*
X91122476Y-93670381D01*
X91741524Y-93670381D01*
X122936095Y-91908381D02*
X122936095Y-92717905D01*
X122983714Y-92813143D01*
X123031333Y-92860762D01*
X123126571Y-92908381D01*
X123317048Y-92908381D01*
X123412286Y-92860762D01*
X123459905Y-92813143D01*
X123507524Y-92717905D01*
X123507524Y-91908381D01*
X124507524Y-92908381D02*
X123936095Y-92908381D01*
X124221809Y-92908381D02*
X124221809Y-91908381D01*
X124126571Y-92051238D01*
X124031333Y-92146476D01*
X123936095Y-92194095D01*
X110831334Y-102306381D02*
X110498000Y-101830190D01*
X110259905Y-102306381D02*
X110259905Y-101306381D01*
X110640858Y-101306381D01*
X110736096Y-101354000D01*
X110783715Y-101401619D01*
X110831334Y-101496857D01*
X110831334Y-101639714D01*
X110783715Y-101734952D01*
X110736096Y-101782571D01*
X110640858Y-101830190D01*
X110259905Y-101830190D01*
X111688477Y-101639714D02*
X111688477Y-102306381D01*
X111450381Y-101258762D02*
X111212286Y-101973048D01*
X111831334Y-101973048D01*
X108291334Y-102306381D02*
X107958000Y-101830190D01*
X107719905Y-102306381D02*
X107719905Y-101306381D01*
X108100858Y-101306381D01*
X108196096Y-101354000D01*
X108243715Y-101401619D01*
X108291334Y-101496857D01*
X108291334Y-101639714D01*
X108243715Y-101734952D01*
X108196096Y-101782571D01*
X108100858Y-101830190D01*
X107719905Y-101830190D01*
X109196096Y-101306381D02*
X108719905Y-101306381D01*
X108672286Y-101782571D01*
X108719905Y-101734952D01*
X108815143Y-101687333D01*
X109053239Y-101687333D01*
X109148477Y-101734952D01*
X109196096Y-101782571D01*
X109243715Y-101877810D01*
X109243715Y-102115905D01*
X109196096Y-102211143D01*
X109148477Y-102258762D01*
X109053239Y-102306381D01*
X108815143Y-102306381D01*
X108719905Y-102258762D01*
X108672286Y-102211143D01*
X82129334Y-102052381D02*
X81796000Y-101576190D01*
X81557905Y-102052381D02*
X81557905Y-101052381D01*
X81938858Y-101052381D01*
X82034096Y-101100000D01*
X82081715Y-101147619D01*
X82129334Y-101242857D01*
X82129334Y-101385714D01*
X82081715Y-101480952D01*
X82034096Y-101528571D01*
X81938858Y-101576190D01*
X81557905Y-101576190D01*
X82986477Y-101052381D02*
X82796000Y-101052381D01*
X82700762Y-101100000D01*
X82653143Y-101147619D01*
X82557905Y-101290476D01*
X82510286Y-101480952D01*
X82510286Y-101861905D01*
X82557905Y-101957143D01*
X82605524Y-102004762D01*
X82700762Y-102052381D01*
X82891239Y-102052381D01*
X82986477Y-102004762D01*
X83034096Y-101957143D01*
X83081715Y-101861905D01*
X83081715Y-101623810D01*
X83034096Y-101528571D01*
X82986477Y-101480952D01*
X82891239Y-101433333D01*
X82700762Y-101433333D01*
X82605524Y-101480952D01*
X82557905Y-101528571D01*
X82510286Y-101623810D01*
X79589334Y-102052381D02*
X79256000Y-101576190D01*
X79017905Y-102052381D02*
X79017905Y-101052381D01*
X79398858Y-101052381D01*
X79494096Y-101100000D01*
X79541715Y-101147619D01*
X79589334Y-101242857D01*
X79589334Y-101385714D01*
X79541715Y-101480952D01*
X79494096Y-101528571D01*
X79398858Y-101576190D01*
X79017905Y-101576190D01*
X79922667Y-101052381D02*
X80589334Y-101052381D01*
X80160762Y-102052381D01*
X93640934Y-88808143D02*
X93593315Y-88855762D01*
X93450458Y-88903381D01*
X93355220Y-88903381D01*
X93212362Y-88855762D01*
X93117124Y-88760524D01*
X93069505Y-88665286D01*
X93021886Y-88474810D01*
X93021886Y-88331952D01*
X93069505Y-88141476D01*
X93117124Y-88046238D01*
X93212362Y-87951000D01*
X93355220Y-87903381D01*
X93450458Y-87903381D01*
X93593315Y-87951000D01*
X93640934Y-87998619D01*
X93974267Y-87903381D02*
X94593315Y-87903381D01*
X94259981Y-88284333D01*
X94402839Y-88284333D01*
X94498077Y-88331952D01*
X94545696Y-88379571D01*
X94593315Y-88474810D01*
X94593315Y-88712905D01*
X94545696Y-88808143D01*
X94498077Y-88855762D01*
X94402839Y-88903381D01*
X94117124Y-88903381D01*
X94021886Y-88855762D01*
X93974267Y-88808143D01*
X92797334Y-105005143D02*
X92749715Y-105052762D01*
X92606858Y-105100381D01*
X92511620Y-105100381D01*
X92368762Y-105052762D01*
X92273524Y-104957524D01*
X92225905Y-104862286D01*
X92178286Y-104671810D01*
X92178286Y-104528952D01*
X92225905Y-104338476D01*
X92273524Y-104243238D01*
X92368762Y-104148000D01*
X92511620Y-104100381D01*
X92606858Y-104100381D01*
X92749715Y-104148000D01*
X92797334Y-104195619D01*
X93654477Y-104433714D02*
X93654477Y-105100381D01*
X93416381Y-104052762D02*
X93178286Y-104767048D01*
X93797334Y-104767048D01*
X84733334Y-85034381D02*
X84400000Y-84558190D01*
X84161905Y-85034381D02*
X84161905Y-84034381D01*
X84542858Y-84034381D01*
X84638096Y-84082000D01*
X84685715Y-84129619D01*
X84733334Y-84224857D01*
X84733334Y-84367714D01*
X84685715Y-84462952D01*
X84638096Y-84510571D01*
X84542858Y-84558190D01*
X84161905Y-84558190D01*
X85685715Y-85034381D02*
X85114286Y-85034381D01*
X85400000Y-85034381D02*
X85400000Y-84034381D01*
X85304762Y-84177238D01*
X85209524Y-84272476D01*
X85114286Y-84320095D01*
X118197334Y-84780381D02*
X117864000Y-84304190D01*
X117625905Y-84780381D02*
X117625905Y-83780381D01*
X118006858Y-83780381D01*
X118102096Y-83828000D01*
X118149715Y-83875619D01*
X118197334Y-83970857D01*
X118197334Y-84113714D01*
X118149715Y-84208952D01*
X118102096Y-84256571D01*
X118006858Y-84304190D01*
X117625905Y-84304190D01*
X118578286Y-83875619D02*
X118625905Y-83828000D01*
X118721143Y-83780381D01*
X118959239Y-83780381D01*
X119054477Y-83828000D01*
X119102096Y-83875619D01*
X119149715Y-83970857D01*
X119149715Y-84066095D01*
X119102096Y-84208952D01*
X118530667Y-84780381D01*
X119149715Y-84780381D01*
X96099334Y-76652381D02*
X95766000Y-76176190D01*
X95527905Y-76652381D02*
X95527905Y-75652381D01*
X95908858Y-75652381D01*
X96004096Y-75700000D01*
X96051715Y-75747619D01*
X96099334Y-75842857D01*
X96099334Y-75985714D01*
X96051715Y-76080952D01*
X96004096Y-76128571D01*
X95908858Y-76176190D01*
X95527905Y-76176190D01*
X96432667Y-75652381D02*
X97051715Y-75652381D01*
X96718381Y-76033333D01*
X96861239Y-76033333D01*
X96956477Y-76080952D01*
X97004096Y-76128571D01*
X97051715Y-76223810D01*
X97051715Y-76461905D01*
X97004096Y-76557143D01*
X96956477Y-76604762D01*
X96861239Y-76652381D01*
X96575524Y-76652381D01*
X96480286Y-76604762D01*
X96432667Y-76557143D01*
X96099334Y-83002381D02*
X95766000Y-82526190D01*
X95527905Y-83002381D02*
X95527905Y-82002381D01*
X95908858Y-82002381D01*
X96004096Y-82050000D01*
X96051715Y-82097619D01*
X96099334Y-82192857D01*
X96099334Y-82335714D01*
X96051715Y-82430952D01*
X96004096Y-82478571D01*
X95908858Y-82526190D01*
X95527905Y-82526190D01*
X96670762Y-82430952D02*
X96575524Y-82383333D01*
X96527905Y-82335714D01*
X96480286Y-82240476D01*
X96480286Y-82192857D01*
X96527905Y-82097619D01*
X96575524Y-82050000D01*
X96670762Y-82002381D01*
X96861239Y-82002381D01*
X96956477Y-82050000D01*
X97004096Y-82097619D01*
X97051715Y-82192857D01*
X97051715Y-82240476D01*
X97004096Y-82335714D01*
X96956477Y-82383333D01*
X96861239Y-82430952D01*
X96670762Y-82430952D01*
X96575524Y-82478571D01*
X96527905Y-82526190D01*
X96480286Y-82621429D01*
X96480286Y-82811905D01*
X96527905Y-82907143D01*
X96575524Y-82954762D01*
X96670762Y-83002381D01*
X96861239Y-83002381D01*
X96956477Y-82954762D01*
X97004096Y-82907143D01*
X97051715Y-82811905D01*
X97051715Y-82621429D01*
X97004096Y-82526190D01*
X96956477Y-82478571D01*
X96861239Y-82430952D01*
X110259905Y-92908381D02*
X110259905Y-91908381D01*
X110498000Y-91908381D01*
X110640858Y-91956000D01*
X110736096Y-92051238D01*
X110783715Y-92146476D01*
X110831334Y-92336952D01*
X110831334Y-92479810D01*
X110783715Y-92670286D01*
X110736096Y-92765524D01*
X110640858Y-92860762D01*
X110498000Y-92908381D01*
X110259905Y-92908381D01*
X111783715Y-92908381D02*
X111212286Y-92908381D01*
X111498000Y-92908381D02*
X111498000Y-91908381D01*
X111402762Y-92051238D01*
X111307524Y-92146476D01*
X111212286Y-92194095D01*
X105683334Y-89252381D02*
X105350000Y-88776190D01*
X105111905Y-89252381D02*
X105111905Y-88252381D01*
X105492858Y-88252381D01*
X105588096Y-88300000D01*
X105635715Y-88347619D01*
X105683334Y-88442857D01*
X105683334Y-88585714D01*
X105635715Y-88680952D01*
X105588096Y-88728571D01*
X105492858Y-88776190D01*
X105111905Y-88776190D01*
X106159524Y-89252381D02*
X106350000Y-89252381D01*
X106445239Y-89204762D01*
X106492858Y-89157143D01*
X106588096Y-89014286D01*
X106635715Y-88823810D01*
X106635715Y-88442857D01*
X106588096Y-88347619D01*
X106540477Y-88300000D01*
X106445239Y-88252381D01*
X106254762Y-88252381D01*
X106159524Y-88300000D01*
X106111905Y-88347619D01*
X106064286Y-88442857D01*
X106064286Y-88680952D01*
X106111905Y-88776190D01*
X106159524Y-88823810D01*
X106254762Y-88871429D01*
X106445239Y-88871429D01*
X106540477Y-88823810D01*
X106588096Y-88776190D01*
X106635715Y-88680952D01*
X107883334Y-110507143D02*
X107835715Y-110554762D01*
X107692858Y-110602381D01*
X107597620Y-110602381D01*
X107454762Y-110554762D01*
X107359524Y-110459524D01*
X107311905Y-110364286D01*
X107264286Y-110173810D01*
X107264286Y-110030952D01*
X107311905Y-109840476D01*
X107359524Y-109745238D01*
X107454762Y-109650000D01*
X107597620Y-109602381D01*
X107692858Y-109602381D01*
X107835715Y-109650000D01*
X107883334Y-109697619D01*
X108788096Y-109602381D02*
X108311905Y-109602381D01*
X108264286Y-110078571D01*
X108311905Y-110030952D01*
X108407143Y-109983333D01*
X108645239Y-109983333D01*
X108740477Y-110030952D01*
X108788096Y-110078571D01*
X108835715Y-110173810D01*
X108835715Y-110411905D01*
X108788096Y-110507143D01*
X108740477Y-110554762D01*
X108645239Y-110602381D01*
X108407143Y-110602381D01*
X108311905Y-110554762D01*
X108264286Y-110507143D01*
X111481734Y-96045543D02*
X111434115Y-96093162D01*
X111291258Y-96140781D01*
X111196020Y-96140781D01*
X111053162Y-96093162D01*
X110957924Y-95997924D01*
X110910305Y-95902686D01*
X110862686Y-95712210D01*
X110862686Y-95569352D01*
X110910305Y-95378876D01*
X110957924Y-95283638D01*
X111053162Y-95188400D01*
X111196020Y-95140781D01*
X111291258Y-95140781D01*
X111434115Y-95188400D01*
X111481734Y-95236019D01*
X112434115Y-96140781D02*
X111862686Y-96140781D01*
X112148400Y-96140781D02*
X112148400Y-95140781D01*
X112053162Y-95283638D01*
X111957924Y-95378876D01*
X111862686Y-95426495D01*
X119975334Y-88495143D02*
X119927715Y-88542762D01*
X119784858Y-88590381D01*
X119689620Y-88590381D01*
X119546762Y-88542762D01*
X119451524Y-88447524D01*
X119403905Y-88352286D01*
X119356286Y-88161810D01*
X119356286Y-88018952D01*
X119403905Y-87828476D01*
X119451524Y-87733238D01*
X119546762Y-87638000D01*
X119689620Y-87590381D01*
X119784858Y-87590381D01*
X119927715Y-87638000D01*
X119975334Y-87685619D01*
X120356286Y-87685619D02*
X120403905Y-87638000D01*
X120499143Y-87590381D01*
X120737239Y-87590381D01*
X120832477Y-87638000D01*
X120880096Y-87685619D01*
X120927715Y-87780857D01*
X120927715Y-87876095D01*
X120880096Y-88018952D01*
X120308667Y-88590381D01*
X120927715Y-88590381D01*
X91114762Y-84367619D02*
X91019524Y-84320000D01*
X90924286Y-84224762D01*
X90781429Y-84081905D01*
X90686190Y-84034286D01*
X90590952Y-84034286D01*
X90638571Y-84272381D02*
X90543333Y-84224762D01*
X90448095Y-84129524D01*
X90400476Y-83939048D01*
X90400476Y-83605714D01*
X90448095Y-83415238D01*
X90543333Y-83320000D01*
X90638571Y-83272381D01*
X90829048Y-83272381D01*
X90924286Y-83320000D01*
X91019524Y-83415238D01*
X91067143Y-83605714D01*
X91067143Y-83939048D01*
X91019524Y-84129524D01*
X90924286Y-84224762D01*
X90829048Y-84272381D01*
X90638571Y-84272381D01*
X92019524Y-84272381D02*
X91448095Y-84272381D01*
X91733809Y-84272381D02*
X91733809Y-83272381D01*
X91638571Y-83415238D01*
X91543333Y-83510476D01*
X91448095Y-83558095D01*
X112804762Y-84247619D02*
X112709524Y-84200000D01*
X112614286Y-84104762D01*
X112471429Y-83961905D01*
X112376190Y-83914286D01*
X112280952Y-83914286D01*
X112328571Y-84152381D02*
X112233333Y-84104762D01*
X112138095Y-84009524D01*
X112090476Y-83819048D01*
X112090476Y-83485714D01*
X112138095Y-83295238D01*
X112233333Y-83200000D01*
X112328571Y-83152381D01*
X112519048Y-83152381D01*
X112614286Y-83200000D01*
X112709524Y-83295238D01*
X112757143Y-83485714D01*
X112757143Y-83819048D01*
X112709524Y-84009524D01*
X112614286Y-84104762D01*
X112519048Y-84152381D01*
X112328571Y-84152381D01*
X113138095Y-83247619D02*
X113185714Y-83200000D01*
X113280952Y-83152381D01*
X113519048Y-83152381D01*
X113614286Y-83200000D01*
X113661905Y-83247619D01*
X113709524Y-83342857D01*
X113709524Y-83438095D01*
X113661905Y-83580952D01*
X113090476Y-84152381D01*
X113709524Y-84152381D01*
X105822762Y-75731619D02*
X105727524Y-75684000D01*
X105632286Y-75588762D01*
X105489429Y-75445905D01*
X105394190Y-75398286D01*
X105298952Y-75398286D01*
X105346571Y-75636381D02*
X105251333Y-75588762D01*
X105156095Y-75493524D01*
X105108476Y-75303048D01*
X105108476Y-74969714D01*
X105156095Y-74779238D01*
X105251333Y-74684000D01*
X105346571Y-74636381D01*
X105537048Y-74636381D01*
X105632286Y-74684000D01*
X105727524Y-74779238D01*
X105775143Y-74969714D01*
X105775143Y-75303048D01*
X105727524Y-75493524D01*
X105632286Y-75588762D01*
X105537048Y-75636381D01*
X105346571Y-75636381D01*
X106108476Y-74636381D02*
X106727524Y-74636381D01*
X106394190Y-75017333D01*
X106537048Y-75017333D01*
X106632286Y-75064952D01*
X106679905Y-75112571D01*
X106727524Y-75207810D01*
X106727524Y-75445905D01*
X106679905Y-75541143D01*
X106632286Y-75588762D01*
X106537048Y-75636381D01*
X106251333Y-75636381D01*
X106156095Y-75588762D01*
X106108476Y-75541143D01*
X100996762Y-81319619D02*
X100901524Y-81272000D01*
X100806286Y-81176762D01*
X100663429Y-81033905D01*
X100568190Y-80986286D01*
X100472952Y-80986286D01*
X100520571Y-81224381D02*
X100425333Y-81176762D01*
X100330095Y-81081524D01*
X100282476Y-80891048D01*
X100282476Y-80557714D01*
X100330095Y-80367238D01*
X100425333Y-80272000D01*
X100520571Y-80224381D01*
X100711048Y-80224381D01*
X100806286Y-80272000D01*
X100901524Y-80367238D01*
X100949143Y-80557714D01*
X100949143Y-80891048D01*
X100901524Y-81081524D01*
X100806286Y-81176762D01*
X100711048Y-81224381D01*
X100520571Y-81224381D01*
X101806286Y-80557714D02*
X101806286Y-81224381D01*
X101568190Y-80176762D02*
X101330095Y-80891048D01*
X101949143Y-80891048D01*
X93166667Y-111052381D02*
X93166667Y-111766667D01*
X93119047Y-111909524D01*
X93023809Y-112004762D01*
X92880952Y-112052381D01*
X92785714Y-112052381D01*
X93595238Y-111147619D02*
X93642857Y-111100000D01*
X93738095Y-111052381D01*
X93976191Y-111052381D01*
X94071429Y-111100000D01*
X94119048Y-111147619D01*
X94166667Y-111242857D01*
X94166667Y-111338095D01*
X94119048Y-111480952D01*
X93547619Y-112052381D01*
X94166667Y-112052381D01*
X109066667Y-111152381D02*
X109066667Y-111866667D01*
X109019047Y-112009524D01*
X108923809Y-112104762D01*
X108780952Y-112152381D01*
X108685714Y-112152381D01*
X110066667Y-112152381D02*
X109495238Y-112152381D01*
X109780952Y-112152381D02*
X109780952Y-111152381D01*
X109685714Y-111295238D01*
X109590476Y-111390476D01*
X109495238Y-111438095D01*
D15*
X104461333Y-111143619D02*
X104461333Y-111869333D01*
X104412953Y-112014476D01*
X104316191Y-112111238D01*
X104171048Y-112159619D01*
X104074286Y-112159619D01*
X104848381Y-111143619D02*
X105477333Y-111143619D01*
X105138667Y-111530667D01*
X105283809Y-111530667D01*
X105380571Y-111579048D01*
X105428952Y-111627429D01*
X105477333Y-111724190D01*
X105477333Y-111966095D01*
X105428952Y-112062857D01*
X105380571Y-112111238D01*
X105283809Y-112159619D01*
X104993524Y-112159619D01*
X104896762Y-112111238D01*
X104848381Y-112062857D01*
D13*
X77660667Y-86764762D02*
X77803524Y-86812381D01*
X78041620Y-86812381D01*
X78136858Y-86764762D01*
X78184477Y-86717143D01*
X78232096Y-86621905D01*
X78232096Y-86526667D01*
X78184477Y-86431429D01*
X78136858Y-86383810D01*
X78041620Y-86336190D01*
X77851143Y-86288571D01*
X77755905Y-86240952D01*
X77708286Y-86193333D01*
X77660667Y-86098095D01*
X77660667Y-86002857D01*
X77708286Y-85907619D01*
X77755905Y-85860000D01*
X77851143Y-85812381D01*
X78089239Y-85812381D01*
X78232096Y-85860000D01*
X78565429Y-85812381D02*
X78803524Y-86812381D01*
X78994001Y-86098095D01*
X79184477Y-86812381D01*
X79422572Y-85812381D01*
X80327334Y-86812381D02*
X79755905Y-86812381D01*
X80041619Y-86812381D02*
X80041619Y-85812381D01*
X79946381Y-85955238D01*
X79851143Y-86050476D01*
X79755905Y-86098095D01*
X113286905Y-81697381D02*
X113286905Y-80697381D01*
X113667858Y-80697381D01*
X113763096Y-80745000D01*
X113810715Y-80792619D01*
X113858334Y-80887857D01*
X113858334Y-81030714D01*
X113810715Y-81125952D01*
X113763096Y-81173571D01*
X113667858Y-81221190D01*
X113286905Y-81221190D01*
X114239286Y-80792619D02*
X114286905Y-80745000D01*
X114382143Y-80697381D01*
X114620239Y-80697381D01*
X114715477Y-80745000D01*
X114763096Y-80792619D01*
X114810715Y-80887857D01*
X114810715Y-80983095D01*
X114763096Y-81125952D01*
X114191667Y-81697381D01*
X114810715Y-81697381D01*
X116414525Y-81602143D02*
X116366906Y-81649762D01*
X116224049Y-81697381D01*
X116128811Y-81697381D01*
X115985953Y-81649762D01*
X115890715Y-81554524D01*
X115843096Y-81459286D01*
X115795477Y-81268810D01*
X115795477Y-81125952D01*
X115843096Y-80935476D01*
X115890715Y-80840238D01*
X115985953Y-80745000D01*
X116128811Y-80697381D01*
X116224049Y-80697381D01*
X116366906Y-80745000D01*
X116414525Y-80792619D01*
X117033572Y-80697381D02*
X117224049Y-80697381D01*
X117319287Y-80745000D01*
X117414525Y-80840238D01*
X117462144Y-81030714D01*
X117462144Y-81364048D01*
X117414525Y-81554524D01*
X117319287Y-81649762D01*
X117224049Y-81697381D01*
X117033572Y-81697381D01*
X116938334Y-81649762D01*
X116843096Y-81554524D01*
X116795477Y-81364048D01*
X116795477Y-81030714D01*
X116843096Y-80840238D01*
X116938334Y-80745000D01*
X117033572Y-80697381D01*
X117890715Y-81697381D02*
X117890715Y-80697381D01*
X118462144Y-81697381D01*
X118462144Y-80697381D01*
X118938334Y-81697381D02*
X118938334Y-80697381D01*
X119509763Y-81697381D01*
X119509763Y-80697381D01*
X119747858Y-81792619D02*
X120509763Y-81792619D01*
X120652620Y-80697381D02*
X120890715Y-81697381D01*
X121081192Y-80983095D01*
X121271668Y-81697381D01*
X121509763Y-80697381D01*
X121890715Y-81697381D02*
X121890715Y-80697381D01*
X122366905Y-81697381D02*
X122366905Y-80697381D01*
M02*
