G04 #@! TF.FileFunction,Soldermask,Top*
%FSLAX46Y46*%
G04 Gerber Fmt 4.6, Leading zero omitted, Abs format (unit mm)*
G04 Created by KiCad (PCBNEW 4.0.7-e2-6376~58~ubuntu17.04.1) date Sun Mar  4 22:48:04 2018*
%MOMM*%
%LPD*%
G01*
G04 APERTURE LIST*
%ADD10C,0.100000*%
%ADD11R,1.670000X1.670000*%
%ADD12C,1.670000*%
%ADD13C,3.448000*%
%ADD14R,0.950000X2.000000*%
%ADD15R,2.000000X0.950000*%
%ADD16R,2.246667X3.880000*%
%ADD17R,1.300000X1.200000*%
%ADD18R,1.200000X1.300000*%
%ADD19R,2.400000X4.200000*%
%ADD20R,2.400000X1.900000*%
%ADD21R,1.700000X1.900000*%
%ADD22R,2.900000X2.400000*%
%ADD23R,2.400000X2.900000*%
%ADD24R,1.900000X1.650000*%
%ADD25R,1.900000X1.700000*%
%ADD26R,1.924000X1.924000*%
%ADD27C,1.924000*%
%ADD28R,2.400000X2.100000*%
%ADD29C,2.400000*%
G04 APERTURE END LIST*
D10*
D11*
X119105000Y-82388000D03*
D12*
X119105000Y-80483000D03*
X117200000Y-82388000D03*
X117200000Y-80483000D03*
X115295000Y-82388000D03*
X115295000Y-80483000D03*
D13*
X123550000Y-79594000D03*
X110850000Y-74260000D03*
X123550000Y-74260000D03*
X110850000Y-79594000D03*
D14*
X98200000Y-93550000D03*
X97400000Y-93550000D03*
X96600000Y-93550000D03*
X95800000Y-93550000D03*
X95000000Y-93550000D03*
X94200000Y-93550000D03*
X93400000Y-93550000D03*
X92600000Y-93550000D03*
D15*
X91150000Y-95000000D03*
X91150000Y-95800000D03*
X91150000Y-96600000D03*
X91150000Y-97400000D03*
X91150000Y-98200000D03*
X91150000Y-99000000D03*
X91150000Y-99800000D03*
X91150000Y-100600000D03*
D14*
X92600000Y-102050000D03*
X93400000Y-102050000D03*
X94200000Y-102050000D03*
X95000000Y-102050000D03*
X95800000Y-102050000D03*
X96600000Y-102050000D03*
X97400000Y-102050000D03*
X98200000Y-102050000D03*
D15*
X99650000Y-100600000D03*
X99650000Y-99800000D03*
X99650000Y-99000000D03*
X99650000Y-98200000D03*
X99650000Y-97400000D03*
X99650000Y-96600000D03*
X99650000Y-95800000D03*
X99650000Y-95000000D03*
D16*
X90940000Y-111600000D03*
X88170000Y-111600000D03*
X85400000Y-111600000D03*
X82630000Y-111600000D03*
X79860000Y-111600000D03*
X122940000Y-111600000D03*
X120170000Y-111600000D03*
X117400000Y-111600000D03*
X114630000Y-111600000D03*
X111860000Y-111600000D03*
D11*
X87505000Y-82388000D03*
D12*
X87505000Y-80483000D03*
X85600000Y-82388000D03*
X85600000Y-80483000D03*
X83695000Y-82388000D03*
X83695000Y-80483000D03*
D13*
X91950000Y-79594000D03*
X79250000Y-74260000D03*
X91950000Y-74260000D03*
X79250000Y-79594000D03*
D17*
X90800000Y-87250000D03*
X90800000Y-85350000D03*
X88800000Y-86300000D03*
X111900000Y-85250000D03*
X111900000Y-87150000D03*
X113900000Y-86200000D03*
D18*
X104050000Y-74900000D03*
X102150000Y-74900000D03*
X103100000Y-76900000D03*
X102150000Y-83400000D03*
X104050000Y-83400000D03*
X103100000Y-81400000D03*
D19*
X123750000Y-95600000D03*
D20*
X117450000Y-95600000D03*
X117450000Y-97900000D03*
X117450000Y-93300000D03*
D21*
X109800000Y-103650000D03*
X109800000Y-106350000D03*
X107600000Y-103650000D03*
X107600000Y-106350000D03*
X82200000Y-103450000D03*
X82200000Y-106150000D03*
X79800000Y-103450000D03*
X79800000Y-106150000D03*
D22*
X114200000Y-97800000D03*
X114200000Y-93800000D03*
D23*
X122200000Y-90200000D03*
X118200000Y-90200000D03*
D24*
X96650000Y-91000000D03*
X94150000Y-91000000D03*
X95150000Y-104600000D03*
X97650000Y-104600000D03*
D25*
X86250000Y-86300000D03*
X83550000Y-86300000D03*
X119650000Y-86100000D03*
X116950000Y-86100000D03*
D21*
X98400000Y-77350000D03*
X98400000Y-74650000D03*
X98400000Y-81400000D03*
X98400000Y-84100000D03*
D26*
X97460000Y-110870000D03*
D27*
X97460000Y-108330000D03*
X100000000Y-110870000D03*
X100000000Y-108330000D03*
X102540000Y-110870000D03*
X102540000Y-108330000D03*
D28*
X114200000Y-90500000D03*
X110200000Y-90500000D03*
D25*
X104500000Y-90500000D03*
X107200000Y-90500000D03*
D29*
X83200000Y-95200000D03*
X78700000Y-95200000D03*
X83200000Y-88700000D03*
X78700000Y-88700000D03*
D24*
X106800000Y-111900000D03*
X109300000Y-111900000D03*
D25*
X103150000Y-105900000D03*
X105850000Y-105900000D03*
M02*
