G04 #@! TF.FileFunction,Legend,Bot*
%FSLAX46Y46*%
G04 Gerber Fmt 4.6, Leading zero omitted, Abs format (unit mm)*
G04 Created by KiCad (PCBNEW 4.0.7) date 07/06/18 22:20:39*
%MOMM*%
%LPD*%
G01*
G04 APERTURE LIST*
%ADD10C,0.100000*%
%ADD11C,0.150000*%
G04 APERTURE END LIST*
D10*
D11*
X104528857Y-104652381D02*
X104862191Y-104176190D01*
X105100286Y-104652381D02*
X105100286Y-103652381D01*
X104719333Y-103652381D01*
X104624095Y-103700000D01*
X104576476Y-103747619D01*
X104528857Y-103842857D01*
X104528857Y-103985714D01*
X104576476Y-104080952D01*
X104624095Y-104128571D01*
X104719333Y-104176190D01*
X105100286Y-104176190D01*
X103576476Y-104652381D02*
X104147905Y-104652381D01*
X103862191Y-104652381D02*
X103862191Y-103652381D01*
X103957429Y-103795238D01*
X104052667Y-103890476D01*
X104147905Y-103938095D01*
X102957429Y-103652381D02*
X102862190Y-103652381D01*
X102766952Y-103700000D01*
X102719333Y-103747619D01*
X102671714Y-103842857D01*
X102624095Y-104033333D01*
X102624095Y-104271429D01*
X102671714Y-104461905D01*
X102719333Y-104557143D01*
X102766952Y-104604762D01*
X102862190Y-104652381D01*
X102957429Y-104652381D01*
X103052667Y-104604762D01*
X103100286Y-104557143D01*
X103147905Y-104461905D01*
X103195524Y-104271429D01*
X103195524Y-104033333D01*
X103147905Y-103842857D01*
X103100286Y-103747619D01*
X103052667Y-103700000D01*
X102957429Y-103652381D01*
M02*
