G04 #@! TF.FileFunction,Profile,NP*
%FSLAX46Y46*%
G04 Gerber Fmt 4.6, Leading zero omitted, Abs format (unit mm)*
G04 Created by KiCad (PCBNEW 4.0.7) date 07/06/18 22:20:39*
%MOMM*%
%LPD*%
G01*
G04 APERTURE LIST*
%ADD10C,0.100000*%
%ADD11C,0.150000*%
G04 APERTURE END LIST*
D10*
D11*
X126365000Y-73152000D02*
G75*
G03X125222000Y-72009000I-1143000J0D01*
G01*
X120396000Y-73152000D02*
G75*
G03X119253000Y-72009000I-1143000J0D01*
G01*
X110871000Y-73152000D02*
G75*
G03X109728000Y-72009000I-1143000J0D01*
G01*
X88773000Y-73152000D02*
G75*
G03X87630000Y-72009000I-1143000J0D01*
G01*
X77597000Y-72009000D02*
G75*
G03X76454000Y-73152000I0J-1143000D01*
G01*
X83566000Y-72009000D02*
G75*
G03X82423000Y-73152000I0J-1143000D01*
G01*
X93091000Y-72009000D02*
G75*
G03X91948000Y-73152000I0J-1143000D01*
G01*
X115189000Y-72009000D02*
G75*
G03X114046000Y-73152000I0J-1143000D01*
G01*
X124714000Y-72009000D02*
G75*
G03X123571000Y-73152000I0J-1143000D01*
G01*
X79248000Y-73152000D02*
X79248000Y-80010000D01*
X79248000Y-73152000D02*
G75*
G03X78105000Y-72009000I-1143000J0D01*
G01*
X124714000Y-72009000D02*
X125222000Y-72009000D01*
X123571000Y-80010000D02*
X123571000Y-73152000D01*
X120396000Y-80010000D02*
X123571000Y-80010000D01*
X120396000Y-73152000D02*
X120396000Y-80010000D01*
X115189000Y-72009000D02*
X119253000Y-72009000D01*
X114046000Y-80010000D02*
X114046000Y-73152000D01*
X110871000Y-80010000D02*
X114046000Y-80010000D01*
X110871000Y-73152000D02*
X110871000Y-80010000D01*
X93091000Y-72009000D02*
X109728000Y-72009000D01*
X83566000Y-72009000D02*
X87630000Y-72009000D01*
X78105000Y-72009000D02*
X77597000Y-72009000D01*
X91948000Y-80010000D02*
X91948000Y-73152000D01*
X88773000Y-80010000D02*
X91948000Y-80010000D01*
X88773000Y-73152000D02*
X88773000Y-80010000D01*
X82423000Y-80010000D02*
X82423000Y-73152000D01*
X79248000Y-80010000D02*
X82423000Y-80010000D01*
X76454000Y-113538000D02*
X76454000Y-73152000D01*
X126365000Y-113538000D02*
X76454000Y-113538000D01*
X126365000Y-73152000D02*
X126365000Y-113538000D01*
M02*
