G04 #@! TF.FileFunction,Soldermask,Bot*
%FSLAX46Y46*%
G04 Gerber Fmt 4.6, Leading zero omitted, Abs format (unit mm)*
G04 Created by KiCad (PCBNEW 4.0.7) date 06/24/18 00:10:50*
%MOMM*%
%LPD*%
G01*
G04 APERTURE LIST*
%ADD10C,0.100000*%
%ADD11R,2.246667X3.880000*%
%ADD12R,1.924000X1.924000*%
%ADD13C,1.924000*%
%ADD14C,2.400000*%
%ADD15R,1.670000X1.670000*%
%ADD16C,1.670000*%
%ADD17C,3.448000*%
%ADD18R,1.920000X6.450000*%
%ADD19C,0.254000*%
G04 APERTURE END LIST*
D10*
D11*
X89555000Y-111600000D03*
X86785000Y-111600000D03*
X84015000Y-111600000D03*
X81245000Y-111600000D03*
X121555000Y-111600000D03*
X118785000Y-111600000D03*
X116015000Y-111600000D03*
X113245000Y-111600000D03*
D12*
X97460000Y-110870000D03*
D13*
X97460000Y-108330000D03*
X100000000Y-110870000D03*
X100000000Y-108330000D03*
X102540000Y-110870000D03*
X102540000Y-108330000D03*
D14*
X83200000Y-95200000D03*
X78700000Y-95200000D03*
X83200000Y-88700000D03*
X78700000Y-88700000D03*
D15*
X119105000Y-82388000D03*
D16*
X119105000Y-80483000D03*
X117200000Y-82388000D03*
X117200000Y-80483000D03*
X115295000Y-82388000D03*
X115295000Y-80483000D03*
D17*
X123550000Y-79594000D03*
X110850000Y-74260000D03*
X123550000Y-74260000D03*
X110850000Y-79594000D03*
D18*
X119105000Y-75530000D03*
X115295000Y-75530000D03*
D15*
X87503000Y-82388000D03*
D16*
X87503000Y-80483000D03*
X85598000Y-82388000D03*
X85598000Y-80483000D03*
X83693000Y-82388000D03*
X83693000Y-80483000D03*
D17*
X91948000Y-79594000D03*
X79248000Y-74260000D03*
X91948000Y-74260000D03*
X79248000Y-79594000D03*
D18*
X87503000Y-75530000D03*
X83693000Y-75530000D03*
D19*
G36*
X88519000Y-78613000D02*
X82677000Y-78613000D01*
X82677000Y-71755000D01*
X88519000Y-71755000D01*
X88519000Y-78613000D01*
X88519000Y-78613000D01*
G37*
X88519000Y-78613000D02*
X82677000Y-78613000D01*
X82677000Y-71755000D01*
X88519000Y-71755000D01*
X88519000Y-78613000D01*
G36*
X120269000Y-78613000D02*
X114427000Y-78613000D01*
X114427000Y-71755000D01*
X120269000Y-71755000D01*
X120269000Y-78613000D01*
X120269000Y-78613000D01*
G37*
X120269000Y-78613000D02*
X114427000Y-78613000D01*
X114427000Y-71755000D01*
X120269000Y-71755000D01*
X120269000Y-78613000D01*
M02*
