G04 #@! TF.FileFunction,Profile,NP*
%FSLAX46Y46*%
G04 Gerber Fmt 4.6, Leading zero omitted, Abs format (unit mm)*
G04 Created by KiCad (PCBNEW 4.0.7) date 06/24/18 00:10:50*
%MOMM*%
%LPD*%
G01*
G04 APERTURE LIST*
%ADD10C,0.100000*%
%ADD11C,0.150000*%
G04 APERTURE END LIST*
D10*
D11*
X123317000Y-72009000D02*
X126400000Y-72010000D01*
X123317000Y-78867000D02*
X123317000Y-72009000D01*
X120015000Y-78867000D02*
X123317000Y-78867000D01*
X120015000Y-72009000D02*
X120015000Y-78867000D01*
X114427000Y-72009000D02*
X120015000Y-72009000D01*
X114427000Y-78867000D02*
X114427000Y-72009000D01*
X111125000Y-78867000D02*
X114427000Y-78867000D01*
X111125000Y-72009000D02*
X111125000Y-78867000D01*
X91694000Y-72009000D02*
X111125000Y-72009000D01*
X82804000Y-72009000D02*
X88392000Y-72009000D01*
X79502000Y-72009000D02*
X76400000Y-72010000D01*
X91694000Y-78867000D02*
X91694000Y-72009000D01*
X88392000Y-78867000D02*
X91694000Y-78867000D01*
X88392000Y-72009000D02*
X88392000Y-78867000D01*
X82804000Y-78867000D02*
X82804000Y-72009000D01*
X79502000Y-78867000D02*
X82804000Y-78867000D01*
X79502000Y-72009000D02*
X79502000Y-78867000D01*
X76400000Y-113600000D02*
X76400000Y-72010000D01*
X126400000Y-113600000D02*
X76400000Y-113600000D01*
X126400000Y-72010000D02*
X126400000Y-113600000D01*
M02*
