M48
;DRILL file {KiCad 4.0.7} date 07/06/18 22:20:42
;FORMAT={-:-/ absolute / inch / decimal}
FMAT,2
INCH,TZ
T1C0.016
T2C0.040
T3C0.043
%
G90
G05
M72
T1
X3.2205Y-4.252
X3.4331Y-3.689
X3.446Y-3.525
X3.4764Y-4.1181
X3.5236Y-4.2362
X3.5906Y-4.2756
X3.6417Y-3.8661
X3.6417Y-3.8976
X3.6457Y-3.7323
X3.6929Y-4.2402
X3.752Y-4.311
X3.7795Y-3.8071
X3.7953Y-3.9213
X3.8Y-2.95
X3.8504Y-3.9213
X3.8701Y-3.6024
X3.8976Y-3.5118
X3.9311Y-3.435
X3.937Y-4.1181
X3.9528Y-3.6024
X4.Y-3.05
X4.Y-3.7402
X4.0157Y-4.1693
X4.028Y-4.099
X4.0315Y-4.0079
X4.0512Y-3.8661
X4.063Y-4.0394
X4.0866Y-3.878
X4.09Y-4.098
X4.112Y-4.299
X4.126Y-3.1811
X4.1654Y-3.8701
X4.1654Y-4.126
X4.1693Y-3.6969
X4.212Y-3.492
X4.212Y-4.297
X4.228Y-2.999
X4.254Y-3.484
X4.32Y-4.31
X4.3268Y-3.3583
X4.45Y-4.15
X4.51Y-3.31
X4.5675Y-4.2756
X4.585Y-3.33
X4.6535Y-4.0472
X4.7717Y-4.1457
T2
X3.837Y-4.265
X3.837Y-4.365
X3.937Y-4.265
X3.937Y-4.365
X4.037Y-4.265
X4.037Y-4.365
T3
X3.0984Y-3.4921
X3.0984Y-3.748
X3.2756Y-3.4921
X3.2756Y-3.748
T0
M30
